<svg width="480" height="379" viewBox="0 0 480 379" fill="none" xmlns="http://www.w3.org/2000/svg">
<path d="M431.904 349.944H400.108V350.199H431.904V349.944Z" fill="#EBEBEB"/>
<path d="M317.971 352.715H309.629V352.97H317.971V352.715Z" fill="#EBEBEB"/>
<path d="M399.149 340.49H380.727V340.744H399.149V340.49Z" fill="#EBEBEB"/>
<path d="M91.8237 342.201H50.3613V342.456H91.8237V342.201Z" fill="#EBEBEB"/>
<path d="M106.455 342.201H100.378V342.456H106.455V342.201Z" fill="#EBEBEB"/>
<path d="M216.145 346.5H126.212V346.755H216.145V346.5Z" fill="#EBEBEB"/>
<path d="M227.52 288.114H42.1536C40.7015 288.111 39.3097 287.497 38.2838 286.406C37.2578 285.316 36.6816 283.838 36.6816 282.296V5.76635C36.6943 4.23412 37.2761 2.76905 38.3006 1.68938C39.3252 0.609703 40.7098 0.0026248 42.1536 0H227.52C228.974 0 230.368 0.612891 231.396 1.70384C232.424 2.7948 233.002 4.27445 233.002 5.81729V282.296C233.002 283.839 232.424 285.319 231.396 286.41C230.368 287.501 228.974 288.114 227.52 288.114ZM42.1536 0.203759C40.7651 0.206457 39.4344 0.793704 38.4535 1.8366C37.4726 2.8795 36.9216 4.29282 36.9216 5.76635V282.296C36.9216 283.77 37.4726 285.183 38.4535 286.226C39.4344 287.269 40.7651 287.856 42.1536 287.859H227.52C228.909 287.856 230.241 287.269 231.224 286.227C232.206 285.184 232.759 283.771 232.762 282.296V5.76635C232.759 4.29189 232.206 2.87858 231.224 1.83598C230.241 0.793373 228.909 0.206452 227.52 0.203759H42.1536Z" fill="#EBEBEB"/>
<path d="M435.178 288.114H249.802C248.349 288.111 246.956 287.497 245.929 286.407C244.901 285.317 244.323 283.838 244.32 282.296V5.76635C244.335 4.23319 244.919 2.76813 245.945 1.68874C246.972 0.609347 248.357 0.00259617 249.802 0H435.178C436.62 0.00530229 438.002 0.613565 439.025 1.69295C440.047 2.77234 440.628 4.23588 440.64 5.76635V282.296C440.64 283.836 440.065 285.312 439.042 286.403C438.018 287.493 436.628 288.108 435.178 288.114ZM249.802 0.203759C248.413 0.206452 247.081 0.793373 246.098 1.83598C245.116 2.87858 244.563 4.29189 244.56 5.76635V282.296C244.563 283.771 245.116 285.184 246.098 286.227C247.081 287.269 248.413 287.856 249.802 287.859H435.178C436.567 287.856 437.899 287.269 438.881 286.227C439.864 285.184 440.417 283.771 440.419 282.296V5.76635C440.417 4.29189 439.864 2.87858 438.881 1.83598C437.899 0.793373 436.567 0.206452 435.178 0.203759H249.802Z" fill="#EBEBEB"/>
<path d="M480 333.552H0V333.806H480V333.552Z" fill="#EBEBEB"/>
<path d="M117.466 265.222C118.426 266.485 119.386 267.972 119.079 269.551C118.863 270.416 118.348 271.162 117.636 271.64C116.923 272.118 116.067 272.292 115.239 272.129C114.421 271.935 113.662 271.524 113.034 270.935C112.406 270.345 111.929 269.595 111.649 268.757C111.274 267.738 111.13 266.617 110.756 265.588C109.681 262.603 106.916 260.78 104.305 259.17C104.141 262.226 105.793 265.16 107.751 267.463C109.709 269.765 112.033 271.732 113.722 274.258C115.412 276.785 116.381 280.167 115.22 283.01C115.14 283.251 115.001 283.466 114.817 283.631C114.527 283.812 114.183 283.867 113.857 283.784C110.804 283.346 108.721 280.3 107.377 277.355C106.033 274.411 104.929 271.131 102.452 269.205C103.546 273.107 106.484 276.102 108.049 279.811C109.026 282.215 109.408 284.844 109.159 287.449C108.911 290.054 108.039 292.548 106.628 294.695C106.527 294.888 106.39 295.056 106.225 295.189C106.059 295.323 105.87 295.418 105.668 295.469C105.073 295.531 104.641 294.889 104.391 294.318C101.895 288.531 103.729 280.728 99.4087 276.326L97.4119 280.952C97.0674 281.924 96.5305 282.806 95.8375 283.539C95.4855 283.899 95.0365 284.134 94.5531 284.211C94.0696 284.287 93.5756 284.202 93.1399 283.967C91.8535 283.091 92.1799 281.033 92.7463 279.515C94.1767 275.617 95.9408 271.865 98.0167 268.308C96.5671 267.585 95.1367 269.164 94.0423 270.448C92.9479 271.732 90.9607 272.852 89.9815 271.467C89.6905 271.008 89.5551 270.459 89.5975 269.908C89.5975 267.229 91.3351 264.896 93.1687 263.052C95.0023 261.208 97.1047 259.547 98.3335 257.194C96.9554 257.64 95.4891 257.682 94.0903 257.316C92.7367 256.817 91.6423 255.176 92.1703 253.77C93.8017 251.804 95.6085 250.009 97.5655 248.412C99.7639 247.668 101.914 249.828 103.585 251.111C108.788 255.132 113.457 259.878 117.466 265.222Z" fill="#EBEBEB"/>
<path d="M105.331 287.981C105.331 287.207 105.331 286.443 105.331 285.679C105.091 263.734 101.434 255.543 100.531 255.309L100.426 254.29C100.586 254.272 100.748 254.293 100.899 254.352C101.05 254.41 101.187 254.504 101.299 254.626C103.219 256.368 106.099 266.077 106.339 285.659C106.339 286.423 106.339 287.187 106.339 287.961L105.331 287.981Z" fill="#E0E0E0"/>
<path d="M105.322 299.31C105.322 298.658 105.322 289.316 105.322 285.801V284.426C105.322 263.418 108.337 252.986 110.353 251.101C110.467 250.977 110.605 250.881 110.757 250.819C110.91 250.758 111.073 250.732 111.236 250.744L111.111 251.763C110.151 252.018 106.311 260.82 106.311 284.436V285.811C106.311 289.326 106.311 298.668 106.311 299.3L105.322 299.31Z" fill="#E0E0E0"/>
<path d="M118.887 333.246H92.9571L90.4131 300.146H121.421L118.887 333.246Z" fill="#F0F0F0"/>
<path d="M123.437 301.857H88.1473L87.5137 297.456H124.07L123.437 301.857Z" fill="#FAFAFA"/>
<path d="M71.2029 246.863C69.4077 246.812 67.3629 246.924 66.1821 248.32C65.5708 249.15 65.2742 250.192 65.3506 251.242C65.427 252.292 65.8708 253.274 66.5949 253.994C67.352 254.681 68.2608 255.152 69.2363 255.364C70.2118 255.576 71.222 255.522 72.1725 255.207C73.3629 254.85 74.4573 254.188 75.6477 253.842C79.0749 252.823 82.6845 254.29 85.9773 255.757C83.3277 258.131 79.5741 258.528 76.1181 258.202C72.6621 257.876 69.2445 256.939 65.7789 257.051C62.3133 257.163 58.5597 258.589 56.8893 261.829C56.7308 262.081 56.638 262.372 56.6205 262.675C56.6698 263.097 56.8689 263.483 57.1773 263.754C59.7501 266.515 63.9549 266.444 67.5453 265.69C71.1357 264.936 74.8605 263.714 78.3741 264.804C74.1213 266.485 69.3405 265.66 64.9341 266.74C62.0901 267.473 59.4693 268.963 57.3191 271.07C55.169 273.177 53.5607 275.831 52.6461 278.782C52.5465 279.019 52.4951 279.276 52.4951 279.536C52.4951 279.795 52.5465 280.052 52.6461 280.289C53.0109 280.941 53.8941 280.921 54.5661 280.758C61.5069 279.148 67.1805 271.732 74.1981 272.934L71.4909 278.252C70.8641 279.291 70.4579 280.463 70.3005 281.685C70.22 282.303 70.3264 282.931 70.6041 283.481C70.8819 284.03 71.3167 284.471 71.8461 284.742C73.5453 285.414 75.1389 283.59 76.0989 281.96C78.5743 277.732 80.6791 273.271 82.3869 268.634C84.0765 269.572 83.7117 272.18 83.3469 274.156C82.9821 276.133 83.3469 278.965 85.2669 278.996C85.8845 278.961 86.4731 278.706 86.9373 278.272C89.3181 276.326 90.1821 272.954 90.5181 269.786C90.8541 266.617 90.8349 263.316 92.0637 260.403C92.646 262.113 93.6587 263.621 94.9917 264.763C96.4029 265.782 98.6397 265.7 99.5133 264.142C100.11 261.098 100.432 258 100.473 254.891C99.5709 252.15 96.1053 251.519 93.7533 250.765C86.4388 248.381 78.852 247.068 71.2029 246.863Z" fill="#F5F5F5"/>
<path d="M116.621 282.205C117.418 283.906 118.455 285.74 120.183 286.219C121.162 286.405 122.171 286.194 123.01 285.628C123.849 285.062 124.458 284.182 124.714 283.162C124.93 282.132 124.896 281.06 124.614 280.047C124.332 279.035 123.811 278.115 123.101 277.376C122.256 276.428 121.181 275.705 120.336 274.757C117.869 272.027 117.456 267.942 117.092 264.172C120.308 265.548 122.41 268.879 123.754 272.322C125.098 275.766 125.924 279.352 127.642 282.51C129.36 285.669 132.288 288.521 135.754 288.623C136.037 288.655 136.323 288.602 136.58 288.47C136.908 288.229 137.138 287.865 137.223 287.451C138.317 283.743 136.263 279.831 133.968 276.815C131.674 273.8 128.89 270.886 128.151 267.086C131.549 270.285 133.104 275.155 136.08 278.792C138.022 281.115 140.492 282.874 143.254 283.901C146.016 284.928 148.979 285.189 151.863 284.66C152.108 284.644 152.347 284.575 152.565 284.455C152.783 284.336 152.976 284.17 153.13 283.967C153.495 283.325 153.063 282.51 152.602 281.93C148.004 276.174 139.162 274.34 136.887 267.198H142.58C143.739 267.294 144.903 267.127 145.997 266.709C146.538 266.485 146.999 266.088 147.317 265.573C147.636 265.059 147.795 264.451 147.773 263.836C147.543 261.931 145.277 261.289 143.472 261.157C138.791 260.818 134.09 260.934 129.428 261.503C129.428 259.465 131.76 258.61 133.584 258.049C135.408 257.489 137.578 255.747 136.704 253.974C136.387 253.412 135.9 252.981 135.322 252.752C132.586 251.427 129.37 252.212 126.576 253.383C123.783 254.555 121.047 256.103 118.052 256.327C119.192 254.973 119.971 253.32 120.308 251.539C120.48 249.746 119.348 247.678 117.668 247.596C114.856 248.467 112.13 249.624 109.527 251.05C107.674 253.19 108.768 256.725 109.239 259.272C110.706 267.237 113.19 274.952 116.621 282.205Z" fill="#F0F0F0"/>
<path opacity="0.2" d="M258.999 32.9784C258.999 33.335 258.999 33.6814 258.999 33.9972V60.3635H224.861L223.047 58.5398L224.861 32.9478C224.861 28.1437 226.66 23.5363 229.861 20.1392C233.062 16.7422 237.403 14.8337 241.93 14.8337C246.457 14.8337 250.799 16.7422 254 20.1392C257.201 23.5363 258.999 28.1437 258.999 32.9478V32.9784Z" fill="black"/>
<path d="M257.184 31.1546C257.184 31.501 257.184 31.8576 257.184 32.1734V58.5397H223.047V31.1546C223.047 28.7758 223.488 26.4203 224.346 24.2226C225.204 22.0249 226.461 20.0281 228.046 18.346C229.631 16.664 231.513 15.3297 233.584 14.4194C235.655 13.5091 237.874 13.0405 240.116 13.0405C242.357 13.0405 244.577 13.5091 246.648 14.4194C248.718 15.3297 250.6 16.664 252.185 18.346C253.77 20.0281 255.027 22.0249 255.885 24.2226C256.743 26.4203 257.184 28.7758 257.184 31.1546Z" fill="#F0F0F0"/>
<path d="M252.52 33.6117C253.578 26.6915 249.15 20.171 242.629 19.0477C236.109 17.9244 229.964 22.6237 228.906 29.5439C227.847 36.4641 232.275 42.9846 238.796 44.1079C245.317 45.2312 251.461 40.5319 252.52 33.6117Z" fill="#E0E0E0"/>
<path d="M239.318 44.032C245.924 44.032 251.28 38.3487 251.28 31.3379C251.28 24.3271 245.924 18.6438 239.318 18.6438C232.712 18.6438 227.356 24.3271 227.356 31.3379C227.356 38.3487 232.712 44.032 239.318 44.032Z" fill="white"/>
<path d="M240.115 32.1836C240.115 32.3851 240.059 32.5821 239.954 32.7496C239.848 32.9171 239.698 33.0477 239.523 33.1248C239.347 33.2019 239.154 33.2221 238.968 33.1828C238.782 33.1435 238.611 33.0465 238.476 32.904C238.342 32.7615 238.251 32.58 238.214 32.3823C238.177 32.1847 238.196 31.9799 238.268 31.7937C238.341 31.6076 238.464 31.4484 238.622 31.3365C238.78 31.2245 238.965 31.1648 239.155 31.1648C239.41 31.1648 239.654 31.2721 239.834 31.4632C240.014 31.6543 240.115 31.9134 240.115 32.1836Z" fill="#E0E0E0"/>
<path d="M239.03 32.5707L234.902 28.4446L235.306 27.9862L239.05 31.7251L245.76 25.4392L246.144 25.8977L239.03 32.5707Z" fill="#E0E0E0"/>
<path d="M127.517 151.586C122.496 152.605 113.117 153.246 102.336 153.246C91.5551 153.246 82.1759 152.584 77.1551 151.586C76.9282 152.14 76.6022 152.641 76.1951 153.063C74.5535 154.795 71.3183 154.174 70.2719 153.063C69.2255 151.953 68.6399 148.519 70.2719 146.787C70.6271 146.41 71.2319 146.37 71.4527 145.921C73.1807 142.213 70.0991 135.122 70.0991 127.461C70.0991 119.8 73.1807 112.729 71.4431 109.011C70.7519 107.523 69.0527 106.78 69.0527 105.007C69.0527 103.234 70.7519 102.501 71.4431 101.013C73.1711 97.2946 70.0991 90.2038 70.0991 82.5527C70.0991 74.9016 73.1807 67.8108 71.4527 64.0922C71.2415 63.6541 70.6271 63.6032 70.2719 63.2364C68.6399 61.5045 69.2255 58.0712 70.2719 56.9607C71.3183 55.8502 74.5535 55.2287 76.1951 56.9607C76.5983 57.3988 76.6367 58.1527 77.1551 58.4379C81.6287 61.046 91.5551 56.7671 102.336 56.7671C113.117 56.7671 123.043 61.046 127.517 58.4379C127.997 58.1527 128.026 57.4191 128.477 56.9607C130.109 55.2287 133.354 55.8502 134.39 56.9607C135.427 58.0712 136.032 61.5045 134.39 63.2364C134.045 63.6032 133.43 63.6541 133.219 64.0922C131.491 67.8108 134.573 74.9016 134.573 82.5527C134.573 90.2038 131.491 97.2946 133.219 101.013C133.92 102.501 135.619 103.234 135.619 105.007C135.619 106.78 133.92 107.523 133.219 109.011C131.491 112.729 134.573 119.82 134.573 127.461C134.573 135.102 131.491 142.213 133.219 145.921C133.43 146.37 134.045 146.41 134.39 146.787C136.032 148.519 135.437 151.953 134.39 153.063C133.344 154.174 130.109 154.795 128.477 153.063C128.063 152.647 127.737 152.144 127.517 151.586Z" fill="#E0E0E0"/>
<path d="M129.427 149.558C124.406 150.577 115.027 151.229 104.246 151.229C93.4651 151.229 84.0859 150.557 79.0555 149.558C78.8357 150.116 78.5088 150.619 78.0955 151.036C76.4635 152.767 73.2283 152.146 72.1819 151.036C71.1355 149.925 70.5499 146.492 72.1819 144.76C72.5275 144.393 73.1419 144.342 73.3531 143.904C75.0811 140.185 71.9995 133.095 71.9995 125.444C71.9995 117.792 75.0811 110.702 73.3531 106.983C72.6619 105.496 70.9531 104.752 70.9531 102.989C70.9531 101.227 72.6619 100.473 73.3531 98.9856C75.1195 95.267 71.9995 88.1762 71.9995 80.4843C71.9995 72.7925 75.0811 65.7424 73.3531 62.0239C73.1515 61.5858 72.5275 61.545 72.1819 61.1681C70.5499 59.4361 71.1355 56.0028 72.1819 54.8923C73.2283 53.7818 76.4635 53.1604 78.0955 54.8923C78.5083 55.3304 78.5371 56.0945 79.0555 56.3696C83.5387 58.9777 93.4555 54.6988 104.246 54.6988C115.036 54.6988 124.944 58.9777 129.427 56.3696C129.907 56.0945 129.936 55.3508 130.387 54.8923C132.019 53.1604 135.254 53.7818 136.3 54.8923C137.347 56.0028 137.932 59.4361 136.3 61.1681C135.955 61.545 135.34 61.5858 135.129 62.0239C133.401 65.7424 136.483 72.8332 136.483 80.4843C136.483 88.1354 133.401 95.2262 135.129 98.9448C135.82 100.432 137.529 101.176 137.529 102.949C137.529 104.721 135.82 105.455 135.129 106.942C133.401 110.661 136.483 117.752 136.483 125.403C136.483 133.054 133.401 140.145 135.129 143.863C135.34 144.301 135.955 144.352 136.3 144.719C137.932 146.451 137.347 149.884 136.3 150.995C135.254 152.105 132.019 152.727 130.387 150.995C129.978 150.59 129.651 150.102 129.427 149.558Z" fill="#FAFAFA"/>
<path d="M79.0365 142.844H129.437V63.1242H79.0365V142.844Z" fill="#EBEBEB"/>
<path d="M299.203 62.7777C299.203 62.7777 324.394 36.6763 358.56 36.6763C392.726 36.6763 414.72 62.7777 414.72 62.7777V270.611H299.203V62.7777Z" fill="#F5F5F5"/>
<path d="M411.84 63.7761C397.189 48.7016 377.584 40.2715 357.178 40.2715C336.772 40.2715 317.167 48.7016 302.516 63.7761V267.942H411.84V63.7761ZM408.423 264.294H305.914V65.3247C319.824 51.5559 338.137 43.8989 357.159 43.8989C376.18 43.8989 394.494 51.5559 408.404 65.3247L408.423 264.294Z" fill="#E0E0E0"/>
<path d="M417.791 274.258H296.515V61.1273L297.388 60.19C313.241 43.3733 334.738 33.9263 357.153 33.9263C379.568 33.9263 401.065 43.3733 416.918 60.19L417.791 61.1273V274.258ZM302.495 267.942H411.839V63.7762C397.189 48.7016 377.583 40.2715 357.177 40.2715C336.771 40.2715 317.166 48.7016 302.515 63.7762L302.495 267.942Z" fill="#EBEBEB"/>
<path d="M373.382 43.4617V60.0476H340.924V43.4617C338.908 43.9201 336.912 44.4805 334.953 45.0714V60.0476H308.4C306.816 61.4127 305.26 62.839 303.772 64.357V66.3946H334.953V128.826H303.772V135.163H334.953V197.91H303.772V204.257H334.953V266.556H340.924V204.257H373.382V266.556H379.363V204.257H410.534V197.91H379.363V135.163H410.534V128.826H379.363V66.3946H410.534V64.357C409.046 62.839 407.5 61.4127 405.916 60.0476H379.363V45.0714C377.395 44.4499 375.36 43.9201 373.382 43.4617ZM373.382 197.91H340.924V135.163H373.382V197.91ZM373.382 128.826H340.924V66.3946H373.382V128.826Z" fill="#E6E6E6"/>
<path d="M427.527 274.788H285.629V287.767H427.527V274.788Z" fill="#F0F0F0"/>
<path d="M240.001 379C342.8 379 426.135 373.837 426.135 367.467C426.135 361.098 342.8 355.935 240.001 355.935C137.201 355.935 53.8662 361.098 53.8662 367.467C53.8662 373.837 137.201 379 240.001 379Z" fill="#F5F5F5"/>
<path d="M334.079 318.209C334.079 318.209 337.919 319.146 339.705 324.22C341.49 329.293 346.924 332.441 350.428 332.258C351.839 332.186 353.164 332.889 354.719 333.847L356.073 334.672C356.015 334.173 355.967 333.654 355.938 333.114C355.564 332.808 355.189 332.472 354.825 332.095C354.746 332.005 354.663 331.92 354.575 331.84C350.351 327.531 350.236 322.997 345.311 318.922C340.386 314.847 334.079 318.209 334.079 318.209Z" fill="#407BFF"/>
<path d="M375.072 313.706C373.821 314.353 372.733 315.306 371.898 316.488C371.063 317.67 370.506 319.045 370.272 320.501C369.187 325.788 364.214 329.721 360.672 330.057C359.27 330.2 358.051 331.076 356.64 332.278C356.246 332.594 355.843 332.94 355.411 333.297C355.411 332.788 355.411 332.278 355.334 331.728C355.67 331.361 355.987 330.984 356.294 330.577C356.361 330.475 356.438 330.383 356.505 330.292C360.115 325.391 359.635 320.888 363.964 316.11C368.294 311.332 375.072 313.706 375.072 313.706Z" fill="#407BFF"/>
<path d="M356.717 332.278C356.832 335.114 356.554 337.953 355.891 340.704C353.52 350.484 353.28 346.867 353.28 346.867C353.28 346.867 355.565 337.698 355.488 333.307C355.488 332.798 355.488 332.288 355.411 331.738C355.272 329.791 354.901 327.871 354.307 326.023C351.801 318.341 346.8 315.967 344.822 307.685C342.845 299.402 349.699 293.564 349.699 293.564C349.699 293.564 348.739 298.74 353.385 303.487C358.032 308.235 358.656 316.487 356.678 320.684C355.526 323.129 356.256 326.196 356.592 330.271C356.649 330.933 356.688 331.596 356.717 332.278Z" fill="#407BFF"/>
<path d="M360.959 374.018H345.599C344.807 374.018 344.042 373.714 343.445 373.161C342.849 372.609 342.461 371.845 342.354 371.013L338.265 338.809H368.265L364.165 371.013C364.06 371.838 363.677 372.596 363.089 373.148C362.5 373.7 361.744 374.008 360.959 374.018Z" fill="#407BFF"/>
<path d="M370.77 338.697V344.616H367.535L364.175 371.003C364.073 371.835 363.687 372.6 363.092 373.153C362.496 373.706 361.731 374.01 360.94 374.008H345.599C344.809 374.006 344.046 373.7 343.452 373.148C342.857 372.596 342.471 371.834 342.364 371.003L339.004 344.616H335.279V338.697H370.77Z" fill="#407BFF"/>
<path opacity="0.5" d="M370.77 338.697V344.616H367.535L364.175 371.003C364.073 371.835 363.687 372.6 363.092 373.153C362.496 373.706 361.731 374.01 360.94 374.008H345.599C344.809 374.006 344.046 373.7 343.452 373.148C342.857 372.596 342.471 371.834 342.364 371.003L339.004 344.616H335.279V338.697H370.77Z" fill="black"/>
<path d="M188.593 271.905C188.501 272.883 188.074 273.79 187.392 274.455C186.711 275.12 185.822 275.496 184.897 275.511C184.461 275.52 184.029 275.43 183.63 275.247C183.23 275.065 182.871 274.794 182.578 274.453C182.284 274.111 182.063 273.708 181.928 273.268C181.793 272.829 181.748 272.364 181.796 271.905C181.901 270.933 182.333 270.034 183.012 269.372C183.69 268.71 184.571 268.329 185.492 268.298C185.927 268.29 186.359 268.38 186.759 268.562C187.159 268.745 187.518 269.016 187.811 269.357C188.105 269.699 188.326 270.102 188.461 270.542C188.596 270.981 188.641 271.446 188.593 271.905Z" fill="#407BFF"/>
<path d="M190.82 269.45C190.724 269.445 190.63 269.419 190.544 269.374C190.458 269.328 190.383 269.264 190.322 269.185C190.261 269.106 190.217 269.014 190.192 268.916C190.167 268.818 190.162 268.715 190.177 268.614C190.349 266.577 188.362 264.916 185.655 264.916C182.948 264.916 180.625 267.382 180.529 268.614C180.515 268.831 180.428 269.035 180.283 269.189C180.138 269.343 179.946 269.435 179.741 269.45C179.646 269.445 179.552 269.419 179.466 269.374C179.38 269.328 179.304 269.264 179.244 269.185C179.183 269.106 179.139 269.014 179.114 268.916C179.088 268.818 179.083 268.715 179.098 268.614C179.3 266.19 182.429 263.235 185.818 263.235C189.207 263.235 191.876 265.599 191.626 268.614C191.612 268.834 191.522 269.041 191.373 269.196C191.225 269.35 191.028 269.44 190.82 269.45Z" fill="#407BFF"/>
<path d="M192.711 264.722C192.615 264.718 192.521 264.692 192.436 264.646C192.35 264.601 192.274 264.536 192.213 264.457C192.153 264.379 192.108 264.287 192.083 264.189C192.058 264.09 192.053 263.988 192.068 263.887C192.231 261.849 189.495 260.189 185.962 260.189C182.257 260.189 179.338 262.777 179.242 263.887C179.229 264.104 179.142 264.308 178.997 264.462C178.852 264.615 178.66 264.708 178.455 264.722C178.359 264.718 178.265 264.692 178.18 264.646C178.094 264.601 178.018 264.536 177.957 264.457C177.897 264.379 177.852 264.287 177.827 264.189C177.802 264.09 177.797 263.988 177.812 263.887C178.014 261.462 181.873 258.508 186.097 258.508C190.561 258.508 193.777 260.82 193.489 263.887C193.476 264.102 193.39 264.305 193.247 264.459C193.104 264.612 192.914 264.706 192.711 264.722Z" fill="#407BFF"/>
<path d="M194.564 260.403C194.467 260.399 194.372 260.372 194.286 260.326C194.199 260.28 194.123 260.215 194.062 260.134C194.001 260.054 193.957 259.962 193.933 259.862C193.908 259.763 193.904 259.659 193.921 259.557C194.065 257.774 191.041 255.869 186.241 255.869C181.441 255.869 178.023 258.61 177.946 259.557C177.937 259.775 177.853 259.982 177.71 260.138C177.566 260.294 177.374 260.388 177.169 260.403C177.072 260.398 176.977 260.372 176.89 260.326C176.803 260.28 176.726 260.215 176.664 260.135C176.603 260.055 176.558 259.962 176.532 259.863C176.507 259.763 176.501 259.659 176.516 259.557C176.718 257.143 181.316 254.188 186.385 254.188C191.838 254.188 195.62 256.45 195.361 259.557C195.349 259.778 195.262 259.986 195.115 260.142C194.968 260.298 194.772 260.391 194.564 260.403Z" fill="#407BFF"/>
<path d="M359.615 221.036H104.773L118.905 49.5842H373.746L359.615 221.036Z" fill="#407BFF"/>
<path d="M356.16 234.454H104.976C103.324 234.485 101.685 234.142 100.167 233.448C98.65 232.754 97.2894 231.725 96.1759 230.43C95.0624 229.134 94.2217 227.602 93.7096 225.935C93.1976 224.268 93.0259 222.504 93.2061 220.761L107.251 50.3891C107.611 46.6797 109.237 43.238 111.822 40.7123C114.407 38.1865 117.773 36.7511 121.286 36.6762H372.413C374.064 36.6455 375.704 36.9885 377.221 37.6824C378.738 38.3763 380.099 39.4052 381.212 40.7005C382.326 41.9959 383.167 43.5281 383.679 45.1951C384.191 46.8622 384.362 48.6258 384.182 50.3687L370.137 220.761C369.774 224.457 368.155 227.885 365.582 230.406C363.01 232.926 359.66 234.365 356.16 234.454Z" fill="#263238"/>
<path d="M356.151 221.036H115.431L129.571 49.5842H370.282L356.151 221.036Z" fill="#407BFF"/>
<path d="M356.102 221.098H115.411L129.542 49.6558H370.234L356.102 221.098Z" fill="white"/>
<path d="M368.448 71.3865H127.747L129.542 49.6558H370.233L368.448 71.3865Z" fill="#407BFF"/>
<path d="M237.086 128.991C240.134 125.893 240.439 120.981 237.766 118.018C235.093 115.055 230.455 115.163 227.407 118.261C224.358 121.358 224.053 126.27 226.726 129.233C229.399 132.196 234.037 132.088 237.086 128.991Z" fill="#407BFF"/>
<path d="M141.622 161.148C144.66 158.058 144.962 153.159 142.295 150.205C139.628 147.252 135.003 147.363 131.964 150.453C128.925 153.544 128.624 158.443 131.291 161.397C133.958 164.35 138.583 164.239 141.622 161.148Z" fill="#263238"/>
<path d="M214.934 172.023C214.73 174.125 213.808 176.075 212.342 177.506C210.875 178.936 208.966 179.747 206.975 179.786C206.039 179.803 205.109 179.609 204.249 179.215C203.389 178.822 202.617 178.239 201.986 177.504C201.355 176.77 200.878 175.901 200.588 174.956C200.298 174.011 200.201 173.011 200.303 172.023C200.507 169.92 201.429 167.97 202.895 166.539C204.361 165.109 206.27 164.298 208.262 164.259C209.198 164.242 210.128 164.436 210.988 164.83C211.848 165.223 212.62 165.806 213.251 166.541C213.882 167.275 214.359 168.144 214.649 169.089C214.939 170.034 215.036 171.034 214.934 172.023Z" fill="#407BFF"/>
<path d="M137.04 110.824L137.722 109.469C138.292 109.871 138.957 110.094 139.642 110.111C140.362 110.111 140.659 109.897 140.688 109.581C140.774 108.562 137.222 109.296 137.424 106.881C137.52 105.72 138.49 104.762 140.304 104.762C141.065 104.749 141.816 104.945 142.483 105.333L141.84 106.708C141.337 106.39 140.765 106.214 140.179 106.199C139.45 106.199 139.162 106.464 139.133 106.79C139.056 107.808 142.598 107.034 142.406 109.438C142.31 110.579 141.331 111.547 139.526 111.547C138.649 111.569 137.785 111.317 137.04 110.824Z" fill="#263238"/>
<path d="M166.31 111.415L166.569 107.961L164.764 110.773H163.986L162.642 108.053L162.364 111.415H160.761L161.279 104.935H162.71L164.553 108.705L167.039 104.935H168.47L167.951 111.455L166.31 111.415Z" fill="#263238"/>
<path d="M186.605 106.361H184.685L184.809 104.894H190.31L190.195 106.361H188.275L187.853 111.455H186.115L186.605 106.361Z" fill="#263238"/>
<path d="M217.996 104.935L215.472 111.455H213.609L212.764 107.492L211.2 111.415H209.337L207.878 104.894H209.673L210.566 109.061L212.208 104.894H213.801L214.694 109.092L216.336 104.894L217.996 104.935Z" fill="#263238"/>
<path d="M232.502 106.361H230.582L230.707 104.894H236.208L236.16 106.361H234.24L233.817 111.455H232.08L232.502 106.361Z" fill="#263238"/>
<path d="M255.879 106.321L255.764 107.757H258.481L258.356 109.183H255.649L255.466 111.415H253.729L254.266 104.894H259.066L258.941 106.321H255.879Z" fill="#263238"/>
<path d="M276.287 110.824L276.978 109.469C277.562 109.881 278.246 110.104 278.946 110.111C279.666 110.111 279.964 109.897 279.993 109.581C280.079 108.562 276.527 109.296 276.719 106.881C276.815 105.72 277.794 104.762 279.599 104.762C280.36 104.749 281.111 104.945 281.778 105.333L281.135 106.708C280.631 106.391 280.06 106.215 279.474 106.199C278.745 106.199 278.457 106.464 278.428 106.79C278.351 107.808 281.894 107.034 281.692 109.438C281.606 110.579 280.626 111.547 278.812 111.547C277.922 111.572 277.044 111.321 276.287 110.824Z" fill="#263238"/>
<path d="M186.413 120.95L185.876 127.471H184.138L184.56 122.377H183.418L183.533 120.95H186.413Z" fill="#263238"/>
<path d="M211.056 126.004L210.931 127.471H206.131L206.227 126.309L208.713 124.027C209.251 123.548 209.347 123.253 209.366 123.008C209.385 122.764 209.155 122.336 208.627 122.336C208.402 122.335 208.181 122.392 207.982 122.502C207.783 122.612 207.612 122.772 207.484 122.968L206.256 122.204C206.558 121.761 206.959 121.406 207.424 121.169C207.888 120.932 208.4 120.822 208.915 120.849C210.326 120.849 211.238 121.623 211.132 122.835C211.081 123.247 210.947 123.643 210.738 123.994C210.529 124.346 210.251 124.646 209.923 124.873L208.665 126.004H211.056Z" fill="#263238"/>
<path d="M234.038 125.423C233.942 126.533 233.078 127.593 231.158 127.593C230.339 127.612 229.532 127.389 228.825 126.951L229.574 125.566C230.062 125.923 230.642 126.111 231.235 126.106C231.82 126.106 232.195 125.861 232.262 125.423C232.329 124.985 232.041 124.791 231.379 124.791H230.649L230.745 123.63L231.945 122.377H229.536L229.66 120.95H234.096L234 122.102L232.608 123.559C232.817 123.58 233.021 123.646 233.207 123.751C233.392 123.857 233.556 124.001 233.689 124.174C233.822 124.347 233.922 124.547 233.982 124.761C234.041 124.976 234.061 125.201 234.038 125.423Z" fill="#263238"/>
<path d="M257.98 126.218H257.02L256.915 127.471H255.225L255.321 126.218H252.076L252.182 125.016L255.273 120.94H257.068L254.255 124.751H255.503L255.59 123.64H257.279L257.183 124.751H258.143L257.98 126.218Z" fill="#263238"/>
<path d="M280.032 125.372C279.936 126.533 279.024 127.593 277.152 127.593C276.337 127.613 275.532 127.391 274.829 126.951L275.568 125.566C276.056 125.923 276.636 126.111 277.229 126.106C277.815 126.106 278.189 125.851 278.266 125.423C278.343 124.995 278.064 124.761 277.124 124.761H275.52L276.135 120.95H280.052L279.936 122.377H277.44L277.287 123.324H277.699C279.495 123.324 280.128 124.221 280.032 125.372Z" fill="#263238"/>
<path d="M139.881 141.428C139.8 142.082 139.484 142.678 139 143.091C138.515 143.505 137.899 143.704 137.28 143.649C135.561 143.649 134.525 142.549 134.697 140.44C134.705 139.956 134.803 139.478 134.987 139.035C135.172 138.591 135.437 138.192 135.769 137.86C136.101 137.527 136.493 137.269 136.92 137.1C137.348 136.93 137.803 136.854 138.259 136.874C138.878 136.849 139.491 137.011 140.025 137.343L139.286 138.667C138.962 138.431 138.575 138.313 138.182 138.331C137.772 138.308 137.37 138.452 137.057 138.734C136.744 139.017 136.546 139.416 136.502 139.849C136.911 139.516 137.418 139.347 137.933 139.37C138.194 139.342 138.459 139.375 138.707 139.468C138.955 139.562 139.18 139.712 139.367 139.909C139.553 140.106 139.696 140.344 139.785 140.607C139.874 140.87 139.907 141.15 139.881 141.428ZM138.192 141.51C138.204 141.398 138.193 141.286 138.158 141.18C138.123 141.074 138.066 140.978 137.991 140.9C137.916 140.821 137.825 140.762 137.725 140.726C137.625 140.691 137.519 140.68 137.414 140.695C137.191 140.678 136.97 140.755 136.799 140.909C136.628 141.063 136.522 141.283 136.502 141.52C136.454 141.999 136.761 142.335 137.289 142.335C137.403 142.35 137.519 142.341 137.63 142.307C137.74 142.274 137.843 142.217 137.932 142.139C138.021 142.062 138.094 141.967 138.147 141.858C138.2 141.75 138.232 141.631 138.24 141.51H138.192Z" fill="#263238"/>
<path d="M163.324 137.007L163.228 138.158L160.627 143.517H158.707L161.193 138.423H159.58L159.494 139.442H158.016L158.217 136.976L163.324 137.007Z" fill="#263238"/>
<path d="M187.372 141.611C187.276 142.865 186.124 143.649 184.492 143.649C182.86 143.649 181.891 142.854 181.996 141.611C182.019 141.292 182.119 140.984 182.288 140.718C182.456 140.452 182.686 140.237 182.956 140.093C182.763 139.946 182.61 139.747 182.514 139.515C182.418 139.284 182.381 139.03 182.409 138.779C182.505 137.628 183.561 136.884 185.011 136.884C186.46 136.884 187.401 137.628 187.305 138.779C187.28 139.046 187.198 139.303 187.065 139.531C186.932 139.759 186.751 139.951 186.537 140.093C186.807 140.223 187.033 140.439 187.183 140.711C187.332 140.983 187.398 141.298 187.372 141.611ZM185.635 141.561C185.635 141.051 185.327 140.745 184.78 140.745C184.551 140.72 184.322 140.791 184.142 140.943C183.962 141.096 183.847 141.318 183.82 141.561C183.82 142.06 184.118 142.365 184.675 142.365C184.903 142.388 185.131 142.316 185.31 142.164C185.489 142.012 185.606 141.792 185.635 141.55V141.561ZM184.204 138.861C184.204 139.289 184.435 139.543 184.876 139.543C184.971 139.555 185.067 139.546 185.158 139.518C185.249 139.489 185.335 139.442 185.409 139.379C185.483 139.315 185.544 139.237 185.59 139.148C185.635 139.059 185.663 138.961 185.673 138.861C185.673 138.433 185.423 138.178 184.991 138.178C184.803 138.158 184.615 138.217 184.468 138.343C184.321 138.469 184.226 138.651 184.204 138.851V138.861Z" fill="#263238"/>
<path d="M210.24 140.083C210.233 140.569 210.134 141.047 209.949 141.491C209.765 141.935 209.498 142.335 209.165 142.668C208.832 143 208.439 143.258 208.011 143.427C207.582 143.596 207.126 143.671 206.669 143.649C206.053 143.673 205.444 143.511 204.912 143.181L205.651 141.856C205.975 142.092 206.363 142.21 206.755 142.192C207.162 142.211 207.559 142.066 207.869 141.786C208.179 141.507 208.378 141.113 208.426 140.685C208.017 141.009 207.515 141.174 207.005 141.153C206.747 141.176 206.488 141.14 206.245 141.046C206.002 140.951 205.782 140.802 205.599 140.608C205.416 140.414 205.275 140.18 205.186 139.922C205.098 139.664 205.063 139.389 205.085 139.116C205.167 138.465 205.48 137.873 205.96 137.46C206.44 137.047 207.051 136.845 207.667 136.895C209.386 136.874 210.423 137.975 210.24 140.083ZM208.445 139.004C208.445 138.525 208.186 138.189 207.658 138.189C207.435 138.172 207.215 138.249 207.046 138.404C206.877 138.558 206.772 138.778 206.755 139.014C206.743 139.125 206.754 139.238 206.789 139.343C206.824 139.449 206.881 139.545 206.956 139.624C207.031 139.702 207.122 139.762 207.222 139.797C207.322 139.833 207.428 139.844 207.533 139.829C207.758 139.849 207.982 139.773 208.154 139.618C208.327 139.463 208.435 139.243 208.455 139.004H208.445Z" fill="#263238"/>
<path d="M230.985 137.007L230.448 143.517H228.71L229.133 138.423H227.99L228.105 137.007H230.985Z" fill="#263238"/>
<path d="M231.638 140.257C231.811 138.107 233.059 136.874 234.633 136.874C236.208 136.874 237.225 138.107 237.052 140.257C236.88 142.406 235.632 143.649 234.067 143.649C232.502 143.649 231.465 142.416 231.638 140.257ZM235.305 140.257C235.42 138.891 235.056 138.382 234.508 138.382C233.961 138.382 233.5 138.891 233.385 140.257C233.27 141.622 233.635 142.141 234.192 142.141C234.748 142.141 235.2 141.612 235.305 140.257Z" fill="#263238"/>
<path d="M253.93 137.007L253.392 143.517H251.655L252.077 138.423H250.935L251.059 137.007H253.93Z" fill="#263238"/>
<path d="M257.491 137.007L256.954 143.517H255.216L255.638 138.423H254.496L254.611 137.007H257.491Z" fill="#263238"/>
<path d="M276.883 137.007L276.345 143.517H274.608L275.03 138.423H273.888L274.003 137.007H276.883Z" fill="#263238"/>
<path d="M282.134 142.06L282.009 143.517H277.209L277.305 142.365L279.791 140.083C280.329 139.604 280.425 139.299 280.444 139.065C280.444 138.647 280.233 138.392 279.705 138.392C279.481 138.391 279.259 138.448 279.06 138.558C278.861 138.668 278.69 138.828 278.563 139.024L277.334 138.26C277.636 137.817 278.038 137.462 278.502 137.225C278.966 136.989 279.479 136.878 279.993 136.905C281.404 136.905 282.316 137.679 282.211 138.881C282.16 139.293 282.025 139.689 281.817 140.041C281.608 140.393 281.33 140.692 281.001 140.919L279.743 142.06H282.134Z" fill="#263238"/>
<path d="M136.319 153.052L135.782 159.573H134.044L134.467 154.479H133.324L133.439 153.052H136.319Z" fill="white"/>
<path d="M141.58 157.535C141.494 158.635 140.62 159.705 138.7 159.705C137.88 159.727 137.071 159.501 136.367 159.053L137.116 157.668C137.601 158.023 138.178 158.211 138.767 158.208C139.362 158.208 139.727 157.973 139.804 157.535C139.881 157.097 139.583 156.893 138.911 156.893H138.239L138.335 155.732L139.535 154.479H137.087L137.202 153.052H141.647L141.551 154.204L140.159 155.661C140.369 155.682 140.574 155.748 140.759 155.854C140.945 155.961 141.109 156.106 141.242 156.28C141.374 156.455 141.472 156.656 141.53 156.871C141.588 157.087 141.605 157.313 141.58 157.535Z" fill="white"/>
<path d="M159.648 153.052L159.11 159.573H157.372L157.785 154.479H156.652L156.768 153.052H159.648Z" fill="#263238"/>
<path d="M165.926 158.32H164.966L164.86 159.573H163.2L163.296 158.32H160.051L160.147 157.118L163.238 153.042H165.043L162.24 156.894H163.478L163.574 155.783H165.216L165.12 156.894H166.08L165.926 158.32Z" fill="#263238"/>
<path d="M183.763 153.052L183.225 159.573H181.488L181.91 154.479H180.768L180.883 153.052H183.763Z" fill="#263238"/>
<path d="M189.119 157.474C189.023 158.636 188.111 159.705 186.239 159.705C185.422 159.728 184.616 159.502 183.916 159.053L184.655 157.668C185.141 158.023 185.717 158.211 186.306 158.208C186.902 158.208 187.266 157.963 187.353 157.525C187.439 157.087 187.199 156.894 186.239 156.894H184.569L185.193 153.083H189.119L188.994 154.51H186.527L186.364 155.457H186.777C188.61 155.426 189.244 156.323 189.119 157.474Z" fill="#263238"/>
<path d="M206.707 153.052L206.17 159.573H204.48L204.893 154.479H203.712L203.837 153.052H206.707Z" fill="#263238"/>
<path d="M212.524 157.474C212.443 158.127 212.128 158.722 211.646 159.137C211.164 159.552 210.551 159.755 209.932 159.705C208.214 159.705 207.177 158.605 207.35 156.486C207.357 156.002 207.456 155.524 207.64 155.081C207.824 154.638 208.09 154.238 208.422 153.906C208.754 153.573 209.145 153.315 209.573 153.146C210 152.976 210.455 152.9 210.911 152.92C211.531 152.898 212.144 153.064 212.678 153.399L211.939 154.723C211.616 154.484 211.228 154.366 210.835 154.387C210.425 154.364 210.022 154.508 209.709 154.791C209.397 155.073 209.198 155.472 209.155 155.905C209.563 155.57 210.069 155.397 210.585 155.416C210.846 155.391 211.108 155.427 211.354 155.522C211.6 155.616 211.823 155.767 212.008 155.964C212.193 156.16 212.336 156.397 212.425 156.658C212.514 156.919 212.548 157.198 212.524 157.474ZM210.835 157.556C210.847 157.445 210.836 157.332 210.801 157.226C210.766 157.12 210.709 157.025 210.634 156.946C210.559 156.867 210.468 156.808 210.368 156.772C210.268 156.737 210.162 156.726 210.057 156.741C209.827 156.715 209.596 156.788 209.416 156.942C209.236 157.097 209.121 157.321 209.097 157.566C209.084 157.679 209.096 157.794 209.132 157.902C209.167 158.01 209.226 158.108 209.303 158.187C209.38 158.267 209.474 158.327 209.576 158.362C209.678 158.398 209.787 158.408 209.894 158.391C210.008 158.405 210.123 158.394 210.233 158.36C210.343 158.325 210.445 158.266 210.533 158.188C210.622 158.11 210.694 158.014 210.745 157.905C210.797 157.796 210.827 157.677 210.835 157.556Z" fill="#263238"/>
<path d="M229.66 153.052L229.123 159.573H227.385L227.807 154.479H226.665L226.78 153.052H229.66Z" fill="#263238"/>
<path d="M235.574 153.053L235.478 154.204L232.877 159.573H230.957L233.443 154.479H231.83L231.744 155.498H230.266L230.467 153.032L235.574 153.053Z" fill="#263238"/>
<path d="M252.604 153.052L252.076 159.573H250.339L250.752 154.479H249.6L249.724 153.052H252.604Z" fill="#263238"/>
<path d="M258.451 157.647C258.355 158.9 257.203 159.685 255.571 159.685C253.939 159.685 252.97 158.88 253.075 157.647C253.101 157.329 253.202 157.022 253.37 156.757C253.538 156.491 253.767 156.275 254.035 156.129C253.843 155.984 253.69 155.786 253.594 155.557C253.498 155.327 253.461 155.075 253.488 154.825C253.584 153.664 254.64 152.92 256.09 152.92C257.539 152.92 258.48 153.664 258.384 154.825C258.358 155.09 258.275 155.346 258.142 155.571C258.009 155.797 257.829 155.988 257.616 156.129C257.886 156.26 258.11 156.476 258.26 156.748C258.409 157.02 258.476 157.334 258.451 157.647ZM256.714 157.596C256.714 157.097 256.406 156.792 255.859 156.792C255.632 156.766 255.404 156.835 255.224 156.986C255.045 157.136 254.928 157.356 254.899 157.596C254.899 158.096 255.197 158.411 255.754 158.411C255.982 158.432 256.208 158.359 256.387 158.207C256.566 158.056 256.682 157.837 256.714 157.596ZM255.283 154.907C255.283 155.335 255.514 155.589 255.955 155.589C256.05 155.601 256.146 155.592 256.237 155.564C256.329 155.535 256.414 155.488 256.488 155.425C256.562 155.361 256.624 155.283 256.669 155.194C256.714 155.105 256.742 155.007 256.752 154.907C256.752 154.469 256.502 154.214 256.07 154.214C255.976 154.204 255.88 154.214 255.789 154.244C255.698 154.274 255.614 154.322 255.541 154.386C255.468 154.451 255.407 154.53 255.363 154.619C255.319 154.709 255.292 154.806 255.283 154.907Z" fill="#263238"/>
<path d="M275.52 153.052L274.982 159.573H273.244L273.667 154.479H272.524L272.64 153.052H275.52Z" fill="#263238"/>
<path d="M281.328 156.129C281.322 156.615 281.224 157.095 281.04 157.54C280.856 157.985 280.589 158.386 280.256 158.72C279.923 159.054 279.53 159.313 279.101 159.482C278.671 159.651 278.214 159.727 277.757 159.705C277.14 159.726 276.531 159.56 276 159.226L276.739 157.902C277.061 158.143 277.45 158.261 277.843 158.238C278.25 158.259 278.649 158.115 278.959 157.835C279.27 157.555 279.468 157.16 279.514 156.73C279.106 157.058 278.604 157.228 278.093 157.209C277.836 157.231 277.577 157.193 277.335 157.098C277.093 157.003 276.873 156.854 276.69 156.66C276.508 156.466 276.367 156.233 276.278 155.976C276.188 155.719 276.153 155.445 276.173 155.172C276.252 154.52 276.564 153.925 277.045 153.509C277.525 153.094 278.137 152.891 278.755 152.94C280.464 152.92 281.501 154.02 281.328 156.129ZM279.533 155.06C279.581 154.571 279.274 154.234 278.746 154.234C278.523 154.217 278.303 154.295 278.134 154.449C277.965 154.604 277.86 154.823 277.843 155.06C277.829 155.171 277.839 155.285 277.873 155.392C277.907 155.499 277.964 155.597 278.039 155.677C278.115 155.756 278.206 155.817 278.307 155.853C278.408 155.889 278.515 155.9 278.621 155.885C278.844 155.902 279.065 155.825 279.236 155.67C279.407 155.516 279.513 155.297 279.533 155.06Z" fill="#263238"/>
<path d="M136.675 174.213L136.56 175.67H131.76L131.856 174.518L134.4 172.175C134.937 171.686 135.033 171.391 135.053 171.156C135.072 170.922 134.841 170.484 134.313 170.484C134.089 170.483 133.868 170.54 133.669 170.65C133.47 170.76 133.299 170.92 133.171 171.116L131.942 170.351C132.245 169.91 132.647 169.555 133.111 169.318C133.575 169.082 134.087 168.971 134.601 168.996C136.013 168.996 136.925 169.771 136.819 170.973C136.768 171.385 136.633 171.78 136.424 172.132C136.215 172.484 135.937 172.783 135.609 173.011L134.304 174.213H136.675Z" fill="#263238"/>
<path d="M137.328 172.359C137.501 170.209 138.749 168.976 140.324 168.976C141.898 168.976 142.916 170.209 142.743 172.359C142.57 174.508 141.322 175.751 139.757 175.751C138.192 175.751 137.156 174.508 137.328 172.359ZM140.996 172.359C141.111 170.994 140.746 170.484 140.199 170.484C139.652 170.484 139.239 170.994 139.076 172.359C138.912 173.724 139.325 174.243 139.882 174.243C140.439 174.243 140.88 173.734 140.996 172.359Z" fill="#263238"/>
<path d="M160.022 174.213L159.898 175.67H155.098L155.194 174.518L157.68 172.236C158.208 171.747 158.304 171.452 158.323 171.218C158.342 170.983 158.122 170.545 157.594 170.545C157.368 170.542 157.144 170.599 156.944 170.709C156.743 170.819 156.57 170.98 156.442 171.177L155.213 170.413C155.516 169.972 155.918 169.617 156.382 169.381C156.846 169.144 157.358 169.033 157.872 169.058C159.283 169.058 160.195 169.832 160.099 171.034C160.046 171.447 159.909 171.842 159.699 172.194C159.488 172.545 159.209 172.845 158.88 173.072L157.632 174.213H160.022Z" fill="#263238"/>
<path d="M163.584 169.119L163.046 175.639H161.28L161.692 170.545H160.56L160.675 169.119H163.584Z" fill="#263238"/>
<path d="M184.138 174.213L184.013 175.67H179.213L179.309 174.518L181.795 172.236C182.333 171.747 182.429 171.452 182.448 171.218C182.467 170.983 182.237 170.545 181.709 170.545C181.484 170.544 181.263 170.601 181.064 170.711C180.865 170.821 180.694 170.981 180.566 171.177L179.338 170.413C179.641 169.971 180.042 169.616 180.506 169.379C180.97 169.143 181.483 169.032 181.997 169.058C183.408 169.058 184.32 169.832 184.214 171.034C184.163 171.446 184.029 171.842 183.82 172.193C183.611 172.545 183.333 172.845 183.005 173.072L181.766 174.213H184.138Z" fill="#263238"/>
<path d="M189.398 174.213L189.274 175.67H184.474L184.57 174.518L187.056 172.236C187.584 171.747 187.68 171.452 187.709 171.218C187.738 170.983 187.498 170.545 186.97 170.545C186.744 170.545 186.522 170.602 186.321 170.712C186.121 170.822 185.948 170.982 185.818 171.177L184.598 170.413C184.899 169.971 185.299 169.616 185.762 169.379C186.224 169.143 186.735 169.032 187.248 169.058C188.669 169.058 189.571 169.832 189.475 171.034C189.423 171.447 189.288 171.844 189.077 172.195C188.867 172.547 188.586 172.846 188.256 173.072L187.008 174.213H189.398Z" fill="#263238"/>
<path d="M207.082 174.213L206.967 175.67H202.167L202.263 174.519L204.769 172.175C205.297 171.686 205.393 171.391 205.412 171.157C205.431 170.922 205.21 170.484 204.682 170.484C204.456 170.481 204.233 170.538 204.032 170.648C203.831 170.758 203.659 170.919 203.53 171.116L202.301 170.352C202.605 169.911 203.007 169.556 203.471 169.32C203.935 169.083 204.446 168.972 204.961 168.997C206.372 168.997 207.284 169.771 207.188 170.973C207.134 171.386 206.998 171.781 206.787 172.133C206.577 172.484 206.298 172.784 205.969 173.011L204.721 174.152L207.082 174.213Z" fill="#263238"/>
<path d="M212.371 173.581C212.285 174.692 211.411 175.751 209.491 175.751C208.672 175.771 207.865 175.549 207.158 175.11L207.907 173.724C208.392 174.079 208.969 174.268 209.558 174.264C210.153 174.264 210.518 174.019 210.595 173.581C210.672 173.143 210.374 172.95 209.702 172.95H208.973L209.069 171.788L210.269 170.525H207.849L207.965 169.099H212.409L212.313 170.26L210.921 171.707C211.134 171.726 211.34 171.79 211.529 171.895C211.717 172 211.884 172.144 212.019 172.319C212.154 172.494 212.255 172.696 212.316 172.912C212.376 173.129 212.395 173.357 212.371 173.581Z" fill="#263238"/>
<path d="M230.035 174.213L229.91 175.67H225.11L225.206 174.518L227.712 172.175C228.25 171.686 228.346 171.391 228.365 171.156C228.384 170.922 228.154 170.484 227.626 170.484C227.401 170.483 227.18 170.54 226.981 170.65C226.782 170.76 226.611 170.92 226.483 171.116L225.254 170.351C225.557 169.909 225.958 169.553 226.422 169.317C226.887 169.08 227.399 168.97 227.914 168.996C229.325 168.996 230.237 169.771 230.131 170.973C230.08 171.385 229.945 171.78 229.736 172.132C229.528 172.484 229.25 172.783 228.922 173.011L227.664 174.213H230.035Z" fill="#263238"/>
<path d="M236.275 174.376H235.315L235.209 175.619H233.567L233.673 174.376H230.399L230.495 173.174L233.587 169.099H235.382L232.569 172.909H233.817L233.903 171.809H235.545L235.459 172.909H236.371L236.275 174.376Z" fill="#263238"/>
<path d="M252.979 174.213L252.863 175.67H248.063L248.159 174.518L250.646 172.236C251.174 171.747 251.27 171.452 251.289 171.218C251.308 170.983 251.087 170.545 250.559 170.545C250.333 170.542 250.11 170.599 249.909 170.709C249.709 170.819 249.536 170.98 249.407 171.177L248.179 170.413C248.482 169.972 248.884 169.617 249.348 169.381C249.812 169.144 250.324 169.033 250.838 169.058C252.249 169.058 253.161 169.832 253.065 171.034C253.011 171.447 252.875 171.842 252.664 172.194C252.454 172.545 252.175 172.845 251.846 173.072L250.598 174.213H252.979Z" fill="#263238"/>
<path d="M258.374 173.53C258.278 174.692 257.366 175.751 255.494 175.751C254.678 175.772 253.873 175.55 253.171 175.109L253.91 173.724C254.395 174.079 254.972 174.267 255.561 174.264C256.156 174.264 256.521 174.009 256.608 173.571C256.694 173.133 256.406 172.909 255.465 172.909H253.795L254.4 169.119H258.316L258.192 170.545H255.725L255.561 171.503H255.974C257.837 171.482 258.47 172.369 258.374 173.53Z" fill="#263238"/>
<path d="M275.933 174.213L275.808 175.67H271.008L271.104 174.518L273.6 172.175C274.137 171.686 274.224 171.391 274.253 171.156C274.281 170.922 274.041 170.484 273.513 170.484C273.289 170.483 273.068 170.54 272.869 170.65C272.67 170.76 272.499 170.92 272.371 171.116L271.142 170.351C271.445 169.909 271.846 169.553 272.31 169.317C272.775 169.08 273.287 168.97 273.801 168.996C275.213 168.996 276.125 169.771 276.019 170.973C275.968 171.385 275.833 171.78 275.624 172.132C275.416 172.484 275.138 172.783 274.809 173.011L273.6 174.213H275.933Z" fill="#263238"/>
<path d="M281.74 173.53C281.658 174.182 281.344 174.776 280.862 175.19C280.379 175.603 279.766 175.804 279.148 175.751C277.43 175.751 276.393 174.651 276.566 172.542C276.573 172.058 276.671 171.58 276.856 171.137C277.04 170.694 277.306 170.294 277.638 169.962C277.969 169.629 278.361 169.371 278.788 169.202C279.216 169.032 279.671 168.956 280.127 168.976C280.746 168.951 281.359 169.113 281.894 169.445L281.154 170.769C280.83 170.533 280.443 170.415 280.05 170.433C279.64 170.41 279.238 170.554 278.925 170.837C278.613 171.119 278.414 171.518 278.37 171.951C278.78 171.62 279.286 171.451 279.801 171.472C280.062 171.445 280.325 171.48 280.572 171.574C280.819 171.668 281.043 171.819 281.228 172.015C281.414 172.212 281.556 172.45 281.644 172.712C281.733 172.974 281.765 173.253 281.74 173.53ZM280.05 173.612C280.065 173.5 280.054 173.386 280.02 173.279C279.986 173.172 279.929 173.075 279.854 172.995C279.779 172.915 279.687 172.854 279.586 172.818C279.486 172.782 279.378 172.771 279.273 172.786C279.158 172.771 279.04 172.78 278.929 172.815C278.817 172.849 278.713 172.907 278.623 172.985C278.533 173.063 278.46 173.16 278.406 173.269C278.353 173.379 278.321 173.499 278.313 173.622C278.313 174.101 278.572 174.437 279.1 174.437C279.214 174.452 279.33 174.443 279.44 174.41C279.551 174.376 279.654 174.319 279.743 174.242C279.832 174.164 279.905 174.069 279.958 173.96C280.011 173.852 280.042 173.733 280.05 173.612Z" fill="#263238"/>
<path d="M135.36 190.208L135.244 191.675H130.444L130.56 190.513L133.046 188.241C133.574 187.752 133.67 187.457 133.689 187.223C133.708 186.988 133.478 186.56 132.96 186.56C132.733 186.556 132.509 186.611 132.308 186.722C132.107 186.832 131.935 186.994 131.808 187.192L130.56 186.438C130.861 185.994 131.262 185.636 131.726 185.398C132.19 185.16 132.703 185.048 133.219 185.073C134.63 185.073 135.542 185.847 135.436 187.06C135.387 187.472 135.253 187.869 135.044 188.221C134.835 188.573 134.556 188.872 134.227 189.097L132.969 190.228L135.36 190.208Z" fill="#263238"/>
<path d="M141.264 185.155L141.168 186.306L138.557 191.675H136.637L139.123 186.581H137.51L137.424 187.6H135.945L136.147 185.134L141.264 185.155Z" fill="#263238"/>
<path d="M158.697 190.208L158.572 191.675H153.772L153.868 190.514L156.355 188.242C156.883 187.753 156.979 187.457 157.008 187.223C157.036 186.989 156.796 186.561 156.268 186.561C156.042 186.558 155.819 186.614 155.618 186.724C155.418 186.834 155.245 186.995 155.116 187.192L153.897 186.428C154.196 185.983 154.595 185.625 155.058 185.387C155.521 185.148 156.033 185.037 156.547 185.063C157.968 185.063 158.87 185.837 158.774 187.05C158.72 187.462 158.584 187.858 158.373 188.209C158.163 188.561 157.884 188.86 157.555 189.087L156.307 190.218L158.697 190.208Z" fill="#263238"/>
<path d="M164.544 189.76C164.439 191.003 163.296 191.797 161.664 191.797C160.032 191.797 159.063 190.992 159.159 189.76C159.183 189.441 159.285 189.134 159.453 188.868C159.621 188.602 159.85 188.387 160.119 188.242C159.925 188.095 159.771 187.896 159.675 187.664C159.579 187.433 159.543 187.178 159.572 186.927C159.658 185.766 160.724 185.022 162.173 185.022C163.623 185.022 164.554 185.766 164.468 186.927C164.442 187.194 164.36 187.451 164.227 187.679C164.094 187.906 163.913 188.099 163.7 188.242C163.971 188.371 164.198 188.586 164.349 188.858C164.5 189.13 164.569 189.445 164.544 189.76ZM162.807 189.698C162.807 189.199 162.5 188.894 161.952 188.894C161.725 188.868 161.497 188.937 161.318 189.088C161.138 189.238 161.021 189.458 160.992 189.698C160.992 190.198 161.29 190.513 161.847 190.513C162.075 190.534 162.301 190.461 162.48 190.309C162.659 190.158 162.776 189.939 162.807 189.698ZM161.376 187.009C161.376 187.437 161.607 187.691 162.048 187.691C162.143 187.703 162.239 187.694 162.33 187.666C162.422 187.637 162.507 187.59 162.581 187.527C162.655 187.463 162.717 187.385 162.762 187.296C162.807 187.207 162.836 187.109 162.845 187.009C162.845 186.571 162.586 186.316 162.164 186.316C162.069 186.306 161.974 186.316 161.883 186.346C161.792 186.376 161.707 186.424 161.634 186.488C161.561 186.553 161.5 186.632 161.456 186.721C161.412 186.811 161.385 186.908 161.376 187.009Z" fill="#263238"/>
<path d="M182.813 190.208L182.697 191.675H177.897L177.984 190.514L180.48 188.242C181.008 187.753 181.104 187.457 181.123 187.223C181.142 186.989 180.912 186.561 180.393 186.561C180.167 186.556 179.943 186.612 179.742 186.722C179.541 186.832 179.369 186.994 179.241 187.192L178.013 186.428C178.314 185.984 178.715 185.626 179.179 185.388C179.644 185.15 180.157 185.038 180.672 185.063C182.083 185.063 182.995 185.837 182.889 187.05C182.84 187.462 182.706 187.859 182.497 188.211C182.288 188.563 182.009 188.862 181.68 189.087L180.48 190.208H182.813Z" fill="#263238"/>
<path d="M188.592 188.242C188.584 188.727 188.486 189.206 188.301 189.649C188.116 190.093 187.849 190.493 187.516 190.826C187.183 191.158 186.791 191.417 186.362 191.585C185.933 191.754 185.477 191.829 185.02 191.808C184.404 191.828 183.794 191.662 183.264 191.329L184.003 190.004C184.325 190.245 184.714 190.364 185.107 190.34C185.514 190.361 185.913 190.217 186.223 189.937C186.533 189.657 186.731 189.262 186.777 188.833C186.368 189.158 185.867 189.327 185.356 189.312C185.099 189.335 184.839 189.298 184.597 189.204C184.354 189.11 184.133 188.96 183.95 188.766C183.767 188.572 183.627 188.338 183.538 188.08C183.449 187.823 183.415 187.547 183.436 187.274C183.516 186.622 183.828 186.027 184.308 185.612C184.789 185.197 185.401 184.993 186.019 185.043C187.728 185.022 188.764 186.123 188.592 188.242ZM186.796 187.162C186.809 187.049 186.797 186.935 186.762 186.828C186.727 186.721 186.669 186.625 186.593 186.545C186.517 186.465 186.425 186.405 186.324 186.369C186.223 186.333 186.115 186.322 186.009 186.337C185.787 186.32 185.567 186.397 185.398 186.552C185.229 186.706 185.124 186.926 185.107 187.162C185.091 187.273 185.1 187.387 185.132 187.494C185.165 187.601 185.221 187.699 185.296 187.779C185.37 187.859 185.462 187.92 185.562 187.956C185.663 187.992 185.77 188.003 185.875 187.987C186.1 188.004 186.322 187.927 186.494 187.773C186.666 187.619 186.775 187.4 186.796 187.162Z" fill="#263238"/>
<path d="M205.795 189.637C205.699 190.738 204.787 191.807 202.915 191.807C202.096 191.825 201.289 191.603 200.582 191.166L201.331 189.77C201.819 190.127 202.399 190.316 202.992 190.31C203.577 190.31 203.952 190.076 204.019 189.637C204.086 189.199 203.798 189.006 203.136 189.006H202.406L202.502 187.834L203.702 186.581H201.283L201.398 185.155H205.833L205.737 186.306L204.345 187.763C204.558 187.782 204.764 187.846 204.953 187.951C205.141 188.056 205.308 188.2 205.443 188.375C205.578 188.55 205.679 188.752 205.739 188.969C205.8 189.185 205.819 189.413 205.795 189.637Z" fill="#263238"/>
<path d="M206.457 188.415C206.64 186.265 207.878 185.022 209.452 185.022C211.027 185.022 212.044 186.265 211.872 188.415C211.699 190.564 210.451 191.807 208.886 191.807C207.321 191.807 206.284 190.564 206.457 188.415ZM210.124 188.415C210.24 187.05 209.875 186.53 209.328 186.53C208.78 186.53 208.32 187.05 208.204 188.415C208.089 189.78 208.454 190.3 209.011 190.3C209.568 190.3 210.009 189.78 210.124 188.415Z" fill="#263238"/>
<path d="M142.272 80.9731L139.027 84.4778L141.658 88.3492L142.272 80.9731Z" fill="#263238"/>
<path d="M284.745 80.9731L287.404 84.4778L284.131 88.3492L284.745 80.9731Z" fill="#263238"/>
<path d="M242.149 88.3492H183.906L184.511 80.9731H242.754L242.149 88.3492Z" fill="#263238"/>
<path d="M356.102 221.098H290.006L302.351 71.3865H368.447L356.102 221.098Z" fill="#407BFF"/>
<path d="M356.102 221.098H290.006L302.351 71.3865H368.447L356.102 221.098Z" fill="black"/>
<path d="M313.919 131.424H307.487C307.117 131.431 306.749 131.355 306.408 131.201C306.066 131.047 305.76 130.819 305.508 130.53C305.256 130.241 305.064 129.9 304.945 129.527C304.826 129.154 304.783 128.759 304.819 128.367L306.873 103.509C306.959 102.677 307.329 101.908 307.912 101.345C308.496 100.782 309.253 100.465 310.041 100.452H316.483C316.853 100.447 317.22 100.523 317.561 100.678C317.901 100.832 318.207 101.061 318.459 101.35C318.71 101.638 318.902 101.979 319.022 102.351C319.141 102.723 319.185 103.117 319.151 103.509L317.107 128.367C317.018 129.201 316.645 129.972 316.058 130.535C315.471 131.098 314.71 131.414 313.919 131.424Z" fill="white"/>
<path d="M313.92 118.312C313.824 119.422 312.96 120.482 311.04 120.482C310.221 120.5 309.414 120.278 308.707 119.84L309.456 118.454C309.944 118.812 310.524 119 311.117 118.994C311.702 118.994 312.077 118.75 312.144 118.312C312.211 117.874 311.923 117.68 311.261 117.68H310.531L310.627 116.519L311.827 115.255H309.398L309.523 113.829H313.958L313.862 114.991L312.47 116.437C312.682 116.456 312.889 116.52 313.078 116.625C313.266 116.731 313.433 116.875 313.568 117.05C313.703 117.224 313.804 117.426 313.864 117.643C313.925 117.86 313.944 118.087 313.92 118.312Z" fill="#263238"/>
<path d="M353.808 131.424H322.349C321.978 131.431 321.61 131.355 321.269 131.201C320.928 131.047 320.621 130.819 320.369 130.53C320.117 130.241 319.925 129.9 319.807 129.527C319.688 129.154 319.645 128.759 319.68 128.367L321.725 103.509C321.815 102.677 322.188 101.909 322.772 101.347C323.357 100.784 324.114 100.467 324.902 100.452H356.371C356.741 100.446 357.108 100.523 357.448 100.678C357.788 100.832 358.093 101.062 358.344 101.35C358.595 101.638 358.786 101.98 358.904 102.352C359.023 102.724 359.065 103.118 359.03 103.509L356.985 128.367C356.895 129.199 356.523 129.967 355.938 130.53C355.354 131.092 354.597 131.409 353.808 131.424Z" fill="#407BFF"/>
<path d="M350.688 169.211H319.229C318.858 169.217 318.491 169.14 318.151 168.985C317.81 168.831 317.504 168.602 317.252 168.314C317.001 168.025 316.809 167.684 316.69 167.312C316.57 166.94 316.526 166.546 316.56 166.154L318.614 141.296C318.705 140.464 319.077 139.696 319.662 139.134C320.246 138.572 321.003 138.254 321.792 138.24H353.28C353.65 138.234 354.017 138.31 354.358 138.465C354.698 138.62 355.004 138.848 355.256 139.137C355.508 139.425 355.699 139.766 355.819 140.138C355.938 140.51 355.982 140.905 355.949 141.296L353.894 166.154C353.803 166.991 353.427 167.764 352.836 168.327C352.246 168.89 351.482 169.204 350.688 169.211Z" fill="#263238"/>
<path d="M347.577 207.008H316.109C315.739 207.014 315.372 206.937 315.032 206.782C314.692 206.628 314.386 206.399 314.135 206.11C313.884 205.822 313.694 205.48 313.575 205.108C313.457 204.736 313.414 204.342 313.449 203.951L315.494 179.093C315.585 178.261 315.957 177.493 316.542 176.931C317.126 176.368 317.883 176.051 318.672 176.036H350.131C350.502 176.029 350.87 176.105 351.211 176.259C351.552 176.413 351.859 176.641 352.111 176.93C352.363 177.219 352.554 177.56 352.673 177.933C352.792 178.306 352.835 178.701 352.8 179.093L350.745 203.951C350.659 204.783 350.289 205.552 349.706 206.115C349.123 206.678 348.366 206.995 347.577 207.008Z" fill="#407BFF"/>
<path d="M310.819 169.211H304.377C304.007 169.217 303.64 169.14 303.3 168.985C302.96 168.831 302.655 168.602 302.404 168.313C302.153 168.025 301.962 167.684 301.844 167.312C301.726 166.94 301.683 166.545 301.718 166.154L303.763 141.296C303.853 140.464 304.226 139.696 304.81 139.134C305.395 138.572 306.152 138.254 306.94 138.24H313.382C313.752 138.234 314.119 138.31 314.459 138.465C314.799 138.62 315.104 138.849 315.355 139.137C315.606 139.425 315.797 139.767 315.915 140.139C316.033 140.511 316.076 140.905 316.041 141.296L313.996 166.154C313.906 166.986 313.534 167.754 312.949 168.317C312.365 168.879 311.607 169.197 310.819 169.211Z" fill="white"/>
<path d="M307.545 149.568L307.008 156.089H305.28L305.702 150.995H304.56L304.675 149.568H307.545Z" fill="#263238"/>
<path d="M312.825 154.051C312.739 155.162 311.865 156.221 309.945 156.221C309.126 156.241 308.319 156.019 307.612 155.579L308.352 154.194C308.843 154.544 309.421 154.732 310.012 154.734C310.598 154.734 310.972 154.489 311.04 154.051C311.107 153.613 310.828 153.419 310.156 153.419H309.427L309.523 152.258L310.723 150.995H308.304L308.419 149.568H312.864L312.767 150.73L311.376 152.176C311.588 152.194 311.795 152.257 311.985 152.362C312.174 152.467 312.341 152.611 312.477 152.786C312.612 152.961 312.713 153.163 312.773 153.381C312.832 153.598 312.85 153.826 312.825 154.051Z" fill="#263238"/>
<path d="M307.699 207.008H301.267C300.896 207.015 300.528 206.939 300.187 206.785C299.846 206.631 299.539 206.403 299.287 206.114C299.035 205.825 298.843 205.484 298.725 205.111C298.606 204.738 298.563 204.343 298.598 203.951L300.643 179.093C300.733 178.261 301.105 177.493 301.69 176.931C302.274 176.368 303.032 176.051 303.82 176.036H310.262C310.632 176.031 310.999 176.107 311.34 176.262C311.68 176.416 311.986 176.645 312.238 176.934C312.49 177.222 312.681 177.563 312.801 177.935C312.92 178.307 312.964 178.701 312.931 179.093L310.876 203.951C310.786 204.783 310.413 205.551 309.829 206.113C309.244 206.676 308.487 206.993 307.699 207.008Z" fill="white"/>
<path d="M354.672 88.8688H314.947L315.6 80.9731H355.315L354.672 88.8688Z" fill="white"/>
<path d="M216.96 60.903C217.062 59.7557 217.575 58.6936 218.393 57.9356C219.211 57.1775 220.272 56.781 221.357 56.8279C221.942 56.79 222.527 56.9048 223.061 57.1623C223.595 57.4198 224.061 57.8122 224.419 58.3051L222.979 59.5888C222.795 59.3023 222.547 59.0686 222.257 58.9086C221.968 58.7486 221.645 58.6672 221.318 58.6719C220.742 58.658 220.183 58.8853 219.763 59.3045C219.342 59.7238 219.094 60.3016 219.072 60.9132C219.023 61.197 219.036 61.4887 219.11 61.7664C219.183 62.0442 219.315 62.3006 219.495 62.5164C219.675 62.7322 219.899 62.9018 220.15 63.0123C220.401 63.1229 220.673 63.1715 220.944 63.1546C221.293 63.1495 221.637 63.064 221.952 62.9039C222.267 62.7438 222.545 62.513 222.768 62.2275L223.987 63.5111C223.569 63.9949 223.058 64.3773 222.488 64.6322C221.918 64.8871 221.303 65.0086 220.685 64.9884C220.173 65.0364 219.658 64.9625 219.177 64.7722C218.696 64.5819 218.261 64.28 217.904 63.8884C217.547 63.4969 217.277 63.0256 217.114 62.5091C216.95 61.9926 216.898 61.4439 216.96 60.903Z" fill="white"/>
<path d="M229.747 63.2972H226.627L225.916 64.8254H223.785L227.692 56.9807H229.756L232.377 64.8254H230.208L229.747 63.2972ZM229.276 61.657L228.528 59.1507L227.376 61.657H229.276Z" fill="white"/>
<path d="M233.616 56.9807H235.709L235.209 63.0935H238.733L238.589 64.856H232.973L233.616 56.9807Z" fill="white"/>
<path d="M245.491 63.1036L245.347 64.8254H239.414L240.057 56.9807H245.817L245.673 58.6923H241.948L241.843 60.0167H245.126L244.992 61.6671H241.708L241.584 63.1036H245.491Z" fill="white"/>
<path d="M254.188 56.9807L253.545 64.8254H251.817L248.937 60.6382L248.592 64.8254H246.547L247.19 56.9807H248.918L251.798 61.1577L252.144 56.9807H254.188Z" fill="white"/>
<path d="M255.667 56.9807H259.2C261.648 56.9807 263.203 58.4885 263.04 60.9031C262.876 63.3176 261.033 64.8254 258.585 64.8254H255.091L255.667 56.9807ZM258.547 63.0935C258.831 63.1156 259.116 63.0771 259.385 62.9804C259.655 62.8836 259.904 62.7305 260.117 62.5302C260.33 62.3298 260.503 62.0862 260.625 61.8138C260.748 61.5413 260.818 61.2455 260.832 60.9438C260.876 60.6602 260.858 60.3695 260.779 60.0945C260.7 59.8194 260.562 59.5675 260.377 59.3584C260.191 59.1492 259.962 58.9886 259.708 58.8889C259.453 58.7893 259.181 58.7534 258.912 58.784H257.596L257.241 63.0935H258.547Z" fill="white"/>
<path d="M268.714 63.2972H265.594L264.883 64.8254H262.752L266.659 56.9807H268.723L271.344 64.8254H269.174L268.714 63.2972ZM268.243 61.657L267.494 59.1507L266.342 61.657H268.243Z" fill="white"/>
<path d="M275.338 62.737H274.205L274.032 64.7746H271.939L272.583 56.9299H275.962C277.978 56.9299 279.159 58.0302 279.005 59.8335C278.973 60.3679 278.801 60.8822 278.51 61.3193C278.218 61.7564 277.818 62.0991 277.354 62.3091L278.746 64.7746H276.48L275.338 62.737ZM275.693 58.723H274.56L274.368 61.0255H275.52C276.394 61.0255 276.855 60.5976 276.912 59.8844C276.97 59.1713 276.557 58.723 275.693 58.723Z" fill="white"/>
<path d="M141.12 63.4602H140.16C139.964 63.4643 139.77 63.424 139.59 63.3422C139.409 63.2604 139.248 63.1389 139.115 62.9857C138.983 62.8325 138.882 62.6512 138.821 62.4537C138.759 62.2563 138.738 62.0472 138.759 61.8404L138.845 60.8216C138.887 60.3827 139.079 59.9755 139.386 59.677C139.692 59.3785 140.09 59.2094 140.506 59.2017H141.466C141.662 59.1977 141.856 59.2379 142.036 59.3197C142.216 59.4015 142.378 59.523 142.511 59.6762C142.643 59.8294 142.744 60.0107 142.805 60.2082C142.867 60.4057 142.888 60.6147 142.867 60.8216L142.781 61.8404C142.739 62.2792 142.546 62.6864 142.24 62.9849C141.934 63.2834 141.536 63.4525 141.12 63.4602Z" fill="white"/>
<path d="M147.167 63.4603H146.207C146.012 63.4645 145.818 63.4243 145.638 63.3424C145.458 63.2605 145.297 63.1388 145.165 62.9854C145.033 62.832 144.934 62.6505 144.874 62.453C144.813 62.2555 144.793 62.0467 144.815 61.8404L144.902 60.8216C144.944 60.3827 145.136 59.9755 145.442 59.677C145.748 59.3785 146.147 59.2094 146.562 59.2017H147.522C147.718 59.1975 147.912 59.2377 148.092 59.3196C148.272 59.4015 148.433 59.5232 148.565 59.6766C148.696 59.83 148.796 60.0115 148.856 60.209C148.917 60.4064 148.936 60.6153 148.914 60.8216L148.838 61.8404C148.793 62.2801 148.599 62.6874 148.291 62.9858C147.984 63.2841 147.584 63.4528 147.167 63.4603Z" fill="white"/>
<path d="M153.187 63.4603H152.227C152.031 63.4645 151.837 63.4243 151.657 63.3424C151.478 63.2605 151.316 63.1388 151.185 62.9854C151.053 62.832 150.953 62.6505 150.893 62.453C150.833 62.2555 150.813 62.0467 150.835 61.8404L150.921 60.8216C150.961 60.3836 151.152 59.9765 151.456 59.6778C151.761 59.3791 152.158 59.2097 152.572 59.2017H153.532C153.728 59.1975 153.922 59.2377 154.102 59.3196C154.282 59.4015 154.443 59.5232 154.575 59.6766C154.706 59.83 154.806 60.0115 154.866 60.209C154.926 60.4064 154.946 60.6153 154.924 60.8216L154.838 61.8404C154.798 62.2784 154.608 62.6855 154.303 62.9842C153.999 63.2829 153.601 63.4523 153.187 63.4603Z" fill="white"/>
<path d="M305.203 194.334L305.078 195.791H300.278L300.374 194.639L302.861 192.357C303.389 191.868 303.485 191.573 303.514 191.339C303.514 190.911 303.302 190.666 302.774 190.666C302.549 190.665 302.326 190.722 302.125 190.832C301.925 190.942 301.752 191.102 301.622 191.298L300.403 190.534C300.702 190.089 301.101 189.731 301.564 189.492C302.027 189.254 302.539 189.142 303.053 189.169C304.464 189.169 305.376 189.943 305.28 191.155C305.226 191.568 305.09 191.963 304.879 192.315C304.669 192.666 304.39 192.966 304.061 193.193L302.813 194.334H305.203Z" fill="#263238"/>
<path d="M310.493 193.753C310.397 194.864 309.485 195.923 307.613 195.923C306.795 195.942 305.987 195.72 305.28 195.281L306.029 193.896C306.519 194.249 307.098 194.437 307.69 194.436C308.275 194.436 308.65 194.191 308.717 193.753C308.784 193.315 308.496 193.122 307.834 193.122H307.104L307.2 191.95L308.4 190.697H305.971L306.096 189.271H310.531L310.435 190.432L309.043 191.879C309.256 191.898 309.462 191.962 309.651 192.067C309.839 192.172 310.006 192.316 310.141 192.491C310.277 192.666 310.377 192.867 310.438 193.084C310.498 193.301 310.517 193.529 310.493 193.753Z" fill="#263238"/>
<path d="M352.292 113.055H326.353L326.439 112.036H352.378L352.292 113.055Z" fill="white"/>
<path d="M338.938 117.65H325.978L326.054 116.631H339.024L338.938 117.65Z" fill="white"/>
<path d="M346.06 188.598H320.121L320.207 187.579H346.147L346.06 188.598Z" fill="white"/>
<path d="M332.717 193.203H319.747L319.824 192.184H332.793L332.717 193.203Z" fill="white"/>
<path d="M349.199 150.577H323.26L323.337 149.558H349.276L349.199 150.577Z" fill="white"/>
<path d="M335.846 155.172H322.876L322.962 154.153H335.932L335.846 155.172Z" fill="white"/>
<path d="M352.54 105.669C353.107 104.222 352.742 103.173 354.086 103.173C355.43 103.173 354.748 104.191 355.228 105.669C355.478 106.392 354.575 106.26 353.836 106.26C353.097 106.26 352.243 106.412 352.54 105.669Z" fill="white"/>
<path d="M354.048 103.641C353.991 103.642 353.935 103.629 353.884 103.605C353.832 103.581 353.786 103.546 353.748 103.502C353.71 103.458 353.681 103.406 353.663 103.349C353.645 103.292 353.639 103.232 353.644 103.173C353.658 103.047 353.714 102.93 353.802 102.844C353.89 102.758 354.005 102.708 354.124 102.704C354.181 102.702 354.238 102.713 354.29 102.737C354.342 102.76 354.389 102.795 354.428 102.84C354.466 102.884 354.495 102.937 354.512 102.995C354.529 103.052 354.535 103.113 354.528 103.173C354.518 103.301 354.463 103.42 354.374 103.507C354.285 103.594 354.169 103.642 354.048 103.641ZM354.105 102.949C354.048 102.951 353.993 102.974 353.951 103.015C353.909 103.056 353.882 103.112 353.875 103.173C353.872 103.201 353.875 103.23 353.884 103.257C353.892 103.284 353.906 103.309 353.924 103.33C353.942 103.351 353.964 103.368 353.989 103.38C354.013 103.391 354.04 103.397 354.067 103.397C354.124 103.395 354.179 103.371 354.221 103.33C354.263 103.289 354.29 103.233 354.297 103.173C354.3 103.144 354.297 103.116 354.289 103.088C354.28 103.061 354.266 103.036 354.248 103.015C354.23 102.994 354.208 102.977 354.183 102.966C354.159 102.954 354.132 102.948 354.105 102.949Z" fill="white"/>
<path d="M349.44 143.649C350.006 142.202 349.642 141.163 350.986 141.163C352.33 141.163 351.648 142.182 352.128 143.649C352.378 144.372 351.475 144.25 350.736 144.25C349.997 144.25 349.114 144.372 349.44 143.649Z" fill="white"/>
<path d="M350.919 141.612C350.862 141.612 350.807 141.6 350.755 141.576C350.703 141.552 350.657 141.516 350.619 141.472C350.581 141.428 350.552 141.376 350.534 141.319C350.517 141.262 350.51 141.202 350.516 141.143C350.527 141.016 350.583 140.898 350.671 140.811C350.76 140.725 350.875 140.676 350.996 140.674C351.052 140.672 351.109 140.684 351.161 140.707C351.213 140.73 351.26 140.766 351.299 140.81C351.337 140.855 351.366 140.907 351.383 140.965C351.4 141.022 351.406 141.083 351.399 141.143C351.387 141.27 351.331 141.388 351.243 141.474C351.154 141.561 351.039 141.61 350.919 141.612ZM350.976 140.919C350.919 140.921 350.864 140.944 350.822 140.986C350.78 141.027 350.753 141.083 350.746 141.143C350.743 141.171 350.746 141.2 350.755 141.227C350.763 141.254 350.777 141.279 350.795 141.3C350.813 141.321 350.835 141.338 350.86 141.35C350.884 141.361 350.911 141.367 350.938 141.367C350.995 141.365 351.05 141.341 351.092 141.3C351.134 141.259 351.161 141.203 351.168 141.143C351.172 141.114 351.171 141.084 351.163 141.056C351.155 141.027 351.142 141.001 351.123 140.979C351.105 140.956 351.082 140.939 351.057 140.926C351.032 140.914 351.004 140.908 350.976 140.909V140.919Z" fill="white"/>
<path d="M346.281 181.579C346.848 180.132 346.483 179.083 347.827 179.083C349.171 179.083 348.489 180.101 348.969 181.579C349.219 182.292 348.317 182.169 347.577 182.169C346.838 182.169 345.984 182.363 346.281 181.579Z" fill="white"/>
<path d="M347.788 179.551C347.732 179.552 347.676 179.539 347.624 179.515C347.573 179.491 347.526 179.456 347.488 179.412C347.45 179.368 347.421 179.316 347.404 179.259C347.386 179.202 347.379 179.142 347.385 179.083C347.398 178.956 347.454 178.84 347.543 178.754C347.631 178.668 347.745 178.618 347.865 178.614C347.921 178.612 347.978 178.623 348.03 178.647C348.083 178.67 348.13 178.705 348.168 178.75C348.206 178.794 348.235 178.847 348.252 178.905C348.269 178.962 348.275 179.023 348.268 179.083C348.256 179.21 348.201 179.328 348.112 179.414C348.024 179.501 347.908 179.549 347.788 179.551ZM347.845 178.858C347.788 178.86 347.733 178.884 347.691 178.925C347.649 178.966 347.622 179.022 347.615 179.083C347.612 179.111 347.615 179.14 347.624 179.167C347.632 179.194 347.646 179.219 347.664 179.24C347.682 179.261 347.704 179.278 347.729 179.29C347.753 179.301 347.78 179.307 347.807 179.307C347.865 179.307 347.921 179.284 347.964 179.242C348.006 179.201 348.033 179.144 348.037 179.083C348.04 179.054 348.037 179.025 348.029 178.998C348.02 178.971 348.007 178.946 347.988 178.925C347.97 178.904 347.948 178.887 347.924 178.876C347.899 178.864 347.872 178.858 347.845 178.858Z" fill="white"/>
<path opacity="0.2" d="M150.566 36.7881L100.79 234.362H117.542L166.771 36.7881H150.566Z" fill="white"/>
<path opacity="0.2" d="M176.409 36.7881L126.633 234.362H159.849L209.078 36.7881H176.409Z" fill="white"/>
<path opacity="0.4" d="M118.814 133.523C119.716 129.465 117.348 125.399 113.525 124.442C109.701 123.484 105.87 125.997 104.967 130.055C104.065 134.113 106.433 138.178 110.256 139.136C114.08 140.094 117.911 137.581 118.814 133.523Z" fill="white"/>
<path opacity="0.4" d="M373.853 131.801C373.853 132.549 373.644 133.28 373.252 133.902C372.86 134.523 372.303 135.008 371.652 135.294C371 135.579 370.284 135.654 369.593 135.507C368.902 135.36 368.267 134.999 367.769 134.47C367.272 133.94 366.933 133.266 366.797 132.532C366.66 131.798 366.732 131.038 367.003 130.347C367.274 129.657 367.732 129.067 368.319 128.653C368.906 128.239 369.596 128.019 370.301 128.021C370.768 128.021 371.231 128.119 371.662 128.309C372.094 128.499 372.486 128.778 372.816 129.129C373.146 129.48 373.407 129.897 373.585 130.355C373.763 130.814 373.854 131.305 373.853 131.801Z" fill="white"/>
<path d="M324.191 64.8968C324.156 65.2573 323.998 65.5918 323.747 65.8376C323.496 66.0833 323.169 66.2234 322.828 66.2314C322.667 66.2339 322.508 66.2 322.361 66.1322C322.213 66.0643 322.081 65.9639 321.973 65.8377C321.865 65.7114 321.783 65.5623 321.734 65.4C321.684 65.2378 321.668 65.0663 321.686 64.8968C321.721 64.5372 321.879 64.2039 322.13 63.9598C322.381 63.7157 322.708 63.5779 323.049 63.5723C323.209 63.5684 323.368 63.6008 323.516 63.6676C323.663 63.7343 323.795 63.8337 323.904 63.9592C324.012 64.0846 324.093 64.2332 324.143 64.3949C324.193 64.5566 324.209 64.7277 324.191 64.8968Z" fill="white"/>
<path d="M325.574 60.9436L324.969 62.0337C324.276 61.7158 323.526 61.5594 322.771 61.5753C322.087 61.5735 321.411 61.7336 320.793 62.0439L320.304 60.9538C321.129 60.5471 322.029 60.3364 322.939 60.3364C323.849 60.3364 324.748 60.5471 325.574 60.9538V60.9436Z" fill="white"/>
<path d="M327.274 57.8671L326.659 58.9674C325.51 58.3946 324.251 58.1154 322.982 58.1524C321.754 58.1533 320.542 58.453 319.44 59.0286L318.96 57.9486C320.242 57.2723 321.656 56.9234 323.088 56.9299C324.534 56.8825 325.969 57.204 327.274 57.8671Z" fill="white"/>
<path d="M328.982 54.7393L328.368 55.8701C326.76 55.0356 324.981 54.6432 323.193 54.7291C321.413 54.712 319.654 55.1377 318.057 55.972L317.587 54.9532C319.362 54.0179 321.317 53.5331 323.299 53.5371C325.258 53.4362 327.21 53.8491 328.982 54.7393Z" fill="white"/>
<path d="M345.945 66.4451C345.155 66.4586 344.371 66.2937 343.646 65.9614C342.92 65.6291 342.269 65.1369 341.737 64.5175C341.204 63.8981 340.801 63.1657 340.555 62.3686C340.309 61.5716 340.226 60.7282 340.31 59.8943C340.483 58.1199 341.262 56.4742 342.5 55.2674C343.738 54.0606 345.35 53.3763 347.03 53.3435V53.6288C345.424 53.66 343.885 54.3148 342.703 55.4695C341.521 56.6241 340.779 58.1983 340.617 59.8943C340.536 60.6917 340.615 61.4985 340.849 62.261C341.084 63.0235 341.468 63.7244 341.978 64.317C342.487 64.9096 343.11 65.3804 343.804 65.6981C344.498 66.0159 345.247 66.1733 346.003 66.1599L345.945 66.4451Z" fill="white"/>
<path d="M346.166 66.6999H345.926C345.103 66.7201 344.286 66.553 343.529 66.2099C342.772 65.8668 342.094 65.3556 341.539 64.7108C340.984 64.0659 340.566 63.3024 340.312 62.4716C340.059 61.6408 339.976 60.762 340.07 59.8944C340.252 58.0523 341.061 56.3443 342.347 55.0911C343.632 53.8379 345.304 53.1259 347.049 53.0889H347.289L347.222 53.8835H346.982C345.441 53.9148 343.965 54.5435 342.831 55.6509C341.697 56.7583 340.985 58.2677 340.828 59.8944C340.749 60.6593 340.824 61.4334 341.049 62.1651C341.273 62.8968 341.642 63.5694 342.131 64.138C342.619 64.7067 343.216 65.1584 343.882 65.4631C344.548 65.7678 345.268 65.9185 345.993 65.9052H346.233L346.166 66.6999Z" fill="white"/>
<path d="M345.945 66.4454V66.1601C347.551 66.1289 349.091 65.4741 350.273 64.3194C351.454 63.1648 352.196 61.5906 352.358 59.8946C352.44 59.0972 352.361 58.2904 352.126 57.5279C351.892 56.7654 351.507 56.0645 350.998 55.4719C350.488 54.8793 349.866 54.4085 349.172 54.0908C348.478 53.773 347.728 53.6156 346.973 53.629V53.3438C347.763 53.3285 348.547 53.4922 349.273 53.8241C349.999 54.1559 350.65 54.6482 351.182 55.2682C351.715 55.8882 352.116 56.6215 352.36 57.4193C352.605 58.2171 352.686 59.0609 352.598 59.8946C352.428 61.6579 351.66 63.2952 350.435 64.5008C349.211 65.7064 347.615 66.3976 345.945 66.4454Z" fill="white"/>
<path d="M345.927 66.6998H345.687L345.754 65.9052H345.994C347.534 65.8739 349.011 65.2452 350.144 64.1378C351.278 63.0304 351.99 61.521 352.147 59.8943C352.227 59.1294 352.151 58.3553 351.927 57.6236C351.702 56.8919 351.333 56.2193 350.844 55.6507C350.356 55.082 349.759 54.6303 349.093 54.3256C348.427 54.0209 347.708 53.8702 346.983 53.8835H346.743L346.81 53.0888H347.05C347.872 53.0701 348.688 53.2383 349.443 53.582C350.199 53.9258 350.876 54.4372 351.43 55.0819C351.984 55.7266 352.401 56.4896 352.654 57.3196C352.907 58.1497 352.989 59.0276 352.896 59.8943C352.718 61.7364 351.911 63.4455 350.627 64.6993C349.343 65.9531 347.671 66.6647 345.927 66.6998Z" fill="white"/>
<path d="M349.642 59.8942H349.373C349.546 57.7751 348.768 54.9327 346.935 53.6083L347.098 53.3638C349.008 54.7493 349.824 57.6936 349.642 59.8942Z" fill="white"/>
<path d="M349.862 60.1083H349.114V59.8536C349.277 57.816 348.528 55.0551 346.762 53.7409L346.579 53.6084L347.04 52.936L347.222 53.0685C349.2 54.4948 350.102 57.541 349.862 59.8129V60.1083Z" fill="white"/>
<path d="M346.042 66.2211L345.907 65.9766C346.879 65.2569 347.693 64.3224 348.293 63.2374C348.893 62.1523 349.265 60.9424 349.382 59.6907H349.661C349.535 60.9912 349.147 62.2478 348.522 63.3747C347.898 64.5017 347.052 65.4725 346.042 66.2211Z" fill="white"/>
<path d="M345.935 66.5776L345.59 65.9052L345.801 65.7727C346.742 65.0718 347.528 64.162 348.105 63.1065C348.682 62.051 349.036 60.875 349.142 59.66V59.4053H349.891V59.66C349.76 61.0048 349.357 62.3037 348.709 63.4677C348.061 64.6318 347.184 65.6335 346.137 66.4044L345.935 66.5776Z" fill="white"/>
<path d="M343.603 59.8942H343.334C343.458 58.5931 343.845 57.3358 344.47 56.2086C345.095 55.0814 345.942 54.1109 346.953 53.3638L347.078 53.6083C346.108 54.33 345.295 55.2649 344.695 56.3496C344.096 57.4342 343.723 58.6432 343.603 59.8942Z" fill="white"/>
<path d="M343.824 60.1083H343.075V59.8536C343.204 58.5095 343.606 57.2109 344.252 56.0468C344.898 54.8827 345.774 53.8806 346.819 53.1092L347.03 52.9768L347.386 53.6492L347.174 53.7817C346.232 54.4825 345.445 55.3921 344.866 56.4475C344.288 57.5028 343.932 58.6789 343.824 59.8944V60.1083Z" fill="white"/>
<path d="M345.888 66.2211C343.968 64.8356 343.171 61.8913 343.344 59.6907H343.623C343.45 61.8098 344.227 64.6522 346.061 65.9766L345.888 66.2211Z" fill="white"/>
<path d="M345.935 66.5776L345.743 66.4451C343.766 65.0188 342.921 61.9726 343.103 59.7007V59.446H343.852V59.7007C343.679 61.7383 344.428 64.4992 346.195 65.8135L346.387 65.9459L345.935 66.5776Z" fill="white"/>
<path d="M346.089 66.3027H345.82L346.876 53.4863H347.155L346.089 66.3027Z" fill="white"/>
<path d="M346.31 66.5575H345.562L346.666 53.2317H347.414L346.31 66.5575Z" fill="white"/>
<path d="M351.869 56.6241H341.645L341.673 56.3389H351.888L351.869 56.6241Z" fill="white"/>
<path d="M352.09 56.8789H341.386L341.453 56.0842H352.147L352.09 56.8789Z" fill="white"/>
<path d="M352.502 60.149H340.435L340.454 59.8638H352.521L352.502 60.149Z" fill="white"/>
<path d="M352.723 60.4038H340.166L340.233 59.6091H352.79L352.723 60.4038Z" fill="white"/>
<path d="M351.149 63.6639H341.203L341.222 63.3787H351.178L351.149 63.6639Z" fill="white"/>
<path d="M351.37 63.9184H340.935L341.002 63.1238H351.437L351.37 63.9184Z" fill="white"/>
<path d="M237.639 362.465L244.465 356.454L227.242 339.104L219.889 345.767L237.639 362.465Z" fill="#CB7A63"/>
<path d="M250.013 354.131C249.233 353.881 248.396 353.925 247.642 354.254C247.181 354.396 246.682 354.559 246.279 354.732C245.876 354.906 245.636 354.987 245.386 355.099L244.618 355.456C244.577 355.472 244.541 355.501 244.515 355.539C244.489 355.577 244.475 355.623 244.474 355.67C244.463 355.703 244.463 355.739 244.474 355.772C244.509 355.825 244.559 355.865 244.618 355.884C245.589 356.157 246.582 356.335 247.584 356.413C248.073 356.484 248.57 356.445 249.044 356.301H249.111C249.382 356.209 249.642 356.086 249.888 355.935C250.045 355.799 250.168 355.626 250.246 355.429C250.325 355.231 250.357 355.017 250.34 354.804C250.344 354.671 250.316 354.54 250.259 354.422C250.202 354.305 250.117 354.204 250.013 354.131ZM249.917 354.794C249.938 354.938 249.922 355.085 249.869 355.22C249.817 355.355 249.731 355.472 249.62 355.558C249.391 355.737 249.124 355.852 248.842 355.894C248.456 355.969 248.062 355.989 247.671 355.955C247.062 355.923 246.455 355.844 245.856 355.721L245.405 355.619C246.218 355.207 247.071 354.893 247.949 354.681C248.417 354.561 248.891 354.476 249.37 354.427C249.515 354.423 249.658 354.461 249.783 354.539C249.823 354.566 249.857 354.604 249.881 354.648C249.904 354.693 249.917 354.743 249.917 354.794Z" fill="#407BFF"/>
<path d="M246.874 350.311C246.654 350.348 246.445 350.434 246.258 350.562C246.071 350.69 245.912 350.858 245.789 351.055C245.712 351.176 245.648 351.306 245.597 351.442C245.222 352.619 245.15 353.882 245.386 355.099V355.15C245.391 355.192 245.408 355.231 245.433 355.264C245.459 355.296 245.492 355.32 245.53 355.333C245.551 355.344 245.574 355.349 245.597 355.349C245.62 355.349 245.643 355.344 245.664 355.333C245.698 355.329 245.729 355.311 245.751 355.283C245.935 355.108 246.108 354.921 246.269 354.722C246.573 354.34 246.846 353.931 247.085 353.5C247.68 352.481 248.103 351.319 247.844 350.718C247.748 350.464 247.498 350.199 246.874 350.311ZM247.45 350.912C247.613 351.309 247.287 352.216 246.807 353.113C246.514 353.66 246.167 354.173 245.77 354.641C245.637 353.72 245.683 352.781 245.904 351.88C245.96 351.684 246.044 351.498 246.154 351.33C246.31 351.079 246.545 350.895 246.816 350.81H246.951C247.354 350.708 247.431 350.871 247.45 350.912Z" fill="#407BFF"/>
<path d="M243.581 356.016L234.998 360.652C234.834 360.734 234.703 360.876 234.629 361.051C234.555 361.227 234.543 361.425 234.595 361.609L237.129 370.137C237.19 370.339 237.288 370.526 237.418 370.688C237.549 370.849 237.708 370.981 237.887 371.076C238.066 371.171 238.261 371.227 238.461 371.241C238.66 371.254 238.86 371.225 239.049 371.155L239.203 371.094C253.901 365.603 258.403 361.721 259.949 360.835C264.326 358.298 261.869 355.008 260.227 355.415C252.893 357.279 250.435 356.801 247.257 355.935C246.043 355.652 244.783 355.68 243.581 356.016Z" fill="#263238"/>
<path opacity="0.2" d="M227.242 339.114L235.969 347.316L228.615 353.978L219.889 345.777L227.242 339.114Z" fill="black"/>
<path d="M224.534 353.917L235.497 343.179L233.088 338.676L220.396 350.24L224.534 353.917Z" fill="#407BFF"/>
<path d="M231.36 340.276L229.891 341.621L227.703 343.658L226.387 344.85L222.547 348.334L221.808 349.007C221.808 349.007 206.179 339.664 197.482 331.687C191.52 326.216 190.983 324.189 190.349 324.698C181.949 331.484 157.085 354.936 142.983 367.141C142.531 367.202 142.071 367.243 141.61 367.284C134.083 367.865 128.17 366.999 123.562 365.134C123.514 358.644 128.736 343.495 129.168 342.028C129.168 342.028 149.962 320.083 183.667 301.521C183.994 301.348 184.339 301.195 184.685 301.042C185.031 300.889 185.559 300.645 186 300.482C187.65 299.783 189.393 299.364 191.165 299.239C192.659 299.176 194.149 299.425 195.552 299.972C196.355 300.272 197.135 300.637 197.885 301.062C198.545 301.427 199.185 301.828 199.805 302.265C200.842 302.968 201.85 303.752 202.81 304.526C204.96 306.289 221.242 328.539 229.997 338.809C230.506 339.257 230.938 339.797 231.36 340.276Z" fill="#407BFF"/>
<path d="M231.36 340.276L229.891 341.621L227.703 343.658L226.387 344.85L222.547 348.334L221.808 349.007C221.808 349.007 206.179 339.664 197.482 331.687C191.52 326.216 190.983 324.189 190.349 324.698C181.949 331.484 157.085 354.936 142.983 367.141C142.531 367.202 142.071 367.243 141.61 367.284C134.083 367.865 128.17 366.999 123.562 365.134C123.514 358.644 128.736 343.495 129.168 342.028C129.168 342.028 149.962 320.083 183.667 301.521C183.994 301.348 184.339 301.195 184.685 301.042C185.031 300.889 185.559 300.645 186 300.482C187.65 299.783 189.393 299.364 191.165 299.239C192.659 299.176 194.149 299.425 195.552 299.972C196.355 300.272 197.135 300.637 197.885 301.062C198.545 301.427 199.185 301.828 199.805 302.265C200.842 302.968 201.85 303.752 202.81 304.526C204.96 306.289 221.242 328.539 229.997 338.809C230.506 339.257 230.938 339.797 231.36 340.276Z" fill="black"/>
<path d="M241.575 367.029L248.976 359.368L234.653 340.276L225.706 345.879L241.575 367.029Z" fill="#CB7A63"/>
<path d="M256.532 357.014C255.706 356.709 254.026 357.687 252.692 358.553L251.837 359.154L251.703 359.256L251.127 359.694C251.084 359.719 251.05 359.759 251.031 359.807C251.012 359.855 251.008 359.908 251.021 359.959C251.033 360.009 251.06 360.054 251.098 360.087C251.136 360.12 251.183 360.139 251.232 360.142C252.116 360.178 253.002 360.147 253.882 360.05L254.458 359.979C255.096 359.93 255.712 359.705 256.244 359.327C256.43 359.196 256.606 359.049 256.772 358.889C256.91 358.712 257.005 358.501 257.047 358.275C257.089 358.049 257.077 357.815 257.012 357.595C256.978 357.466 256.917 357.347 256.834 357.246C256.751 357.146 256.648 357.067 256.532 357.014ZM256.532 357.738C256.581 357.885 256.593 358.044 256.566 358.198C256.539 358.352 256.474 358.495 256.378 358.614C255.982 359.03 255.47 359.302 254.919 359.388C254.269 359.549 253.607 359.645 252.941 359.674C252.634 359.674 252.308 359.674 251.981 359.674L252.298 359.409L252.528 359.235C253.558 358.468 254.691 357.871 255.888 357.463C256.036 357.417 256.192 357.417 256.34 357.463C256.403 357.472 256.462 357.505 256.506 357.555C256.55 357.605 256.576 357.67 256.58 357.738H256.532Z" fill="#407BFF"/>
<path d="M252.423 353.775C252.206 353.866 252.008 354.003 251.843 354.179C251.678 354.354 251.549 354.563 251.463 354.794C250.858 356.363 251.751 358.767 251.904 359.144C251.921 359.185 251.947 359.221 251.981 359.248C252.015 359.274 252.054 359.291 252.096 359.297C252.143 359.312 252.193 359.312 252.24 359.297C252.257 359.295 252.273 359.288 252.286 359.277C252.3 359.266 252.31 359.252 252.317 359.236C252.472 359.019 252.607 358.787 252.72 358.543C253.431 357.127 254.093 354.763 253.517 353.948C253.363 353.724 253.047 353.52 252.423 353.775ZM252.183 358.573C251.923 357.768 251.463 356.067 251.885 355.008C251.992 354.705 252.201 354.454 252.471 354.305L252.595 354.233C253.008 354.06 253.114 354.233 253.152 354.233C253.565 354.865 252.931 357.269 252.183 358.614V358.573Z" fill="#407BFF"/>
<path opacity="0.2" d="M233.904 339.104L240.644 348.263L231.524 353.653L224.679 344.738L233.904 339.104Z" fill="black"/>
<path d="M239.559 343.2L237.687 344.32L234.471 346.246L231.591 347.957L228.624 349.73L227.52 350.464L226.81 349.914L226.205 349.445C225.495 348.885 224.515 348.1 223.325 347.142C217.363 342.14 206.755 332.319 203.597 323.384C201.552 325.972 199.171 329.273 196.311 332.788C174.058 360.203 150.288 379.53 117.648 371.206C103.469 367.59 104.007 346.755 104.007 346.755C104.007 338.88 109.507 330.781 109.507 330.781L152.928 334.357C158.938 326.614 170.976 314.49 183.293 306.849C183.581 306.656 183.879 306.472 184.176 306.309C184.474 306.146 184.915 305.861 185.28 305.647C188.993 303.416 192.962 301.704 197.088 300.553C197.933 300.339 198.768 300.146 199.584 300.023C200.43 299.886 201.283 299.798 202.138 299.759C207.975 299.473 213.043 301.796 216.48 307.96L238.915 342.273L239.559 343.2Z" fill="#407BFF"/>
<path opacity="0.5" d="M239.559 343.2L237.687 344.32L234.471 346.246L231.591 347.957L228.624 349.73L227.52 350.464L226.81 349.914L226.205 349.445C225.495 348.885 224.515 348.1 223.325 347.142C217.363 342.14 206.755 332.319 203.597 323.384C201.552 325.972 199.171 329.273 196.311 332.788C174.058 360.203 150.288 379.53 117.648 371.206C103.469 367.59 104.007 346.755 104.007 346.755C104.007 338.88 109.507 330.781 109.507 330.781L152.928 334.357C158.938 326.614 170.976 314.49 183.293 306.849C183.581 306.656 183.879 306.472 184.176 306.309C184.474 306.146 184.915 305.861 185.28 305.647C188.993 303.416 192.962 301.704 197.088 300.553C197.933 300.339 198.768 300.146 199.584 300.023C200.43 299.886 201.283 299.798 202.138 299.759C207.975 299.473 213.043 301.796 216.48 307.96L238.915 342.273L239.559 343.2Z" fill="black"/>
<path d="M225.677 352.603L240.019 344.993L238.79 339.583L222.441 347.499L225.677 352.603Z" fill="#407BFF"/>
<path d="M248.4 358.543L238.512 361.721C238.325 361.778 238.162 361.903 238.053 362.074C237.944 362.246 237.896 362.453 237.917 362.659L239.117 372.174C239.19 372.618 239.423 373.015 239.768 373.279C240.112 373.544 240.54 373.655 240.96 373.59H241.133C257.645 370.666 263.098 367.477 264.874 366.805C269.952 364.981 267.917 361.018 266.122 361.13C258.029 361.66 255.514 360.672 252.307 359.093C251.067 358.571 249.725 358.382 248.4 358.543Z" fill="#263238"/>
<path d="M198.778 308.795H168.058C167.856 308.799 167.656 308.758 167.47 308.673C167.284 308.589 167.118 308.463 166.982 308.305C166.846 308.147 166.743 307.96 166.68 307.757C166.617 307.553 166.596 307.337 166.618 307.124L168.327 286.28C168.369 285.828 168.566 285.408 168.881 285.099C169.196 284.791 169.607 284.617 170.035 284.609H200.755C200.957 284.605 201.158 284.647 201.343 284.731C201.529 284.816 201.695 284.941 201.831 285.099C201.968 285.257 202.07 285.444 202.133 285.648C202.196 285.852 202.217 286.067 202.195 286.28L200.477 307.135C200.431 307.583 200.233 307.998 199.921 308.303C199.608 308.608 199.202 308.783 198.778 308.795Z" fill="#263238"/>
<path opacity="0.9" d="M198.788 307.155H169.325L171.063 286.168H200.516L198.788 307.155Z" fill="white"/>
<path opacity="0.4" d="M169.757 295.775C169.757 295.959 169.705 296.138 169.609 296.291C169.513 296.444 169.376 296.563 169.215 296.633C169.055 296.702 168.879 296.72 168.709 296.684C168.54 296.647 168.384 296.558 168.262 296.427C168.14 296.296 168.058 296.13 168.025 295.95C167.993 295.769 168.011 295.582 168.079 295.413C168.147 295.244 168.26 295.1 168.405 294.999C168.55 294.899 168.72 294.846 168.893 294.848C169.007 294.848 169.12 294.872 169.226 294.919C169.331 294.965 169.427 295.034 169.507 295.12C169.588 295.206 169.651 295.309 169.694 295.421C169.737 295.533 169.758 295.654 169.757 295.775Z" fill="black"/>
<path opacity="0.4" d="M201.024 295.307C201.024 295.397 200.999 295.486 200.951 295.561C200.904 295.637 200.836 295.695 200.757 295.73C200.679 295.765 200.592 295.774 200.508 295.756C200.424 295.739 200.347 295.695 200.287 295.631C200.226 295.567 200.185 295.485 200.168 295.396C200.152 295.307 200.16 295.215 200.193 295.131C200.226 295.047 200.281 294.976 200.352 294.925C200.423 294.875 200.507 294.848 200.592 294.848C200.707 294.848 200.817 294.896 200.898 294.982C200.979 295.068 201.024 295.185 201.024 295.307Z" fill="black"/>
<path d="M126.279 248.585C127.373 254.962 125.779 263.51 121.546 267.697C126.346 277.376 133.517 286.749 140.247 295.001C149.77 278.782 141.6 268.237 141.6 268.237C134.928 266.454 135.13 263.581 136.349 258.671L126.279 248.585Z" fill="#CB7A63"/>
<path d="M121.862 264.936C122.561 263.298 123.758 261.956 125.261 261.126C126.72 260.219 140.621 261.921 144.029 263.653C146.047 264.643 147.655 266.382 148.55 268.543L121.862 264.936Z" fill="#407BFF"/>
<path d="M161.021 243.287L167.203 246.343C167.707 248.059 167.883 249.863 167.721 251.651C167.366 253.893 166.416 254.636 162.921 253.088C159.811 248.911 161.021 243.287 161.021 243.287Z" fill="#CB7A63"/>
<path d="M165.121 239.141L165.812 240.71L167.041 241.453C167.358 241.661 167.606 241.97 167.749 242.335C167.892 242.701 167.923 243.105 167.837 243.491L167.194 246.303L161.021 243.246L162.193 240.771C163.268 239.029 164.113 238.529 165.015 238.988L165.121 239.141Z" fill="#CB7A63"/>
<path d="M158.564 280.086C162.106 271.844 163.594 267.982 167.453 252.731L162.327 252.12C157.191 266.699 151.297 272.883 151.297 272.883C151.297 272.883 122.381 267.718 118.791 269.521C112.973 272.435 116.084 278.802 119.751 280.412C123.418 282.021 144.125 285.638 153.706 284.385C154.795 284.17 155.814 283.662 156.665 282.909C157.515 282.156 158.169 281.184 158.564 280.086Z" fill="#CB7A63"/>
<path d="M180.835 245.793L180.816 245.814L180.807 245.804L180.835 245.793Z" fill="black"/>
<path d="M158.995 280.228C164.813 300.187 145.45 303.06 150.355 335.162L109.546 330.73C111.802 314.185 116.928 318.504 113.328 286.321C113.021 283.601 112.896 275.878 116.371 269.338C117.711 266.776 119.844 264.785 122.41 263.704C125.616 262.389 138.73 265.507 144.682 266.76C151.306 266.648 158.083 277.712 158.995 280.228Z" fill="#407BFF"/>
<path d="M150.443 241.851C150.059 242.584 150.135 243.338 150.567 243.593C150.999 243.847 151.652 243.491 152.027 242.778C152.401 242.064 152.334 241.29 151.902 241.036C151.47 240.781 150.807 241.148 150.443 241.851Z" fill="#263238"/>
<path d="M151.681 240.964L153.533 241.413C153.533 241.413 152.026 242.258 151.681 240.964Z" fill="#263238"/>
<path d="M150.557 243.348C150.912 245.286 151.519 247.161 152.361 248.921C151.928 249.134 151.457 249.245 150.979 249.245C150.502 249.245 150.03 249.134 149.597 248.921L150.557 243.348Z" fill="#A02724"/>
<path d="M153.36 236.757C153.432 236.728 153.497 236.68 153.547 236.617C153.597 236.555 153.632 236.48 153.648 236.4C153.67 236.276 153.646 236.147 153.579 236.042C153.513 235.937 153.41 235.864 153.293 235.84C152.598 235.684 151.878 235.707 151.193 235.907C150.508 236.108 149.878 236.479 149.357 236.991C149.306 237.03 149.263 237.079 149.231 237.136C149.198 237.193 149.178 237.257 149.17 237.323C149.163 237.389 149.168 237.456 149.186 237.52C149.205 237.584 149.235 237.643 149.276 237.693C149.317 237.744 149.367 237.785 149.424 237.813C149.48 237.842 149.542 237.858 149.605 237.86C149.667 237.862 149.73 237.85 149.788 237.825C149.846 237.8 149.899 237.762 149.942 237.714L150 237.653C150.419 237.257 150.919 236.972 151.461 236.82C152.003 236.668 152.572 236.653 153.12 236.777C153.2 236.796 153.284 236.789 153.36 236.757Z" fill="#263238"/>
<path d="M125.876 234.739C124.772 244.611 124.1 248.768 127.892 254.677C133.594 263.561 145.287 262.827 149.137 253.526C152.612 245.121 153.841 230.389 145.498 224.765C143.664 223.513 141.559 222.779 139.382 222.634C137.205 222.489 135.03 222.938 133.063 223.938C131.096 224.938 129.403 226.455 128.145 228.346C126.887 230.237 126.105 232.438 125.876 234.739Z" fill="#CB7A63"/>
<path d="M149.367 252.935C148.676 252.261 148.169 251.402 147.898 250.449C147.889 250.397 147.899 250.343 147.925 250.297C147.952 250.252 147.993 250.219 148.042 250.205C148.09 250.195 148.14 250.204 148.182 250.23C148.225 250.256 148.257 250.298 148.272 250.347C148.515 251.168 148.944 251.913 149.52 252.517L149.367 252.935Z" fill="#263238"/>
<path d="M156.211 231.52C156.231 232.541 155.889 233.533 155.252 234.299C154.616 235.065 153.732 235.549 152.775 235.656C151.527 239.242 148.071 244.713 145.037 242.645C146.803 242.584 150.029 238.336 147.303 235.014C145.306 232.59 142.599 226.222 147.303 224.664C150.941 223.461 156.202 227.608 156.211 231.52Z" fill="#263238"/>
<path d="M148.061 227.496C146.746 221.719 138.903 217.216 133.306 217.4C127.709 217.583 122.563 220.833 118.464 224.878C116.333 226.976 114.346 229.421 113.587 232.406C112.829 235.392 113.587 238.978 116.045 240.659C107.117 250.001 113.76 253.791 115.085 253.149C115.277 255.492 113.77 256.878 111.744 258.416C109.939 259.781 109.488 261.401 108.864 263.653C108.24 265.904 108.864 268.747 110.784 269.765C110.647 269.417 110.58 269.041 110.588 268.663C110.596 268.285 110.678 267.913 110.83 267.571C110.982 267.229 111.2 266.925 111.47 266.678C111.74 266.432 112.056 266.248 112.397 266.139C111.92 267.313 111.789 268.612 112.02 269.867C112.251 271.122 112.834 272.273 113.692 273.171C114.55 274.068 115.643 274.67 116.829 274.896C118.014 275.123 119.237 274.965 120.336 274.442C119.453 274.207 118.215 273.29 118.071 272.333C120.605 273.485 123.293 274.214 126.039 274.493C128.794 274.605 131.731 273.657 133.431 271.355C133.536 269.684 135.667 268.013 137.271 268.074C138.062 268.129 138.805 268.495 139.357 269.099C139.909 269.703 140.229 270.504 140.256 271.345C142.003 270.937 142.723 268.889 142.819 267.005C142.857 265.999 142.569 265.01 142.003 264.203C141.682 263.802 141.287 263.473 140.844 263.237C140.4 263.001 139.916 262.862 139.421 262.828C138.569 262.564 137.849 261.957 137.415 261.136C137.249 260.675 137.202 260.176 137.278 259.689C137.354 259.202 137.55 258.745 137.847 258.365C144.787 247.851 141.514 241.311 141.975 240.027C142.435 238.743 144.663 240.394 144.663 240.394C146.679 237.694 148.8 230.858 148.061 227.496Z" fill="#263238"/>
<path d="M137.76 241.942C137.588 244.231 138.279 246.499 139.68 248.248C141.552 250.561 144.077 249.186 144.874 246.435C145.604 243.959 145.498 239.772 142.954 238.468C140.41 237.164 137.991 239.151 137.76 241.942Z" fill="#CB7A63"/>
<path d="M109.546 327.388L108.135 331.178C107.962 331.463 108.279 331.8 108.74 331.851L150.768 336.435C151.133 336.435 151.46 336.313 151.508 336.068L150.951 331.82C151.008 331.565 150.701 331.3 150.298 331.26L110.256 327.184C110.131 327.152 110.001 327.153 109.876 327.189C109.752 327.224 109.638 327.293 109.546 327.388Z" fill="#407BFF"/>
<path d="M146.353 336.323H145.239C145.018 336.323 144.846 336.201 144.865 336.058L145.45 330.964C145.45 330.821 145.662 330.699 145.882 330.699H146.996C147.217 330.699 147.39 330.821 147.37 330.974L146.785 336.068C146.766 336.201 146.574 336.323 146.353 336.323Z" fill="#263238"/>
<path d="M131.329 334.509H130.215C130.004 334.509 129.831 334.377 129.85 334.234L130.436 329.14C130.436 328.998 130.647 328.886 130.868 328.886H131.981C132.192 328.886 132.375 329.008 132.346 329.171L131.77 334.214C131.751 334.408 131.521 334.509 131.329 334.509Z" fill="#407BFF"/>
<path d="M131.329 334.509H130.215C130.004 334.509 129.831 334.377 129.85 334.234L130.436 329.14C130.436 328.998 130.647 328.886 130.868 328.886H131.981C132.192 328.886 132.375 329.008 132.346 329.171L131.77 334.214C131.751 334.408 131.521 334.509 131.329 334.509Z" fill="#263238"/>
<path opacity="0.2" d="M141.351 278.792C141.351 278.792 138.576 283.244 143.424 296.651L145.469 302.122C146.141 303.936 152.362 301.277 154.474 298.343C154.474 298.343 144.202 289.764 141.351 278.792Z" fill="black"/>
<path d="M189.409 305.637L196.974 300.818L196.916 308.164C196.916 308.164 191.156 313.186 188.603 309.182C188.603 309.203 187.748 306.391 189.409 305.637Z" fill="#CB7A63"/>
<path d="M202.32 303.172L202.004 305.841C201.958 306.244 201.792 306.621 201.529 306.916C201.266 307.212 200.921 307.41 200.544 307.481L196.887 308.164L196.944 300.818L200.621 301.063C200.854 301.071 201.083 301.127 201.295 301.229C201.507 301.332 201.698 301.477 201.857 301.658C202.016 301.839 202.139 302.052 202.221 302.283C202.302 302.515 202.339 302.761 202.33 303.009C202.331 303.063 202.328 303.118 202.32 303.172Z" fill="#CB7A63"/>
<path d="M154.608 310.364C157.162 315.214 161.05 319.533 166.023 321.255C171.879 323.293 185.357 315.214 191.482 310.109C191.482 307.603 190.973 306.931 188.698 306.269C188.698 306.269 182.18 310.109 170.602 311.362C166.858 311.77 164.909 307.501 162.423 301.338C161.184 298.281 156.384 279.821 154.743 276.948C152.151 272.333 142.983 274.156 145.277 284.721C146.266 289.194 152.525 306.401 154.608 310.364Z" fill="#CB7A63"/>
<path d="M155.866 273.545C161.396 280.473 163.143 291.659 163.143 291.659L147.418 299.137C147.418 299.137 138.644 281.818 141.217 276.52C143.233 272.445 146.353 269.979 150.039 270.234C151.17 270.34 152.27 270.688 153.272 271.257C154.273 271.826 155.156 272.605 155.866 273.545Z" fill="#407BFF"/>
<path d="M114.768 332.9L113.655 332.777C113.443 332.726 113.28 332.625 113.309 332.472L114.269 327.49C114.269 327.337 114.499 327.245 114.72 327.266L115.834 327.388C116.045 327.388 116.208 327.551 116.179 327.694L115.219 332.686C115.183 332.775 115.117 332.846 115.033 332.886C114.95 332.926 114.855 332.931 114.768 332.9Z" fill="#263238"/>
<path d="M110.305 326.642L110.212 327.656L150.258 331.778L150.35 330.764L110.305 326.642Z" fill="#263238"/>
</svg>
