<svg width="488" height="365" viewBox="0 0 488 365" fill="none" xmlns="http://www.w3.org/2000/svg">
<path d="M488 320.756H0V321.001H488V320.756Z" fill="#EBEBEB"/>
<path d="M439.102 336.52H406.777V336.765H439.102V336.52Z" fill="#EBEBEB"/>
<path d="M323.271 339.185H314.789V339.429H323.271V339.185Z" fill="#EBEBEB"/>
<path d="M405.801 327.428H359.275V327.673H405.801V327.428Z" fill="#EBEBEB"/>
<path d="M74.3129 329.074H51.2012V329.319H74.3129V329.074Z" fill="#EBEBEB"/>
<path d="M108.229 329.074H82.999V329.319H108.229V329.074Z" fill="#EBEBEB"/>
<path d="M191.404 333.208H128.315V333.453H191.404V333.208Z" fill="#EBEBEB"/>
<path d="M231.312 277.061H42.8562C41.3798 277.059 39.9648 276.468 38.9218 275.419C37.8788 274.371 37.293 272.949 37.293 271.467V5.54515C37.3058 4.07169 37.8973 2.66283 38.9389 1.62457C39.9806 0.586314 41.3882 0.00252411 42.8562 0H231.312C232.79 0 234.208 0.58938 235.253 1.63848C236.298 2.68759 236.885 4.11048 236.885 5.59413V271.467C236.885 272.951 236.298 274.374 235.253 275.423C234.208 276.472 232.79 277.061 231.312 277.061ZM42.8562 0.195942C41.4445 0.198538 40.0916 0.763256 39.0943 1.76615C38.0971 2.76904 37.537 4.12815 37.537 5.54515V271.467C37.537 272.884 38.0971 274.243 39.0943 275.246C40.0916 276.249 41.4445 276.814 42.8562 276.816H231.312C232.725 276.814 234.078 276.249 235.077 275.247C236.076 274.244 236.638 272.885 236.641 271.467V5.54515C236.638 4.12724 236.076 2.76816 235.077 1.76555C234.078 0.762938 232.725 0.198532 231.312 0.195942H42.8562Z" fill="#EBEBEB"/>
<path d="M442.43 277.061H253.965C252.487 277.059 251.071 276.469 250.027 275.42C248.982 274.372 248.394 272.95 248.392 271.467V5.54515C248.407 4.0708 249.001 2.66194 250.044 1.62396C251.087 0.585972 252.496 0.00249658 253.965 0H442.43C443.896 0.00509889 445.302 0.590028 446.341 1.62801C447.381 2.66599 447.971 4.07338 447.984 5.54515V271.467C447.984 272.948 447.399 274.367 446.358 275.416C445.317 276.465 443.905 277.056 442.43 277.061ZM253.965 0.195942C252.552 0.198532 251.198 0.762938 250.199 1.76555C249.2 2.76816 248.638 4.12724 248.636 5.54515V271.467C248.638 272.885 249.2 274.244 250.199 275.247C251.198 276.249 252.552 276.814 253.965 276.816H442.43C443.843 276.814 445.197 276.249 446.195 275.247C447.194 274.244 447.757 272.885 447.759 271.467V5.54515C447.757 4.12724 447.194 2.76816 446.195 1.76555C445.197 0.762938 443.843 0.198532 442.43 0.195942H253.965Z" fill="#EBEBEB"/>
<path d="M430.816 25.4724H276.638V320.756H430.816V25.4724Z" fill="#EBEBEB"/>
<path d="M419.348 35.103H288.105V320.756H419.348V35.103Z" fill="#F5F5F5"/>
<path d="M372.188 58.7925H335.285V69.0304H372.188V58.7925Z" fill="white"/>
<path d="M388.81 160.496H408.827C409.656 160.496 410.45 160.826 411.036 161.414C411.622 162.002 411.951 162.799 411.951 163.631C411.951 164.462 411.622 165.26 411.036 165.848C410.45 166.436 409.656 166.766 408.827 166.766H388.81C387.981 166.766 387.187 166.436 386.601 165.848C386.016 165.26 385.687 164.462 385.687 163.631C385.687 162.799 386.016 162.002 386.601 161.414C387.187 160.826 387.981 160.496 388.81 160.496Z" fill="white"/>
<path d="M171.23 56.8916H68.6914V139.843H171.23V56.8916Z" fill="#EBEBEB"/>
<path d="M165.716 134.318V62.4172L74.1865 62.4172V134.318H165.716Z" fill="#FAFAFA"/>
<path d="M155.048 99.313V95.8743H84.8637V99.313H155.048Z" fill="#E0E0E0"/>
<path d="M155.048 107.141V103.702H84.8637V107.141H155.048Z" fill="#E0E0E0"/>
<path d="M155.048 114.959V111.52H84.8637V114.959H155.048Z" fill="#E0E0E0"/>
<path d="M137.45 122.787V119.348H102.461V122.787H137.45Z" fill="#E0E0E0"/>
<path d="M84.9115 62.4172C84.9116 63.8292 84.6334 65.2272 84.093 66.5309C83.5527 67.8346 82.7608 69.0181 81.7629 70.0134C80.7651 71.0086 79.581 71.7959 78.2789 72.33C76.9767 72.8641 75.5822 73.1344 74.1755 73.1254C72.2347 73.1301 70.3301 72.598 68.6709 71.5872V56.8916H83.3109C84.3367 58.5524 84.8902 60.4632 84.9115 62.4172Z" fill="#EBEBEB"/>
<path d="M171.23 56.8916V71.5872C169.189 72.8192 166.797 73.3306 164.434 73.0399C162.07 72.7491 159.872 71.6731 158.188 69.983C156.504 68.2929 155.432 66.086 155.143 63.7136C154.853 61.3412 155.362 58.9398 156.59 56.8916H171.23Z" fill="#EBEBEB"/>
<path d="M84.9126 134.328C84.916 136.272 84.3894 138.179 83.39 139.844H68.75V125.148C70.3693 124.175 72.2166 123.65 74.1038 123.627C75.991 123.603 77.8507 124.082 79.4933 125.015C81.1359 125.948 82.5029 127.302 83.4548 128.938C84.4068 130.574 84.9098 132.433 84.9126 134.328Z" fill="#EBEBEB"/>
<path d="M171.23 125.138V139.834H156.59C155.583 138.172 155.053 136.263 155.058 134.318C155.06 132.421 155.563 130.558 156.516 128.92C157.469 127.282 158.838 125.926 160.482 124.992C162.127 124.058 163.99 123.579 165.879 123.602C167.769 123.626 169.619 124.153 171.24 125.128L171.23 125.138Z" fill="#EBEBEB"/>
<path d="M128.927 81.3974C129.732 76.4251 126.368 71.7399 121.414 70.9327C116.461 70.1256 111.793 73.5022 110.989 78.4745C110.185 83.4469 113.549 88.1321 118.502 88.9392C123.456 89.7463 128.123 86.3698 128.927 81.3974Z" fill="#E0E0E0"/>
<path d="M254.092 202.947H51.2012V210.275H254.092V202.947Z" fill="#EBEBEB"/>
<path d="M252.335 210.275H186.416V320.756H252.335V210.275Z" fill="#F5F5F5"/>
<path d="M119.629 210.275H53.71V320.756H119.629V210.275Z" fill="#F5F5F5"/>
<path d="M55.9645 210.275H53.71V320.756H55.9645V210.275Z" fill="#EBEBEB"/>
<path d="M188.671 210.275H186.416V320.756H188.671V210.275Z" fill="#EBEBEB"/>
<path d="M88.328 185.282H76.2061L77.1821 202.947H87.352L88.328 185.282Z" fill="#F0F0F0"/>
<path d="M193.571 195.285H130.238V202.947H193.571V195.285Z" fill="#F0F0F0"/>
<path d="M193.58 196.187H164.378V202.055H193.58V196.187Z" fill="#FAFAFA"/>
<path d="M243.999 365C348.512 365 433.236 360.035 433.236 353.91C433.236 347.785 348.512 342.819 243.999 342.819C139.487 342.819 54.7627 347.785 54.7627 353.91C54.7627 360.035 139.487 365 243.999 365Z" fill="#F5F5F5"/>
<path d="M332.533 285.31C349.609 285.31 363.453 271.415 363.453 254.273C363.453 237.132 349.609 223.236 332.533 223.236C315.456 223.236 301.613 237.132 301.613 254.273C301.613 271.415 315.456 285.31 332.533 285.31Z" fill="white"/>
<path d="M332.533 285.692C326.342 285.694 320.289 283.853 315.141 280.402C309.992 276.951 305.979 272.045 303.608 266.304C301.238 260.563 300.616 254.245 301.823 248.15C303.03 242.054 306.01 236.455 310.387 232.06C314.764 227.665 320.341 224.672 326.413 223.458C332.485 222.245 338.779 222.867 344.499 225.245C350.219 227.622 355.108 231.65 358.548 236.817C361.987 241.984 363.823 248.059 363.823 254.273C363.816 262.602 360.517 270.588 354.651 276.478C348.784 282.368 340.83 285.682 332.533 285.692ZM332.533 223.628C326.492 223.628 320.587 225.426 315.565 228.795C310.543 232.164 306.629 236.952 304.317 242.554C302.006 248.156 301.402 254.32 302.581 260.267C303.76 266.214 306.67 271.676 310.942 275.963C315.214 280.25 320.656 283.169 326.581 284.35C332.506 285.532 338.646 284.924 344.226 282.602C349.806 280.28 354.575 276.349 357.93 271.307C361.284 266.264 363.074 260.337 363.072 254.273C363.064 246.146 359.844 238.355 354.118 232.609C348.392 226.863 340.629 223.633 332.533 223.628Z" fill="#407BFF"/>
<path d="M337.51 236.678H327.555V271.869H337.51V236.678Z" fill="#407BFF"/>
<path d="M350.062 259.28V249.287H315.005V259.28H350.062Z" fill="#407BFF"/>
<path d="M123.083 19.6628L122.419 18.9476C126.937 14.6604 132.67 11.8875 138.826 11.012L138.962 11.9917C133.005 12.835 127.456 15.5156 123.083 19.6628Z" fill="#407BFF"/>
<path d="M115.861 30.371L114.953 30.0183C115.938 27.5225 117.251 25.17 118.857 23.0232L119.638 23.611C118.089 25.6886 116.82 27.9614 115.861 30.371Z" fill="#407BFF"/>
<path d="M143.091 67.9036C157.882 67.9036 169.872 55.8676 169.872 41.0204C169.872 26.1732 157.882 14.1372 143.091 14.1372C128.3 14.1372 116.31 26.1732 116.31 41.0204C116.31 55.8676 128.3 67.9036 143.091 67.9036Z" fill="#407BFF"/>
<path d="M159.089 28.9112C158.057 27.8364 156.823 26.9787 155.457 26.3884C154.092 25.7981 152.622 25.4871 151.136 25.4734C149.649 25.4597 148.174 25.7437 146.798 26.3087C145.422 26.8738 144.172 27.7086 143.121 28.7643C142.071 27.7089 140.822 26.8743 139.447 26.3093C138.071 25.7444 136.598 25.4605 135.112 25.4742C133.626 25.4879 132.158 25.7989 130.793 26.389C129.428 26.9792 128.194 27.8366 127.164 28.9112C125.144 31.1043 124.056 34.0015 124.131 36.9872C124.205 39.9728 125.437 42.8116 127.564 44.9L140.252 57.6362C140.633 58.0184 141.084 58.3215 141.582 58.5283C142.079 58.7351 142.612 58.8416 143.151 58.8416C143.689 58.8416 144.222 58.7351 144.719 58.5283C145.217 58.3215 145.669 58.0184 146.049 57.6362L158.737 44.9C160.857 42.8051 162.08 39.9628 162.146 36.9772C162.211 33.9916 161.115 31.098 159.089 28.9112Z" fill="white"/>
<path d="M143.091 52.7669C142.894 52.7601 142.704 52.6938 142.546 52.5767C142.387 52.4596 142.268 52.297 142.203 52.1105L136.552 35.524L134.19 42.4604C134.123 42.6531 133.997 42.82 133.831 42.9377C133.665 43.0554 133.466 43.118 133.263 43.1168H123.805C123.546 43.1168 123.298 43.0136 123.115 42.8298C122.932 42.6461 122.829 42.3969 122.829 42.1371C122.829 41.8772 122.932 41.628 123.115 41.4443C123.298 41.2606 123.546 41.1574 123.805 41.1574H132.589L135.654 32.1734C135.72 31.9809 135.845 31.814 136.01 31.6958C136.175 31.5777 136.373 31.5142 136.576 31.5142C136.779 31.5142 136.977 31.5777 137.142 31.6958C137.308 31.814 137.432 31.9809 137.498 32.1734L143.247 49.0538L148.83 35.8571C148.9 35.6889 149.016 35.5439 149.165 35.4383C149.313 35.3327 149.488 35.2708 149.669 35.2595C149.852 35.249 150.034 35.2902 150.194 35.3786C150.355 35.4669 150.487 35.5988 150.577 35.7592L153.524 41.1476H162.416C162.675 41.1476 162.923 41.2508 163.106 41.4345C163.289 41.6182 163.392 41.8674 163.392 42.1273C163.392 42.3871 163.289 42.6363 163.106 42.82C162.923 43.0038 162.675 43.107 162.416 43.107H152.958C152.784 43.1084 152.612 43.0628 152.461 42.9749C152.31 42.8871 152.185 42.7601 152.099 42.6073L149.786 38.4534L143.989 52.1693C143.914 52.3464 143.789 52.4975 143.629 52.6037C143.47 52.71 143.282 52.7667 143.091 52.7669Z" fill="#407BFF"/>
<path d="M291.687 319.581H189.822C188.162 319.599 186.517 319.271 184.99 318.616C183.464 317.962 182.09 316.996 180.955 315.78C179.82 314.563 178.95 313.124 178.4 311.552C177.85 309.979 177.632 308.31 177.759 306.648L194.224 61.7214C194.512 58.2235 196.084 54.9578 198.637 52.5589C201.189 50.1599 204.538 48.7989 208.034 48.7403H309.919C311.583 48.7212 313.233 49.0508 314.763 49.7081C316.294 50.3654 317.67 51.3359 318.806 52.5576C319.941 53.7793 320.81 55.2253 321.357 56.8032C321.904 58.3811 322.117 60.0562 321.982 61.7214L305.488 306.648C305.191 310.137 303.616 313.39 301.066 315.779C298.517 318.168 295.175 319.523 291.687 319.581Z" fill="#263238"/>
<path d="M314.272 148.484H311.706C311.241 148.49 310.78 148.398 310.353 148.215C309.925 148.031 309.541 147.76 309.224 147.419C308.907 147.078 308.664 146.674 308.512 146.233C308.359 145.792 308.3 145.324 308.338 144.859L311.491 98.0392C311.564 97.0601 312.001 96.1442 312.715 95.4729C313.429 94.8016 314.368 94.4238 315.346 94.4143H317.913C318.378 94.4086 318.839 94.5005 319.266 94.6839C319.693 94.8674 320.078 95.1384 320.395 95.4797C320.712 95.8209 320.954 96.2248 321.107 96.6656C321.259 97.1064 321.318 97.5742 321.28 98.0392L318.128 144.859C318.054 145.839 317.617 146.755 316.904 147.426C316.19 148.097 315.251 148.475 314.272 148.484Z" fill="#263238"/>
<path d="M192.741 117.251H190.184C189.806 117.256 189.43 117.183 189.082 117.034C188.734 116.886 188.42 116.667 188.16 116.391C187.9 116.115 187.701 115.787 187.574 115.429C187.447 115.072 187.395 114.691 187.422 114.312L188.564 97.4025C188.636 96.6087 188.998 95.8696 189.58 95.3271C190.161 94.7846 190.922 94.477 191.716 94.4634H194.283C194.66 94.4612 195.034 94.5371 195.381 94.6863C195.727 94.8356 196.039 95.055 196.298 95.3308C196.556 95.6067 196.755 95.933 196.882 96.2895C197.009 96.6459 197.061 97.0248 197.036 97.4025L195.894 114.312C195.824 115.107 195.463 115.847 194.88 116.39C194.298 116.933 193.536 117.24 192.741 117.251Z" fill="#407BFF"/>
<path d="M190.711 147.446H188.144C187.767 147.45 187.392 147.375 187.045 147.226C186.698 147.077 186.385 146.858 186.126 146.582C185.868 146.306 185.669 145.979 185.543 145.622C185.416 145.264 185.365 144.885 185.392 144.507L186.534 127.597C186.606 126.803 186.967 126.064 187.549 125.522C188.131 124.979 188.892 124.672 189.686 124.658H192.273C192.65 124.656 193.023 124.732 193.37 124.881C193.716 125.03 194.029 125.25 194.287 125.525C194.545 125.801 194.744 126.128 194.871 126.484C194.998 126.84 195.05 127.219 195.025 127.597L193.883 144.507C193.813 145.305 193.449 146.048 192.862 146.591C192.276 147.135 191.509 147.439 190.711 147.446Z" fill="#407BFF"/>
<path d="M289.531 319.581H187.666C186.006 319.599 184.361 319.271 182.834 318.616C181.308 317.962 179.933 316.996 178.799 315.78C177.664 314.564 176.794 313.124 176.244 311.552C175.694 309.98 175.475 308.31 175.603 306.648L192.078 61.7215C192.375 58.2223 193.959 54.9594 196.52 52.5674C199.082 50.1753 202.438 48.8252 205.937 48.7796H307.763C309.424 48.7609 311.07 49.0895 312.597 49.7445C314.125 50.3994 315.499 51.3663 316.634 52.5837C317.769 53.801 318.639 55.2422 319.188 56.8154C319.738 58.3886 319.955 60.0594 319.826 61.7215L303.342 306.648C303.045 310.138 301.467 313.393 298.916 315.783C296.364 318.172 293.02 319.525 289.531 319.581Z" fill="#407BFF"/>
<path opacity="0.3" d="M176.676 303.905L192.76 64.8958H318.723L302.638 303.905H176.676Z" fill="white"/>
<path opacity="0.1" d="M226.403 303.905L271.358 64.8958H299.574L254.619 303.905H226.403Z" fill="white"/>
<path opacity="0.1" d="M205.087 303.905L250.041 64.8958H264.34L219.385 303.905H205.087Z" fill="white"/>
<path d="M244.137 54.7851H268.703C268.908 54.7816 269.112 54.8214 269.301 54.9018C269.489 54.9823 269.659 55.1017 269.799 55.2522C269.939 55.4028 270.046 55.5812 270.112 55.7758C270.179 55.9704 270.205 56.177 270.187 56.3821C270.153 56.8137 269.96 57.2173 269.646 57.5143C269.333 57.8112 268.92 57.9804 268.489 57.9888H243.923C243.717 57.9909 243.513 57.9499 243.325 57.8683C243.136 57.7867 242.966 57.6664 242.826 57.5151C242.687 57.3638 242.58 57.1848 242.513 56.9897C242.447 56.7946 242.421 56.5876 242.439 56.3821C242.473 55.9513 242.666 55.5489 242.98 55.2535C243.294 54.9581 243.707 54.7911 244.137 54.7851Z" fill="white"/>
<path d="M239.023 343.143L230.414 343.966L227.311 324.029L235.919 323.196L239.023 343.143Z" fill="#FFB573"/>
<path d="M229.428 339.743L238.447 336.931C238.602 336.877 238.773 336.886 238.922 336.955C239.071 337.024 239.188 337.149 239.247 337.304L242.175 344.485C242.248 344.677 242.28 344.883 242.27 345.088C242.259 345.294 242.207 345.495 242.115 345.679C242.023 345.864 241.895 346.027 241.737 346.158C241.579 346.29 241.396 346.387 241.199 346.444C237.939 347.424 234.836 347.649 230.902 349.383C226.305 351.343 224.383 353.968 219.434 353.968C215.891 353.968 215.091 350.706 216.594 350.255C223.426 348.178 222.528 346.474 227.486 341.115C228.002 340.494 228.672 340.02 229.428 339.743Z" fill="#263238"/>
<path opacity="0.2" d="M227.311 324.029L228.911 334.315L237.529 333.483L235.929 323.196L227.311 324.029Z" fill="black"/>
<path d="M233.537 72.1066C222.245 70.7742 211.011 71.6657 199.738 73.8602C197.86 74.2263 196.146 75.1832 194.846 76.5924C193.546 78.0016 192.726 79.7898 192.506 81.6979C191.286 92.5335 189.891 116.82 195.337 153.05L241.482 149.131C241.57 142.557 236.914 112.608 240.76 81.5314C240.917 80.4343 240.854 79.3168 240.574 78.2447C240.294 77.1726 239.803 76.1676 239.13 75.2891C238.457 74.4106 237.615 73.6764 236.654 73.1298C235.694 72.5832 234.634 72.2353 233.537 72.1066Z" fill="white"/>
<path d="M206.668 81.3941L208.317 84.7055C208.394 84.8725 208.517 85.0145 208.67 85.115C208.824 85.2154 209.003 85.2705 209.186 85.2737L210.972 85.3717C211.291 85.3856 211.605 85.2887 211.86 85.0974L214.935 82.795L211.138 80.0225L206.668 81.3941Z" fill="#263238"/>
<path d="M211.031 84.4214C210.38 84.1187 209.643 84.0596 208.952 84.2549C207.498 89.3984 205.907 104.163 205.741 110.707C210.153 123.61 211.597 124.913 211.597 124.913L213.832 109.384C213.832 109.384 211.324 93.5033 211.031 84.4214Z" fill="#263238"/>
<path d="M223.768 49.769C222.714 56.1567 221.816 67.8251 226.384 71.9496C223.036 75.4766 218.654 79.562 211.138 80.0224C203.623 80.4829 204.785 75.261 206.688 72.4689C213.705 70.5878 213.364 65.3366 211.988 60.4283L223.768 49.769Z" fill="#FFB573"/>
<path d="M228.297 71.3915C227.765 71.1611 227.213 70.9807 226.647 70.8526C226.509 70.8159 226.363 70.8257 226.23 70.8806C226.098 70.9354 225.987 71.0323 225.915 71.1563C225.193 72.3908 222.987 77.9065 211.139 80.0227C213.091 81.1788 215.677 84.7645 216.79 86.4888C220.342 84.6371 229.585 79.1018 228.707 71.9401C228.689 71.8218 228.642 71.7098 228.57 71.6141C228.499 71.5183 228.405 71.4419 228.297 71.3915Z" fill="#F5F5F5"/>
<path d="M206.756 72.7628C206.781 72.6513 206.778 72.5353 206.747 72.4254C206.716 72.3154 206.658 72.215 206.578 72.1333C206.499 72.0515 206.4 71.991 206.291 71.9572C206.183 71.9234 206.067 71.9174 205.956 71.9398C205.545 72.0197 205.141 72.1277 204.745 72.2631C204.654 72.299 204.568 72.3485 204.492 72.4101C203.584 73.2526 198.636 80.4241 203.272 86.2239C204.248 84.6466 207.615 81.0707 211.138 80.0224C207.8 78.5136 206.161 75.7019 206.756 72.7628Z" fill="#F5F5F5"/>
<path opacity="0.2" d="M218.967 54.1191L211.998 60.4285C212.334 61.568 212.569 62.7351 212.701 63.9162C215.395 63.4558 219.015 60.3893 219.211 57.5481C219.343 56.3998 219.26 55.2369 218.967 54.1191Z" fill="black"/>
<path d="M209.655 30.4591C203.643 32.8202 203.253 37.7775 203.799 43.1953C204.346 48.6131 210.221 45.0274 211.529 41.6376C212.837 38.2478 217.98 27.1869 209.655 30.4591Z" fill="#263238"/>
<path d="M228.833 41.2653C227.164 49.7985 226.608 54.8636 221.747 58.7922C214.417 64.6705 204.491 59.5956 203.613 50.7978C202.822 42.872 205.682 30.2239 214.437 27.7551C216.346 27.1908 218.369 27.1364 220.306 27.5971C222.242 28.0579 224.026 29.0179 225.479 30.3823C226.933 31.7467 228.007 33.4683 228.595 35.3769C229.184 37.2855 229.265 39.3152 228.833 41.2653Z" fill="#FFB573"/>
<path d="M228.482 48.329C221.328 48.7111 222.841 44.6355 224.139 42.294C225.437 39.9525 222.792 36.0826 224.519 34.0742C221.435 35.3086 218.185 34.2897 214.057 31.4094C210.855 29.1659 206.844 38.1302 202.94 33.6333C199.251 29.3912 202.677 22.9937 211.539 21.965C220.401 20.9363 222.011 27.2261 227.828 26.6676C233.645 26.1092 231.625 30.9196 230.483 31.8993C235.363 32.2226 238.027 36.9056 228.482 48.329Z" fill="#263238"/>
<path d="M229.36 32.4967C230.48 31.8804 231.415 30.9751 232.068 29.8744C232.722 28.7738 233.071 27.5178 233.079 26.2363C235.011 29.6359 234.806 33.496 229.36 32.4967Z" fill="#263238"/>
<path d="M210.816 50.3767C211.594 50.5118 212.391 50.4877 213.159 50.3058C213.927 50.124 214.651 49.7882 215.286 49.3186C215.306 49.3003 215.321 49.2782 215.331 49.2538C215.342 49.2294 215.347 49.2031 215.347 49.1765C215.347 49.1499 215.342 49.1236 215.331 49.0992C215.321 49.0748 215.306 49.0528 215.286 49.0345C215.248 48.9979 215.198 48.9775 215.145 48.9775C215.092 48.9775 215.041 48.9979 215.003 49.0345C214.292 49.5409 213.472 49.8745 212.61 50.0088C211.748 50.1431 210.867 50.0745 210.036 49.8084C209.982 49.7952 209.926 49.8018 209.878 49.827C209.829 49.8523 209.792 49.8944 209.772 49.9456C209.757 49.9976 209.763 50.0534 209.788 50.1011C209.814 50.1488 209.857 50.1844 209.909 50.2003C210.205 50.2862 210.509 50.3452 210.816 50.3767Z" fill="#263238"/>
<path d="M230.561 50.9448C229.224 52.6735 227.265 53.8064 225.105 54.0995C222.265 54.4718 221.318 51.8168 222.509 49.3381C223.592 47.1044 226.413 44.224 229.028 44.998C231.644 45.772 232.2 48.7895 230.561 50.9448Z" fill="#FFB573"/>
<path d="M227.74 236.472C228.082 210.892 231.342 149.964 231.342 149.964L195.366 153.011C195.366 153.011 202.52 215.8 206.834 241.9C211.324 269.028 225.095 332.581 225.095 332.581L239.735 331.327C239.735 331.327 234.387 256.252 227.74 236.472Z" fill="#263238"/>
<path d="M224.217 332.983L241.58 331.504L240.897 325.88L222.802 327.095L224.217 332.983Z" fill="#407BFF"/>
<path d="M216.009 41.7747C215.921 42.4703 215.472 42.9993 215.033 42.9503C214.593 42.9013 214.291 42.2939 214.388 41.5885C214.486 40.8831 214.925 40.3639 215.364 40.4129C215.804 40.4619 216.106 41.0791 216.009 41.7747Z" fill="#263238"/>
<path d="M208.045 41.1479C207.957 41.8533 207.508 42.3725 207.069 42.3235C206.63 42.2745 206.327 41.6671 206.425 40.9715C206.522 40.2759 206.961 39.7469 207.401 39.7959C207.84 39.8449 208.142 40.4131 208.045 41.1479Z" fill="#263238"/>
<path d="M210.289 41.9705C209.113 43.7834 207.702 45.4308 206.092 46.869C207.126 47.9565 209.264 47.6626 209.264 47.6626L210.289 41.9705Z" fill="#ED893E"/>
<path opacity="0.4" d="M203.008 41.324C202.862 42.4408 203.984 43.3716 205.536 43.5675C207.088 43.7634 208.522 42.9111 208.659 41.7942" fill="#407BFF"/>
<path opacity="0.4" d="M212.231 42.3625C212.017 43.4696 213.1 44.4689 214.622 44.7628C216.145 45.0568 217.638 44.273 217.843 43.1757" fill="#407BFF"/>
<path d="M215.228 45.0666C215.052 45.0763 214.876 45.0763 214.701 45.0666C213.951 44.9765 213.246 44.6586 212.681 44.1555C212.434 43.9438 212.241 43.6759 212.119 43.3742C211.997 43.0725 211.948 42.7458 211.978 42.4214C211.483 42.2049 210.955 42.0725 210.416 42.0295C209.875 41.8939 209.308 41.8939 208.767 42.0295C208.63 43.2247 207.147 44.0477 205.487 43.842C204.737 43.7596 204.031 43.4446 203.467 42.9406C203.222 42.728 203.03 42.4599 202.908 42.1585C202.786 41.857 202.737 41.5308 202.764 41.2065L203.233 41.2653C203.213 41.5158 203.253 41.7675 203.35 41.9992C203.447 42.231 203.597 42.4362 203.789 42.5977C204.281 43.0321 204.895 43.3026 205.546 43.3717C206.951 43.5578 208.201 42.9014 208.328 41.9217C208.396 41.3731 209.528 41.4123 210.465 41.5298C211.402 41.6474 212.515 41.9119 212.417 42.4508C212.397 42.7014 212.436 42.9532 212.533 43.1851C212.63 43.417 212.781 43.6222 212.973 43.7832C213.471 44.2118 214.083 44.4847 214.733 44.5682C215.384 44.6518 216.044 44.5424 216.633 44.2534C216.861 44.1472 217.059 43.9876 217.212 43.7881C217.365 43.5885 217.468 43.355 217.512 43.1072V42.8721L229.556 44.4298L229.497 44.9L217.902 43.4011C217.818 43.6738 217.679 43.9264 217.495 44.1437C217.31 44.361 217.084 44.5383 216.829 44.6649C216.335 44.927 215.786 45.0648 215.228 45.0666Z" fill="#263238"/>
<path d="M219.073 38.6983C219.142 38.6985 219.21 38.6781 219.268 38.6395C219.363 38.5842 219.433 38.4936 219.462 38.3874C219.491 38.2812 219.477 38.1677 219.424 38.0713C219.122 37.5015 218.684 37.0155 218.149 36.6566C217.615 36.2977 217 36.0769 216.36 36.0139C216.25 36.0085 216.142 36.0466 216.06 36.1198C215.978 36.1931 215.928 36.2958 215.92 36.4058C215.915 36.5134 215.952 36.6188 216.023 36.6994C216.094 36.78 216.194 36.8293 216.301 36.8369C216.808 36.8966 217.292 37.0795 217.712 37.3697C218.132 37.66 218.475 38.0488 218.712 38.5024C218.749 38.5647 218.802 38.6159 218.865 38.6504C218.929 38.6849 219.001 38.7015 219.073 38.6983Z" fill="#263238"/>
<path d="M205.468 37.5915C205.535 37.5982 205.603 37.5883 205.666 37.5627C205.729 37.5371 205.785 37.4966 205.829 37.4446C206.144 37.0297 206.553 36.6949 207.02 36.4669C207.488 36.2389 208.003 36.1241 208.523 36.1318C208.576 36.1372 208.631 36.1318 208.683 36.116C208.734 36.1001 208.783 36.0742 208.824 36.0396C208.866 36.0049 208.901 35.9624 208.926 35.9143C208.951 35.8662 208.967 35.8136 208.972 35.7595C208.978 35.7067 208.975 35.653 208.961 35.6017C208.947 35.5503 208.923 35.5023 208.89 35.4603C208.857 35.4184 208.816 35.3834 208.77 35.3574C208.724 35.3314 208.673 35.3149 208.62 35.3088C207.965 35.2916 207.314 35.4289 206.721 35.7096C206.128 35.9903 205.608 36.4067 205.204 36.9253C205.135 37.0086 205.101 37.1161 205.11 37.2244C205.119 37.3327 205.17 37.433 205.253 37.5034C205.317 37.5493 205.39 37.5795 205.468 37.5915Z" fill="#263238"/>
<path d="M257.713 232.347C250.246 193.825 248.568 163.699 241.482 149.072L206.629 152.991C206.629 152.991 227.388 210.392 237.529 234.895C248.06 260.367 268.849 303.886 268.849 303.886H286.261C286.261 303.886 270.01 249.894 257.713 232.347Z" fill="#263238"/>
<path d="M147.24 86.5179L143.472 84.1274C142.861 83.732 142.132 83.5617 141.409 83.6457C140.686 83.7297 140.015 84.0627 139.51 84.5879L136.953 87.2919C136.677 87.5837 136.464 87.9292 136.327 88.3069C136.19 88.6845 136.132 89.0865 136.156 89.4877C136.179 89.889 136.285 90.2811 136.466 90.6398C136.646 90.9985 136.899 91.3162 137.206 91.5732L139.032 93.1408C140.619 94.4911 142.471 95.4924 144.468 96.0799L149.982 97.716L153.603 93.7972C154.706 89.7118 147.24 86.5179 147.24 86.5179Z" fill="#FFB573"/>
<path d="M203.008 84.6857C201.642 88.0363 200.304 91.1518 198.85 94.3358C197.396 97.5199 195.922 100.665 194.292 103.79C192.662 106.915 190.925 110.021 188.954 113.136C187.978 114.684 186.894 116.232 185.664 117.79C184.342 119.508 182.837 121.075 181.175 122.463C180.077 123.364 178.867 124.115 177.573 124.697C177.163 124.854 176.783 125.01 176.334 125.148L175.651 125.334C175.307 125.419 174.958 125.481 174.606 125.52C173.417 125.654 172.212 125.568 171.054 125.265C169.605 124.858 168.229 124.227 166.974 123.394C166.034 122.805 165.137 122.151 164.29 121.435C161.473 118.966 158.877 116.255 156.531 113.332C154.257 110.589 152.11 107.836 150.05 105.024C147.991 102.213 146.01 99.4499 143.979 96.501L154.774 89.5059C158.181 95.0257 161.95 100.312 166.057 105.328C167.944 107.652 170.024 109.812 172.274 111.784C172.709 112.142 173.169 112.47 173.65 112.764C174.011 113.009 174.372 113.107 174.118 113.019C173.775 112.924 173.416 112.904 173.064 112.96C172.922 112.973 172.782 112.999 172.645 113.038H172.567C172.518 113.038 172.518 113.038 172.508 113.038C172.73 112.893 172.942 112.733 173.142 112.558C174.033 111.747 174.841 110.847 175.553 109.874C176.383 108.757 177.212 107.503 178.003 106.2C179.619 103.491 181.091 100.698 182.414 97.8334C183.781 94.8943 185.098 91.9552 186.318 88.8985C187.538 85.8418 188.7 82.7361 189.686 79.7676L203.008 84.6857Z" fill="#407BFF"/>
<g opacity="0.6">
<path d="M203.008 84.6857C201.642 88.0363 200.304 91.1518 198.85 94.3358C197.396 97.5199 195.922 100.665 194.292 103.79C192.662 106.915 190.925 110.021 188.954 113.136C187.978 114.684 186.894 116.232 185.664 117.79C184.342 119.508 182.837 121.075 181.175 122.463C180.077 123.364 178.867 124.115 177.573 124.697C177.163 124.854 176.783 125.01 176.334 125.148L175.651 125.334C175.307 125.419 174.958 125.481 174.606 125.52C173.417 125.654 172.212 125.568 171.054 125.265C169.605 124.858 168.229 124.227 166.974 123.394C166.034 122.805 165.137 122.151 164.29 121.435C161.473 118.966 158.877 116.255 156.531 113.332C154.257 110.589 152.11 107.836 150.05 105.024C147.991 102.213 146.01 99.4499 143.979 96.501L154.774 89.5059C158.181 95.0257 161.95 100.312 166.057 105.328C167.944 107.652 170.024 109.812 172.274 111.784C172.709 112.142 173.169 112.47 173.65 112.764C174.011 113.009 174.372 113.107 174.118 113.019C173.775 112.924 173.416 112.904 173.064 112.96C172.922 112.973 172.782 112.999 172.645 113.038H172.567C172.518 113.038 172.518 113.038 172.508 113.038C172.73 112.893 172.942 112.733 173.142 112.558C174.033 111.747 174.841 110.847 175.553 109.874C176.383 108.757 177.212 107.503 178.003 106.2C179.619 103.491 181.091 100.698 182.414 97.8334C183.781 94.8943 185.098 91.9552 186.318 88.8985C187.538 85.8418 188.7 82.7361 189.686 79.7676L203.008 84.6857Z" fill="white"/>
</g>
<path d="M228.56 69.6474C224.9 76.5053 211.87 102.634 210.289 118.76C204.521 104.065 205.78 71.5578 205.78 71.5578C201.669 71.96 197.637 72.9497 193.805 74.4969C192.57 75.0063 191.499 75.8489 190.712 76.9314C189.925 78.0139 189.451 79.294 189.344 80.6299C188.221 97.4498 188.751 114.34 190.925 131.055C194.976 162.7 198.733 211.911 198.733 211.911C198.733 211.911 230.99 210.559 255.878 205.288C252.843 181.099 242.458 140.559 242.361 129.703C242.244 115.733 242.566 88.4186 243.005 77.0148C243.079 75.4047 242.576 73.8214 241.588 72.551C240.6 71.2806 239.191 70.407 237.617 70.0882C234.632 69.5329 231.585 69.3846 228.56 69.6474Z" fill="#407BFF"/>
<path opacity="0.7" d="M228.56 69.6475C224.9 76.5054 211.87 102.634 210.289 118.76C204.521 104.065 205.78 71.5579 205.78 71.5579C201.669 71.9601 197.637 72.9498 193.805 74.497C192.57 75.0064 191.499 75.849 190.712 76.9315C189.925 78.014 189.451 79.2941 189.344 80.63C188.221 97.4499 188.751 114.34 190.925 131.056C194.976 162.7 198.733 211.911 198.733 211.911C198.733 211.911 230.99 210.559 255.878 205.288C252.843 181.099 242.458 140.559 242.361 129.704C242.244 115.733 242.566 88.4089 243.005 77.0051C243.097 75.444 242.638 73.9003 241.708 72.6458C240.777 71.3914 239.436 70.5065 237.92 70.1471C234.839 69.5409 231.688 69.3727 228.56 69.6475Z" fill="white"/>
<path d="M220.957 206.66C215.355 175.632 210.914 130.105 210.553 124.629H211.051C211.412 130.105 215.862 175.573 221.455 206.601L220.957 206.66Z" fill="white"/>
<path d="M218.166 151.463H188.417C187.817 151.436 187.241 151.214 186.776 150.83C186.312 150.447 185.983 149.923 185.841 149.337L175.895 102.928C175.822 102.675 175.81 102.408 175.861 102.149C175.911 101.89 176.021 101.647 176.183 101.439C176.345 101.232 176.554 101.066 176.792 100.955C177.031 100.844 177.292 100.792 177.554 100.802H207.293C207.895 100.827 208.473 101.048 208.94 101.432C209.406 101.815 209.736 102.34 209.879 102.928L219.825 149.337C219.898 149.59 219.91 149.857 219.859 150.116C219.809 150.375 219.699 150.618 219.537 150.826C219.375 151.033 219.166 151.199 218.928 151.31C218.689 151.421 218.428 151.473 218.166 151.463Z" fill="white"/>
<path d="M217.239 151.855H186.983C186.371 151.826 185.785 151.6 185.312 151.21C184.839 150.82 184.504 150.286 184.357 149.69L174.236 102.497C174.164 102.239 174.153 101.966 174.205 101.703C174.258 101.439 174.371 101.192 174.537 100.981C174.702 100.77 174.915 100.601 175.158 100.488C175.401 100.376 175.667 100.322 175.935 100.332H206.191C206.802 100.361 207.388 100.587 207.861 100.977C208.335 101.367 208.669 101.9 208.816 102.497L218.927 149.69C219.002 149.948 219.014 150.22 218.963 150.483C218.912 150.747 218.8 150.995 218.635 151.206C218.47 151.417 218.258 151.587 218.015 151.699C217.772 151.812 217.506 151.865 217.239 151.855Z" fill="#407BFF"/>
<path d="M220.703 125.226L213.178 124.942C212.273 124.911 211.372 125.071 210.533 125.412L206.629 126.98C206.263 127.125 205.93 127.344 205.649 127.622C205.369 127.9 205.148 128.232 204.998 128.597C204.849 128.963 204.774 129.356 204.78 129.751C204.785 130.147 204.869 130.537 205.028 130.899L206.59 134.288C206.905 134.946 207.436 135.474 208.094 135.785C208.752 136.095 209.496 136.169 210.201 135.993L214.505 134.916C214.505 134.916 222.587 134.269 222.879 130.017L220.703 125.226Z" fill="#FFB573"/>
<path d="M241.482 73.8503C243.346 76.7895 245.054 79.4739 246.733 82.3542C248.412 85.2345 250.061 88.0855 251.613 91.0638C253.165 94.0421 254.639 97.1184 255.976 100.41C256.67 102.134 257.263 103.897 257.752 105.691C258.381 107.877 258.671 110.147 258.611 112.421V112.804C258.614 112.869 258.614 112.934 258.611 112.999C258.611 113.352 258.513 113.705 258.445 114.058C258.377 114.41 258.289 114.685 258.191 115.037C258.094 115.39 257.986 115.576 257.879 115.85C257.506 116.698 257.027 117.495 256.454 118.221C255.657 119.221 254.75 120.128 253.75 120.925C252.215 122.139 250.583 123.224 248.87 124.168C245.858 125.822 242.756 127.307 239.579 128.616C236.505 129.929 233.44 131.124 230.356 132.251C227.272 133.377 224.236 134.465 221.025 135.543L217.307 123.198C220.235 122.395 223.221 121.405 226.139 120.406C229.058 119.407 231.995 118.29 234.767 117.124C237.487 115.996 240.14 114.71 242.712 113.274C243.797 112.67 244.832 111.979 245.806 111.207C246.062 111.012 246.291 110.785 246.489 110.531C246.405 110.626 246.339 110.735 246.294 110.854C246.294 110.942 246.245 111.001 246.196 111.109C246.158 111.224 246.128 111.342 246.108 111.461C246.067 111.612 246.041 111.766 246.03 111.922C246.03 111.981 246.03 111.99 246.03 111.971V111.902C245.962 110.973 245.782 110.055 245.494 109.169C245.103 107.886 244.64 106.627 244.108 105.397C242.914 102.685 241.565 100.045 240.067 97.4907C238.544 94.8651 236.924 92.2395 235.187 89.653C233.45 87.0666 231.673 84.49 229.887 82.1387L241.482 73.8503Z" fill="#407BFF"/>
<g opacity="0.7">
<path d="M241.482 73.8501C243.346 76.7892 245.054 79.4736 246.733 82.354C248.412 85.2343 250.061 88.0852 251.613 91.0636C253.165 94.0419 254.639 97.1182 255.976 100.41C256.67 102.134 257.263 103.897 257.752 105.691C258.381 107.876 258.671 110.147 258.611 112.421V112.803C258.614 112.869 258.614 112.934 258.611 112.999C258.611 113.352 258.513 113.705 258.445 114.057C258.377 114.41 258.289 114.684 258.191 115.037C258.094 115.39 257.986 115.576 257.879 115.85C257.506 116.698 257.027 117.495 256.454 118.221C255.657 119.221 254.75 120.128 253.75 120.925C252.215 122.139 250.583 123.223 248.87 124.168C245.858 125.822 242.756 127.307 239.579 128.616C236.505 129.929 233.44 131.124 230.356 132.25C227.272 133.377 224.236 134.465 221.025 135.542L217.307 123.198C220.235 122.395 223.221 121.405 226.139 120.406C229.058 119.407 231.995 118.29 234.767 117.124C237.487 115.996 240.14 114.71 242.712 113.274C243.797 112.67 244.832 111.978 245.806 111.206C246.062 111.012 246.291 110.784 246.489 110.53C246.405 110.625 246.339 110.735 246.294 110.854C246.294 110.942 246.245 111.001 246.196 111.108C246.158 111.223 246.128 111.341 246.108 111.461C246.067 111.612 246.041 111.766 246.03 111.922C246.03 111.98 246.03 111.99 246.03 111.971V111.902C245.962 110.972 245.782 110.055 245.494 109.169C245.103 107.886 244.64 106.627 244.108 105.397C242.914 102.685 241.565 100.045 240.067 97.4904C238.544 94.8648 236.924 92.2392 235.187 89.6528C233.45 87.0663 231.673 84.4897 229.887 82.1384L241.482 73.8501Z" fill="white"/>
</g>
<path d="M231.605 107.846C231.54 107.845 231.476 107.828 231.42 107.795C231.364 107.763 231.316 107.716 231.283 107.66C231.255 107.617 231.235 107.569 231.225 107.519C231.216 107.468 231.216 107.416 231.227 107.366C231.238 107.315 231.259 107.268 231.289 107.226C231.319 107.184 231.356 107.148 231.4 107.121L232.923 106.141C234.344 105.242 235.459 103.93 236.122 102.38C236.784 100.83 236.962 99.1149 236.632 97.4613L233.567 81.8839C233.343 80.7192 232.733 79.6645 231.838 78.8904C230.942 78.1162 229.813 77.668 228.632 77.6181C227.451 77.5683 226.288 77.9197 225.331 78.6156C224.374 79.3115 223.679 80.3111 223.358 81.4528L219.015 96.7265C218.54 98.341 218.567 100.062 219.089 101.662C219.612 103.261 220.608 104.663 221.943 105.681L223.387 106.778C223.469 106.842 223.521 106.936 223.534 107.038C223.547 107.141 223.519 107.245 223.456 107.327C223.425 107.367 223.387 107.401 223.343 107.426C223.3 107.451 223.251 107.467 223.201 107.474C223.152 107.48 223.101 107.476 223.052 107.463C223.004 107.45 222.958 107.427 222.919 107.396L221.552 106.308C220.085 105.199 218.988 103.667 218.407 101.918C217.827 100.168 217.79 98.2821 218.302 96.511L222.655 81.2373C223.029 79.9331 223.828 78.7927 224.925 77.9992C226.022 77.2056 227.352 76.805 228.703 76.8615C230.054 76.9179 231.347 77.4283 232.374 78.3107C233.401 79.1931 234.103 80.3963 234.367 81.7272L237.432 97.3143C237.794 99.1209 237.6 100.995 236.877 102.689C236.154 104.382 234.935 105.815 233.382 106.798L231.849 107.778C231.815 107.805 231.776 107.825 231.734 107.837C231.692 107.849 231.648 107.852 231.605 107.846Z" fill="#263238"/>
<path d="M233.948 82.2074L222.988 81.7469C222.936 81.7444 222.886 81.7317 222.84 81.7097C222.793 81.6877 222.752 81.6566 222.717 81.6184C222.683 81.5802 222.656 81.5355 222.639 81.487C222.622 81.4384 222.614 81.3869 222.617 81.3354C222.626 81.2332 222.674 81.1384 222.75 81.0695C222.826 81.0006 222.924 80.9627 223.027 80.9631L233.977 81.4236C234.029 81.4261 234.079 81.4387 234.125 81.4608C234.172 81.4828 234.213 81.5139 234.248 81.5521C234.282 81.5903 234.309 81.635 234.326 81.6836C234.343 81.7321 234.351 81.7836 234.348 81.8351C234.347 81.8861 234.336 81.9364 234.315 81.9829C234.294 82.0295 234.264 82.0713 234.226 82.106C234.189 82.1407 234.145 82.1676 234.098 82.185C234.05 82.2024 233.999 82.21 233.948 82.2074Z" fill="#263238"/>
<path d="M228.618 77.6419C228.517 77.6395 228.42 77.5988 228.348 77.5279C228.276 77.457 228.233 77.3612 228.228 77.2598C228.228 75.3004 227.623 71.9008 225.797 71.1562C225.747 71.1392 225.7 71.112 225.661 71.0762C225.621 71.0405 225.589 70.997 225.567 70.9484C225.545 70.8998 225.533 70.8471 225.531 70.7937C225.53 70.7402 225.54 70.687 225.56 70.6375C225.58 70.5879 225.61 70.543 225.648 70.5055C225.686 70.4679 225.731 70.4386 225.781 70.4193C225.83 70.4 225.883 70.3911 225.937 70.3931C225.99 70.3952 226.042 70.4081 226.09 70.4312C228.794 71.5481 229.018 76.6622 229.018 77.2892C229.018 77.3924 228.979 77.4917 228.908 77.5665C228.837 77.6413 228.74 77.6858 228.638 77.6909L228.618 77.6419Z" fill="#263238"/>
<path d="M195.092 90.956H195.014C194.914 90.9347 194.825 90.8744 194.769 90.7882C194.712 90.702 194.691 90.5968 194.712 90.4955C196 84.0588 201.329 73.8993 206.024 70.9013C206.066 70.8746 206.114 70.8567 206.164 70.8486C206.214 70.8406 206.265 70.8425 206.314 70.8544C206.363 70.8662 206.409 70.8877 206.45 70.9177C206.49 70.9476 206.525 70.9853 206.551 71.0287C206.579 71.0707 206.599 71.1181 206.608 71.1679C206.618 71.2178 206.617 71.2691 206.606 71.3186C206.595 71.3682 206.574 71.4149 206.544 71.4561C206.515 71.4972 206.477 71.5318 206.433 71.5577C201.895 74.4381 196.722 84.2939 195.473 90.6327C195.457 90.7226 195.41 90.8042 195.341 90.8633C195.271 90.9223 195.183 90.9551 195.092 90.956Z" fill="#263238"/>
<path d="M198.295 91.9651C197.69 93.5229 196.343 94.4634 195.367 94.0617C194.391 93.66 194.01 92.1023 194.615 90.5054C195.22 88.9084 196.567 88.0071 197.543 88.4186C198.519 88.8301 198.91 90.4074 198.295 91.9651Z" fill="white"/>
<path d="M224.061 107.141C224.061 107.866 223.612 108.444 223.134 108.424C222.656 108.405 222.285 107.797 222.314 107.063C222.343 106.328 222.763 105.75 223.241 105.779C223.72 105.809 224.09 106.406 224.061 107.141Z" fill="white"/>
<path d="M232.474 107.493C232.474 108.218 232.035 108.796 231.547 108.777C231.059 108.757 230.708 108.15 230.737 107.415C230.766 106.68 231.176 106.112 231.713 106.132C232.25 106.151 232.504 106.788 232.474 107.493Z" fill="white"/>
<path d="M397.984 93.9051L397.008 93.8463C397.17 91.7604 396.899 89.6635 396.211 87.6885C395.524 85.7135 394.434 83.9035 393.013 82.3734C391.591 80.8433 389.868 79.6266 387.954 78.8002C386.039 77.9739 383.974 77.5561 381.89 77.5733V76.5936C384.108 76.5747 386.305 77.0187 388.343 77.8974C390.381 78.7761 392.215 80.0703 393.728 81.698C395.241 83.3257 396.401 85.2513 397.133 87.3527C397.866 89.4541 398.156 91.6854 397.984 93.9051Z" fill="#407BFF"/>
<path d="M398.498 98.0128L397.933 106.125L398.909 106.193L399.474 98.0814L398.498 98.0128Z" fill="#407BFF"/>
<path d="M381.889 80.0226H314.545C310.867 80.0833 307.344 81.515 304.659 84.0393C301.975 86.5636 300.322 89.9999 300.022 93.6798L299.407 102.781C299.268 104.533 299.493 106.294 300.069 107.953C300.645 109.612 301.559 111.132 302.752 112.417C303.946 113.702 305.393 114.723 307.002 115.416C308.611 116.108 310.345 116.456 312.095 116.438H379.439L392.498 124.521L394.567 93.6798C394.709 91.929 394.485 90.1679 393.91 88.5089C393.335 86.8498 392.422 85.3293 391.229 84.0442C390.036 82.7592 388.59 81.7379 386.981 81.0454C385.373 80.353 383.639 80.0047 381.889 80.0226Z" fill="#407BFF"/>
<path d="M378.474 93.0625H316.098V95.3354H378.474V93.0625Z" fill="white"/>
<path d="M377.927 101.126H331.616V103.399H377.927V101.126Z" fill="white"/>
<path d="M280.581 128.714H349.409C351.198 128.694 352.972 129.05 354.617 129.757C356.262 130.464 357.742 131.508 358.962 132.822C360.183 134.136 361.117 135.69 361.706 137.387C362.294 139.083 362.524 140.884 362.38 142.675L361.755 151.982C361.446 155.743 359.755 159.254 357.012 161.833C354.269 164.413 350.669 165.878 346.91 165.943H278.073L263.608 174.221L265.736 142.675C266.043 138.913 267.733 135.401 270.477 132.821C273.22 130.241 276.822 128.777 280.581 128.714Z" fill="white"/>
<path opacity="0.15" d="M280.581 128.714H349.409C351.198 128.694 352.972 129.05 354.617 129.757C356.262 130.464 357.742 131.508 358.962 132.822C360.183 134.136 361.117 135.69 361.706 137.387C362.294 139.083 362.524 140.884 362.38 142.675L361.755 151.982C361.446 155.743 359.755 159.254 357.012 161.833C354.269 164.413 350.669 165.878 346.91 165.943H278.073L263.608 174.221L265.736 142.675C266.043 138.913 267.733 135.401 270.477 132.821C273.22 130.241 276.822 128.777 280.581 128.714Z" fill="#407BFF"/>
<path opacity="0.5" d="M345.914 142.048H282.123V144.38H345.914V142.048Z" fill="#407BFF"/>
<path opacity="0.5" d="M306.777 150.287H281.566V152.619H306.777V150.287Z" fill="#407BFF"/>
<path opacity="0.5" d="M329.059 150.287H312.955V152.619H329.059V150.287Z" fill="#407BFF"/>
</svg>
