<svg width="37" height="37" viewBox="0 0 37 37" fill="none" xmlns="http://www.w3.org/2000/svg">
<g clip-path="url(#clip0_2470_14024)">
<path fill-rule="evenodd" clip-rule="evenodd" d="M25.4375 34.6875C27.8908 34.6875 30.2435 33.7129 31.9782 31.9782C33.7129 30.2435 34.6875 27.8908 34.6875 25.4375C34.6875 22.9842 33.7129 20.6315 31.9782 18.8968C30.2435 17.1621 27.8908 16.1875 25.4375 16.1875C22.9842 16.1875 20.6315 17.1621 18.8968 18.8968C17.1621 20.6315 16.1875 22.9842 16.1875 25.4375C16.1875 27.8908 17.1621 30.2435 18.8968 31.9782C20.6315 33.7129 22.9842 34.6875 25.4375 34.6875ZM37 25.4375C37 28.5041 35.7818 31.445 33.6134 33.6134C31.445 35.7818 28.5041 37 25.4375 37C22.3709 37 19.43 35.7818 17.2616 33.6134C15.0932 31.445 13.875 28.5041 13.875 25.4375C13.875 22.3709 15.0932 19.43 17.2616 17.2616C19.43 15.0932 22.3709 13.875 25.4375 13.875C28.5041 13.875 31.445 15.0932 33.6134 17.2616C35.7818 19.43 37 22.3709 37 25.4375Z" fill="#014E86"/>
<path d="M21.8256 27.6205C21.9342 28.9988 23.0234 30.0718 24.9775 30.2013V31.2188H25.8447V30.1943C27.8681 30.0533 29.0498 28.971 29.0498 27.4031C29.0498 25.974 28.1479 25.2386 26.5292 24.8594L25.8447 24.6975V21.9225C26.7142 22.0219 27.2646 22.496 27.3964 23.1528H28.918C28.8093 21.8231 27.6692 20.7848 25.8447 20.6714V19.6562H24.9775V20.6969C23.2501 20.8657 22.0753 21.904 22.0753 23.3747C22.0753 24.6744 22.9494 25.5022 24.404 25.8399L24.9775 25.9809V28.9224C24.0895 28.7883 23.4998 28.2981 23.368 27.6205H21.8256ZM24.9706 24.4894C24.1172 24.2928 23.6547 23.8881 23.6547 23.2822C23.6547 22.6024 24.1542 22.0936 24.9775 21.9456V24.4894H24.9706ZM25.9696 26.2145C27.0079 26.455 27.4842 26.8435 27.4842 27.5303C27.4842 28.3142 26.8899 28.8507 25.8447 28.9502V26.1868L25.9696 26.2145Z" fill="#014E86"/>
<path d="M2.3125 0C1.69919 0 1.11099 0.243638 0.677316 0.677316C0.243638 1.11099 0 1.69919 0 2.3125L0 20.8125C0 21.4258 0.243638 22.014 0.677316 22.4477C1.11099 22.8814 1.69919 23.125 2.3125 23.125H11.7544C11.8886 22.3295 12.0898 21.5571 12.3511 20.8125H6.9375C6.9375 19.5859 6.45022 18.4095 5.58287 17.5421C4.71551 16.6748 3.53913 16.1875 2.3125 16.1875V6.9375C3.53913 6.9375 4.71551 6.45022 5.58287 5.58287C6.45022 4.71551 6.9375 3.53913 6.9375 2.3125H30.0625C30.0625 3.53913 30.5498 4.71551 31.4171 5.58287C32.2845 6.45022 33.4609 6.9375 34.6875 6.9375V15.096C35.5662 15.8822 36.3456 16.7795 37 17.7646V2.3125C37 1.69919 36.7564 1.11099 36.3227 0.677316C35.889 0.243638 35.3008 0 34.6875 0L2.3125 0Z" fill="#014E86"/>
<path d="M23.1204 11.7546L23.125 11.5627C23.1245 10.7662 22.9184 9.98341 22.5266 9.29002C22.1347 8.59663 21.5705 8.01618 20.8884 7.60488C20.2064 7.19358 19.4297 6.96537 18.6336 6.94236C17.8375 6.91935 17.049 7.10231 16.3443 7.47353C15.6397 7.84475 15.0428 8.39165 14.6116 9.06125C14.1804 9.73085 13.9294 10.5005 13.8829 11.2955C13.8364 12.0906 13.996 12.8842 14.3463 13.5995C14.6966 14.3148 15.2257 14.9275 15.8823 15.3783C17.8797 13.4757 20.4003 12.2138 23.1204 11.7546Z" fill="#014E86"/>
</g>
<defs>
<clipPath id="clip0_2470_14024">
<rect width="37" height="37" fill="white"/>
</clipPath>
</defs>
</svg>
