<svg width="56" height="61" viewBox="0 0 56 61" fill="none" xmlns="http://www.w3.org/2000/svg">
<path d="M53.0092 12.0613C51.5918 10.1903 49.6238 8.92199 47.4453 8.47573C47.1855 7.0039 46.6408 5.61055 45.8482 4.38994C45.0556 3.16933 44.0336 2.14996 42.8512 1.40077C41.6689 0.651587 40.3538 0.190078 38.995 0.0474689C37.6362 -0.0951404 36.2654 0.0844775 34.9753 0.57417C33.6851 1.06386 32.5058 1.8522 31.5171 2.88586C30.5284 3.91951 29.7534 5.17436 29.2444 6.5655C28.7355 7.95664 28.5046 9.45162 28.5672 10.9493C28.6299 12.447 28.9847 13.9124 29.6076 15.2464L13.881 32.5329C12.6665 31.8487 11.3323 31.459 9.96876 31.3902C8.60521 31.3214 7.24411 31.575 5.97754 32.134C4.71098 32.693 3.56851 33.5443 2.62742 34.6302C1.68633 35.7162 0.96859 37.0115 0.522751 38.4285C0.0769123 39.8456 -0.0866204 41.3512 0.0432179 42.8437C0.173056 44.3361 0.593236 45.7805 1.27533 47.0792C1.95742 48.3778 2.88551 49.5004 3.99681 50.371C5.10811 51.2415 6.37669 51.8398 7.71671 52.1252C7.97607 53.5974 8.52035 54.9912 9.31271 56.2123C10.1051 57.4334 11.127 58.4533 12.3094 59.203C13.4917 59.9526 14.8069 60.4145 16.1659 60.5575C17.525 60.7004 18.8961 60.521 20.1864 60.0314C21.4768 59.5417 22.6564 58.7534 23.6453 57.7196C24.6343 56.6858 25.4095 55.4308 25.9184 54.0394C26.4274 52.648 26.6583 51.1527 26.5955 49.6548C26.5327 48.1569 26.1777 46.6913 25.5544 45.3571L41.2929 28.068C43.2487 29.1975 45.501 29.5455 47.6646 29.0525C49.8281 28.5596 51.7686 27.2562 53.1539 25.3655C54.5393 23.4748 55.2835 21.1141 55.2593 18.6872C55.235 16.2604 54.4439 13.9182 53.0211 12.0613H53.0092ZM48.5676 21.5355C47.97 22.2841 47.1491 22.7743 46.2522 22.9181C45.3552 23.062 44.4409 22.8502 43.6733 22.3207C42.7587 21.6849 41.6743 21.41 40.5985 21.5413C39.5227 21.6726 38.5197 22.2022 37.7544 23.043L20.9794 41.468C20.2143 42.3088 19.7326 43.4107 19.6135 44.5923C19.4944 45.7739 19.745 46.9648 20.3242 47.9691C20.6481 48.5426 20.841 49.1937 20.8865 49.8667C20.9319 50.5398 20.8286 51.215 20.5853 51.8348C20.3419 52.4545 19.9658 53.0005 19.489 53.4262C19.0121 53.8519 18.4486 54.1446 17.8465 54.2795C17.2444 54.4145 16.6216 54.3875 16.031 54.201C15.4404 54.0145 14.8997 53.674 14.4547 53.2085C14.0098 52.743 13.674 52.1662 13.4757 51.5273C13.2775 50.8885 13.2228 50.2065 13.3163 49.5394C13.3784 49.0922 13.3519 48.6354 13.2384 48.2005C13.1249 47.7656 12.9272 47.3628 12.6589 47.0195C12.3905 46.6763 12.0578 46.4008 11.6835 46.2119C11.3092 46.023 10.9022 45.9252 10.4903 45.9251C10.3427 45.9243 10.1953 45.9366 10.0495 45.9617C9.44194 46.065 8.82067 46.0054 8.23864 45.7879C7.65661 45.5705 7.13109 45.2017 6.70688 44.713C6.28267 44.2242 5.97236 43.6301 5.8024 42.9811C5.63244 42.3322 5.60788 41.6478 5.73081 40.9862C5.85374 40.3245 6.12052 39.7054 6.50839 39.1815C6.89626 38.6576 7.39373 38.2445 7.95837 37.9775C8.52302 37.7104 9.13809 37.5972 9.75115 37.6477C10.3642 37.6981 10.9571 37.9107 11.4792 38.2672C12.3936 38.9023 13.4775 39.1768 14.5527 39.0455C15.628 38.9142 16.6306 38.385 17.3957 37.5448L34.1707 19.1198C34.9362 18.2793 35.4184 17.1776 35.5379 15.996C35.6574 14.8144 35.4072 13.6233 34.8284 12.6187C34.5038 12.0453 34.3103 11.3941 34.2643 10.7207C34.2184 10.0474 34.3214 9.37181 34.5646 8.75163C34.8077 8.13145 35.1838 7.58505 35.6608 7.15903C36.1378 6.733 36.7015 6.43999 37.3038 6.30497C37.9062 6.16994 38.5293 6.19692 39.1202 6.38359C39.711 6.57027 40.2519 6.9111 40.6969 7.37704C41.1419 7.84297 41.4776 8.42019 41.6756 9.05947C41.8736 9.69875 41.9279 10.3811 41.8338 11.0484C41.7642 11.5371 41.8007 12.0369 41.9403 12.5071C42.0799 12.9773 42.3186 13.4047 42.637 13.7544C42.9554 14.1042 43.3445 14.3663 43.7726 14.5196C44.2007 14.6729 44.6558 14.713 45.1007 14.6366C45.8755 14.5002 46.6698 14.6298 47.3751 15.0077C48.0804 15.3855 48.6623 15.9932 49.0415 16.7478C49.4207 17.5024 49.5787 18.3671 49.4939 19.2239C49.4091 20.0808 49.0856 20.888 48.5676 21.5355Z" fill="white"/>
</svg>