<svg width="45" height="40" viewBox="0 0 45 40" fill="none" xmlns="http://www.w3.org/2000/svg">
<g id="Group 115">
<path id="Vector" d="M19.1986 39.4524C21.022 39.4524 22.5002 38.1907 22.5002 36.6344C22.5002 35.0781 21.022 33.8164 19.1986 33.8164C17.3752 33.8164 15.897 35.0781 15.897 36.6344C15.897 38.1907 17.3752 39.4524 19.1986 39.4524Z" fill="#0076D7"/>
<path id="Vector_2" d="M34.6066 39.4524C36.43 39.4524 37.9082 38.1907 37.9082 36.6344C37.9082 35.0781 36.43 33.8164 34.6066 33.8164C32.7831 33.8164 31.3049 35.0781 31.3049 36.6344C31.3049 38.1907 32.7831 39.4524 34.6066 39.4524Z" fill="#0076D7"/>
<g id="Group 112">
<path id="Vector_3" d="M42.7507 8.67113H12.0017L9.40515 2.66638C9.0643 1.87545 8.48739 1.19982 7.74754 0.725137C7.00769 0.250451 6.13822 -0.00192054 5.24933 1.10049e-05H0V4.33557H5.25159L15.9235 29.0158C16.2723 29.8222 17.0935 30.3489 18.0003 30.3489H36.0006C36.9388 30.3489 37.7781 29.7875 38.1089 28.9442L44.859 11.602C44.9854 11.2738 45.0277 10.921 44.9823 10.5736C44.9369 10.2263 44.8051 9.89463 44.5981 9.60689C44.3911 9.31914 44.1151 9.08381 43.7934 8.92089C43.4718 8.75797 43.1141 8.67229 42.7507 8.67113ZM33.7505 21.6778H29.2505V26.0134H24.7504V21.6778H20.2503V17.3423H24.7504V13.0067H29.2505V17.3423H33.7505V21.6778Z" fill="#0076D7"/>
</g>
</g>
</svg>
