<svg width="36" height="48" viewBox="0 0 36 48" fill="none" xmlns="http://www.w3.org/2000/svg">
<path d="M25.0465 45.754L24.0694 47.1357C24.3347 47.3024 24.643 47.3981 24.9614 47.4126C25.2799 47.4271 25.5966 47.3599 25.8777 47.218C26.1588 47.0762 26.3938 46.8652 26.5577 46.6073C26.7215 46.3495 26.8081 46.0546 26.8081 45.754H25.0465ZM18 41.3258L18.9771 39.9442C18.6877 39.7623 18.3478 39.6653 18 39.6653C17.6522 39.6653 17.3123 39.7623 17.0229 39.9442L18 41.3258ZM10.9535 45.754H9.1919C9.19192 46.0546 9.27848 46.3495 9.44233 46.6073C9.60619 46.8652 9.8412 47.0762 10.1223 47.218C10.4034 47.3599 10.7201 47.4271 11.0386 47.4126C11.357 47.3981 11.6653 47.3024 11.9306 47.1357L10.9535 45.754ZM3.41378 20.3425L2.27225 21.6067L3.41378 20.3447V20.3425ZM3.41378 13.5982L2.27225 12.334L3.41378 13.596V13.5982ZM21.5773 30.7201L22.9184 31.7962L21.5796 30.7201H21.5773ZM14.4227 30.7201L13.0816 31.7962L14.4204 30.7201H14.4227ZM32.5862 13.5982L33.7277 12.334L32.5862 13.596V13.5982ZM26.0236 44.3724L18.9771 39.9442L17.0229 42.7074L24.0694 47.1357L26.0236 44.3724ZM17.0229 39.9442L9.97641 44.3724L11.9306 47.1357L18.9771 42.7074L17.0229 39.9442ZM20.2361 4.29668L20.3347 4.40739L23.0194 2.25526L22.9184 2.14455L20.2361 4.29668ZM25.7723 6.53074L25.9249 6.51746L25.6431 3.20733L25.4904 3.22062L25.7723 6.53074ZM29.0888 9.49767L29.0747 9.64381L32.5862 9.9095L32.6003 9.76558L29.0888 9.49767ZM31.3272 14.7673L31.4447 14.8625L33.7277 12.334L33.6103 12.2388L31.3272 14.7673ZM31.4447 19.0782L31.3272 19.1712L33.6103 21.702L33.7277 21.6067L31.4447 19.0782ZM29.0747 24.2969L29.0888 24.4408L32.6003 24.1751L32.5862 24.0312L29.0747 24.2969ZM25.9273 27.4233L25.7723 27.41L25.4904 30.7201L25.6431 30.7334L25.9249 27.4233H25.9273ZM20.3371 29.5333L20.2361 29.644L22.9184 31.7962L23.0194 31.6855L20.3371 29.5333ZM15.7639 29.644L15.6629 29.5333L12.9806 31.6855L13.0816 31.7962L15.7639 29.644ZM10.2277 27.41L10.0751 27.4211L10.3569 30.7334L10.5096 30.7223L10.2277 27.41ZM6.91119 24.443L6.92528 24.2969L3.41378 24.0312L3.39969 24.1751L6.91119 24.4408V24.443ZM4.67276 19.1734L4.55531 19.0782L2.27225 21.6067L2.3897 21.702L4.67276 19.1734ZM4.55531 14.8625L4.67276 14.7673L2.3897 12.2388L2.27225 12.334L4.55531 14.8625ZM6.92528 9.64381L6.91119 9.49989L3.39969 9.76558L3.41378 9.9095L6.92528 9.64381ZM10.0727 6.51746L10.2277 6.53074L10.5096 3.22062L10.3569 3.20733L10.0751 6.51746H10.0727ZM15.6629 4.40739L15.7639 4.29668L13.0816 2.14455L12.9806 2.25526L15.6629 4.40739ZM10.2277 6.53074C11.2479 6.60785 12.2729 6.45535 13.2183 6.0858C14.1637 5.71624 15.0024 5.14021 15.6653 4.40518L12.9806 2.25526C12.6792 2.58913 12.2981 2.85076 11.8685 3.01859C11.4389 3.18643 10.9731 3.25567 10.5096 3.22062L10.2277 6.53074ZM6.91119 9.49989C6.87749 9.10035 6.93624 8.69647 7.08339 8.32045C7.23054 7.94442 7.46257 7.603 7.76344 7.31981C8.06431 7.03661 8.42684 6.8184 8.82596 6.68025C9.22508 6.5421 9.65127 6.48731 10.0751 6.51967L10.3569 3.20955C9.4242 3.1387 8.4863 3.25972 7.60809 3.56425C6.72989 3.86878 5.93237 4.34954 5.2707 4.97326C4.60903 5.59698 4.09903 6.34877 3.77597 7.17661C3.45292 8.00445 3.32453 8.88857 3.39969 9.7678L6.91119 9.49989ZM4.67276 14.7673C5.45174 14.1424 6.06216 13.3521 6.45377 12.4613C6.84538 11.5706 7.00699 10.6049 6.92528 9.64381L3.41378 9.9095C3.48895 10.7952 3.10844 11.6631 2.3897 12.2388L4.67276 14.7673ZM4.55531 19.0782C4.23139 18.8184 3.97122 18.4953 3.7928 18.1314C3.61438 17.7674 3.52197 17.3713 3.52197 16.9704C3.52197 16.5694 3.61438 16.1733 3.7928 15.8093C3.97122 15.4454 4.23139 15.1223 4.55531 14.8625L2.27225 12.334C1.55994 12.9056 0.987843 13.6162 0.595516 14.4167C0.20319 15.2173 0 16.0885 0 16.9704C0 17.8522 0.20319 18.7235 0.595516 19.524C0.987843 20.3245 1.55994 21.0351 2.27225 21.6067L4.55531 19.0782ZM6.92528 24.2969C7.00709 23.3352 6.8453 22.369 6.45327 21.4779C6.06123 20.5867 5.45016 19.7961 4.67041 19.1712L2.3897 21.702C3.10844 22.2776 3.48895 23.1456 3.41378 24.0312L6.92528 24.2969ZM10.0727 27.4233C9.64868 27.4554 9.22232 27.4002 8.82312 27.2617C8.42393 27.1231 8.06145 26.9045 7.76076 26.6208C7.46007 26.3371 7.22836 25.9953 7.08167 25.6189C6.93498 25.2425 6.87681 24.8405 6.91119 24.4408L3.39969 24.1751C3.32453 25.0544 3.45292 25.9385 3.77597 26.7663C4.09903 27.5942 4.60903 28.346 5.2707 28.9697C5.93237 29.5934 6.72989 30.0742 7.60809 30.3787C8.4863 30.6832 9.4242 30.8042 10.3569 30.7334L10.0751 27.4211L10.0727 27.4233ZM20.2361 29.644C19.9605 29.9494 19.6177 30.1946 19.2317 30.3628C18.8456 30.531 18.4253 30.6181 18 30.6181C17.5747 30.6181 17.1544 30.531 16.7683 30.3628C16.3823 30.1946 16.0395 29.9494 15.7639 29.644L13.0816 31.7962C13.6879 32.4676 14.4418 33.0069 15.291 33.3768C16.1402 33.7466 17.0645 33.9381 18 33.9381C18.9355 33.9381 19.8598 33.7466 20.709 33.3768C21.5582 33.0069 22.3121 32.4676 22.9184 31.7962L20.2361 29.644ZM29.0888 24.4408C29.1229 24.8405 29.0644 25.2425 28.9174 25.6188C28.7704 25.9951 28.5384 26.3368 28.2375 26.6202C27.9366 26.9036 27.574 27.1221 27.1747 27.2603C26.7754 27.3986 26.3489 27.4557 25.9249 27.4233L25.6431 30.7334C26.5758 30.8042 27.5137 30.6832 28.3919 30.3787C29.2701 30.0742 30.0676 29.5934 30.7293 28.9697C31.391 28.346 31.901 27.5942 32.224 26.7663C32.5471 25.9385 32.6755 25.0544 32.6003 24.1751L29.0888 24.4408ZM31.3272 19.1712C30.5479 19.7963 29.9373 20.587 29.5457 21.4782C29.1541 22.3693 28.9926 23.3354 29.0747 24.2969L32.5862 24.0312C32.5111 23.1456 32.8916 22.2776 33.6103 21.702L31.3272 19.1712ZM31.4447 14.8625C31.7686 15.1223 32.0288 15.4454 32.2072 15.8093C32.3856 16.1733 32.478 16.5694 32.478 16.9704C32.478 17.3713 32.3856 17.7674 32.2072 18.1314C32.0288 18.4953 31.7686 18.8184 31.4447 19.0782L33.7277 21.6067C34.4401 21.0351 35.0122 20.3245 35.4045 19.524C35.7968 18.7235 36 17.8522 36 16.9704C36 16.0885 35.7968 15.2173 35.4045 14.4167C35.0122 13.6162 34.4401 12.9056 33.7277 12.334L31.4447 14.8625ZM29.0747 9.64381C28.9929 10.6055 29.1547 11.5717 29.5467 12.4629C29.9388 13.354 30.5498 14.1446 31.3296 14.7695L33.6103 12.2388C33.2561 11.9547 32.9786 11.5954 32.8005 11.1905C32.6225 10.7855 32.549 10.3465 32.5862 9.9095L29.0747 9.64381ZM25.9273 6.51746C26.3513 6.48535 26.7777 6.54048 27.1769 6.67904C27.5761 6.8176 27.9386 7.03627 28.2392 7.31993C28.5399 7.60358 28.7716 7.94544 28.9183 8.32184C29.065 8.69825 29.1232 9.09799 29.0888 9.49767L32.6003 9.76558C32.6755 8.88636 32.5471 8.00224 32.224 7.1744C31.901 6.34656 31.391 5.59476 30.7293 4.97104C30.0676 4.34732 29.2701 3.86656 28.3919 3.56204C27.5137 3.25751 26.5758 3.13648 25.6431 3.20733L25.9249 6.51746H25.9273ZM20.3347 4.40739C20.9976 5.14171 21.8384 5.71712 22.7833 6.08627C23.7283 6.45543 24.7527 6.60776 25.7723 6.53074L25.4904 3.22062C25.0269 3.25567 24.5611 3.18643 24.1315 3.01859C23.7019 2.85076 23.3208 2.58913 23.0194 2.25526L20.3347 4.40739ZM22.9208 2.14455C22.3144 1.47233 21.5603 0.932375 20.7106 0.562081C19.861 0.191787 18.9361 0 18 0C17.0639 0 16.139 0.191787 15.2894 0.562081C14.4397 0.932375 13.6856 1.47233 13.0792 2.14455L15.7639 4.29668C16.0395 3.99134 16.3823 3.74608 16.7683 3.57789C17.1544 3.40971 17.5747 3.3226 18 3.3226C18.4253 3.3226 18.8456 3.40971 19.2317 3.57789C19.6177 3.74608 19.9605 3.99134 20.2361 4.29668L22.9184 2.14455H22.9208ZM15.6629 29.5333C15.0879 28.8964 14.3799 28.378 13.583 28.0104C12.7861 27.6428 11.9174 27.4339 11.031 27.3967L10.876 30.7157C11.684 30.7489 12.4497 31.0965 12.9806 31.6855L15.6629 29.5333ZM11.031 27.3967C10.7632 27.3855 10.495 27.3899 10.2277 27.41L10.5096 30.7201C10.6315 30.7109 10.7539 30.7094 10.876 30.7157L11.031 27.3967ZM12.7151 45.754V29.0551H9.1919V45.754H12.7151ZM25.7746 27.41C25.5066 27.3898 25.2376 27.3854 24.969 27.3967L25.124 30.7157C25.2461 30.7094 25.3685 30.7109 25.4904 30.7201L25.7723 27.41H25.7746ZM24.969 27.3967C24.0822 27.4336 23.2131 27.6423 22.4157 28.01C21.6184 28.3776 20.9124 28.8962 20.3371 29.5333L23.0194 31.6855C23.2808 31.3963 23.6026 31.161 23.9647 30.9941C24.3267 30.8273 24.7214 30.7325 25.124 30.7157L24.969 27.3967ZM23.2849 29.0573V45.754H26.8081V29.0551L23.2849 29.0573Z" fill="#014E86"/>
<path d="M22.6971 14.7568L15.6506 21.3992L13.3018 19.1851" stroke="#014E86" stroke-width="2.5" stroke-linecap="round" stroke-linejoin="round"/>
</svg>