<svg width="51" height="71" viewBox="0 0 51 71" fill="none" xmlns="http://www.w3.org/2000/svg">
<path d="M12.9897 0C12.7582 0.536982 12.362 1.02004 11.8465 1.39384C11.3311 1.76764 10.7173 2.01706 10.0754 2.11354C9.38685 2.21627 8.69729 2.13843 8.09701 1.89019C7.49674 1.64196 7.01375 1.23492 6.71132 0.722395C6.5611 1.57406 6.50313 2.54331 6.56997 3.6244C6.96459 10.0052 5.3352 21.5976 19.6397 23.6684C14.6021 28.5644 16.238 33.4799 17.3953 38.407C13.3487 38.16 10.8799 41.9076 9.79012 45.3751C-2.05816 43.3708 0.100634 63.8149 0.240762 67.8249C0.372747 71.5982 6.61069 72.118 6.8382 68.7932C7.28386 62.2812 5.59333 52.992 10.3878 54.5284C13.0956 55.3958 17.9524 62.6278 29.9992 62.3141C47.0172 61.8707 62.0202 13.6149 39.9212 9.082C32.2281 7.50415 21.9111 14.723 21.9111 14.723C13.7311 15.6848 13.7331 11.0172 13.2899 2.27054C13.2465 1.41372 13.1421 0.658445 12.9897 0ZM11.1092 49.7715H42.0158C39.9604 54.0713 35.6693 59.8611 28.0926 59.7229C21.0327 59.5941 15.509 56.9021 11.1092 49.7715Z" fill="white"/>
</svg>
