<svg width="69" height="69" viewBox="0 0 69 69" fill="none" xmlns="http://www.w3.org/2000/svg">
<path d="M32.3365 66.9402C32.2815 62.9674 30.6591 59.1759 27.8205 56.3859C24.9819 53.5959 21.1552 52.0317 17.1683 52.0317C13.1813 52.0317 9.3546 53.5959 6.51598 56.3859C3.67737 59.1759 2.05506 62.9674 2 66.9402M54.0017 15.1154V49.6663M17.1697 47.8642C19.8516 47.8642 22.4237 46.8025 24.3201 44.9126C26.2165 43.0228 27.2819 40.4596 27.2819 37.787C27.2819 35.1143 26.2165 32.5512 24.3201 30.6613C22.4237 28.7715 19.8516 27.7098 17.1697 27.7098C14.4878 27.7098 11.9157 28.7715 10.0193 30.6613C8.12292 32.5512 7.05753 35.1143 7.05753 37.787C7.05753 40.4596 8.12292 43.0228 10.0193 44.9126C11.9157 46.8025 14.4878 47.8642 17.1697 47.8642ZM62.6672 44.3898V10.7962C62.6883 9.64873 62.4797 8.50855 62.0535 7.4423C61.6274 6.37605 60.9924 5.40511 60.1855 4.58619C59.3786 3.76727 58.4161 3.11679 57.3541 2.67274C56.2921 2.2287 55.152 2 54.0003 2C52.8486 2 51.7085 2.2287 50.6465 2.67274C49.5845 3.11679 48.6219 3.76727 47.8151 4.58619C47.0082 5.40511 46.3731 6.37605 45.947 7.4423C45.5209 8.50855 45.3123 9.64873 45.3333 10.7962V44.3898C43.3711 46.1389 41.9881 48.4406 41.3672 50.9902C40.7464 53.5398 40.917 56.2172 41.8564 58.6681C42.7959 61.119 44.46 63.2278 46.6284 64.7156C48.7969 66.2034 51.3676 67 54.0003 67C56.633 67 59.2037 66.2034 61.3721 64.7156C63.5406 63.2278 65.2047 61.119 66.1441 58.6681C67.0836 56.2172 67.2542 53.5398 66.6334 50.9902C66.0125 48.4406 64.6295 46.1389 62.6672 44.3898Z" stroke="white" stroke-width="4" stroke-linecap="round" stroke-linejoin="round"/>
<path d="M5.60762 22.3116C4.94319 21.6502 4.41609 20.8648 4.05646 20.0002C3.69683 19.1356 3.51172 18.2089 3.51172 17.273C3.51172 16.3371 3.69683 15.4104 4.05646 14.5458C4.41609 13.6813 4.94319 12.8958 5.60762 12.2344C6.94811 10.8979 7.70113 9.08551 7.70113 7.19583C7.70113 5.30614 6.94811 3.49379 5.60762 2.15723M16.3737 22.3116C15.7093 21.6502 15.1821 20.8648 14.8225 20.0002C14.4629 19.1356 14.2778 18.2089 14.2778 17.273C14.2778 16.3371 14.4629 15.4104 14.8225 14.5458C15.1821 13.6813 15.7093 12.8958 16.3737 12.2344C17.7142 10.8979 18.4672 9.08551 18.4672 7.19583C18.4672 5.30614 17.7142 3.49379 16.3737 2.15723M27.9325 22.3116C27.2681 21.6502 26.741 20.8648 26.3814 20.0002C26.0217 19.1356 25.8366 18.2089 25.8366 17.273C25.8366 16.3371 26.0217 15.4104 26.3814 14.5458C26.741 13.6813 27.2681 12.8958 27.9325 12.2344C29.2723 10.8975 30.0248 9.08528 30.0248 7.19583C30.0248 5.30637 29.2723 3.49417 27.9325 2.15723M54.0014 58.3012C54.5798 58.3161 55.1553 58.2154 55.6941 58.0051C56.2328 57.7949 56.7239 57.4792 57.1383 57.0768C57.5526 56.6744 57.882 56.1933 58.1068 55.6621C58.3317 55.1308 58.4476 54.56 58.4476 53.9834C58.4476 53.4068 58.3317 52.8361 58.1068 52.3048C57.882 51.7735 57.5526 51.2925 57.1383 50.8901C56.7239 50.4877 56.2328 50.172 55.6941 49.9617C55.1553 49.7514 54.5798 49.6508 54.0014 49.6657C52.8716 49.6948 51.798 50.1624 51.0093 50.969C50.2206 51.7756 49.7792 52.8572 49.7792 53.9834C49.7792 55.1096 50.2206 56.1913 51.0093 56.9979C51.798 57.8044 52.8716 58.2721 54.0014 58.3012Z" stroke="white" stroke-width="4" stroke-linecap="round" stroke-linejoin="round"/>
</svg>