<svg width="65" height="65" viewBox="0 0 65 65" fill="none" xmlns="http://www.w3.org/2000/svg">
<path d="M29.25 22.75H35.75V16.25H29.25M32.5 58.5C18.1675 58.5 6.5 46.8325 6.5 32.5C6.5 18.1675 18.1675 6.5 32.5 6.5C46.8325 6.5 58.5 18.1675 58.5 32.5C58.5 46.8325 46.8325 58.5 32.5 58.5ZM32.5 0C28.232 0 24.0059 0.840638 20.0628 2.47392C16.1197 4.10719 12.5369 6.50113 9.51903 9.51903C3.4241 15.614 0 23.8805 0 32.5C0 41.1195 3.4241 49.386 9.51903 55.481C12.5369 58.4989 16.1197 60.8928 20.0628 62.5261C24.0059 64.1594 28.232 65 32.5 65C41.1195 65 49.386 61.5759 55.481 55.481C61.5759 49.386 65 41.1195 65 32.5C65 28.232 64.1594 24.0059 62.5261 20.0628C60.8928 16.1197 58.4989 12.5369 55.481 9.51903C52.4631 6.50113 48.8803 4.10719 44.9372 2.47392C40.9941 0.840638 36.768 0 32.5 0ZM29.25 48.75H35.75V29.25H29.25V48.75Z" fill="white"/>
</svg>
