<svg width="77" height="66" viewBox="0 0 77 66" fill="none" xmlns="http://www.w3.org/2000/svg">
<path d="M14.0711 46.4852C-9.24554 37.1427 -0.0446409 5.60613 16.1422 0.396599C22.8578 -1.76469 30.2645 5.40631 30.2194 9.85735C30.1979 11.7821 29.1527 13.66 28.0624 15.6154C26.633 18.1844 25.1264 20.8861 25.766 24.0118C26.8927 29.517 28.1547 38.8064 24.9032 43.2147C21.6516 47.6249 18.3829 48.2122 14.0711 46.4852ZM60.8569 0.396599C77.0437 5.60613 86.2468 37.1427 62.928 46.4852C58.6162 48.2142 55.3475 47.6249 52.0959 43.2147C48.8444 38.8064 50.1064 29.517 51.2332 24.0118C51.8727 20.8861 50.3661 18.1824 48.9367 15.6154C47.8464 13.66 46.8012 11.7821 46.7819 9.85735C46.7346 5.40631 54.1434 -1.76469 60.8569 0.396599ZM48.5611 30.2286L48.7113 32.2614H48.7371L48.7435 32.2594C48.6217 32.2762 48.5013 32.3007 48.3829 32.3328C48.0195 32.4306 47.6762 32.5864 47.3678 32.7936C46.7454 33.2136 45.8311 34.1474 45.8311 36.5045V66H41.5386V36.5045C41.5386 32.9037 43.0624 30.6996 44.876 29.4701C45.8102 28.8421 46.8811 28.4219 48.0095 28.2406C48.1235 28.2234 48.238 28.2098 48.3529 28.1998L48.3872 28.1957H48.4109C48.4109 28.1937 48.4151 28.1937 48.5611 30.2286ZM28.438 30.2286C28.2921 32.2614 28.2899 32.2614 28.2878 32.2614H28.262L28.2556 32.2594L28.3071 32.2655C28.7835 32.3474 29.2354 32.5269 29.6313 32.7915C30.2537 33.2136 31.168 34.1474 31.168 36.5045V66H35.4605V36.5045C35.4605 32.9037 33.9367 30.6996 32.1209 29.4701C31.1868 28.842 30.1158 28.4218 28.9874 28.2406C28.8735 28.2234 28.759 28.2098 28.644 28.1998L28.6119 28.1957H28.5882C28.5882 28.1937 28.5861 28.1937 28.438 30.2286Z" fill="white"/>
</svg>