<svg width="46" height="38" viewBox="0 0 46 38" fill="none" xmlns="http://www.w3.org/2000/svg">
<path d="M39.3333 36.3974H6.66667C5.42899 36.3974 4.242 35.9553 3.36683 35.1685C2.49167 34.3817 2 33.3145 2 32.2018V13.3216C2 12.2088 2.49167 11.1417 3.36683 10.3548C4.242 9.56801 5.42899 9.12598 6.66667 9.12598H39.3333C40.571 9.12598 41.758 9.56801 42.6332 10.3548C43.5083 11.1417 44 12.2088 44 13.3216V32.2018C44 33.3145 43.5083 34.3817 42.6332 35.1685C41.758 35.9553 40.571 36.3974 39.3333 36.3974Z" stroke="#014E86" stroke-width="3"/>
<path d="M33.5007 23.8097C33.1912 23.8097 32.8945 23.6992 32.6757 23.5025C32.4569 23.3058 32.334 23.039 32.334 22.7608C32.334 22.4826 32.4569 22.2158 32.6757 22.0191C32.8945 21.8224 33.1912 21.7119 33.5007 21.7119C33.8101 21.7119 34.1068 21.8224 34.3256 22.0191C34.5444 22.2158 34.6673 22.4826 34.6673 22.7608C34.6673 23.039 34.5444 23.3058 34.3256 23.5025C34.1068 23.6992 33.8101 23.8097 33.5007 23.8097Z" fill="black" stroke="#014E86" stroke-width="3" stroke-linecap="round" stroke-linejoin="round"/>
<path d="M37 9.12505V6.19443C36.9998 5.55146 36.8352 4.91713 36.519 4.34043C36.2028 3.76373 35.7434 3.26009 35.1762 2.86839C34.6091 2.4767 33.9494 2.20744 33.2481 2.0814C32.5468 1.95536 31.8227 1.97592 31.1317 2.14148L5.465 8.29433C4.47112 8.53245 3.59259 9.0591 2.96598 9.79242C2.33936 10.5257 1.99977 11.4246 2 12.3494V13.3207" stroke="#014E86" stroke-width="3"/>
</svg>
