<svg width="20" height="21" viewBox="0 0 20 21" fill="none" xmlns="http://www.w3.org/2000/svg">
<path d="M4.11765 0.505859C4.74169 0.505859 5.34017 0.716573 5.78143 1.09165C6.22269 1.46672 6.47059 1.97543 6.47059 2.50586C6.47059 3.03629 6.22269 3.545 5.78143 3.92007C5.34017 4.29515 4.74169 4.50586 4.11765 4.50586C3.49361 4.50586 2.89513 4.29515 2.45387 3.92007C2.0126 3.545 1.76471 3.03629 1.76471 2.50586C1.76471 1.97543 2.0126 1.46672 2.45387 1.09165C2.89513 0.716573 3.49361 0.505859 4.11765 0.505859ZM2.35294 5.50586H5.88235C6.50639 5.50586 7.10487 5.71657 7.54613 6.09165C7.9874 6.46672 8.23529 6.97543 8.23529 7.50586V13.0059H6.47059V20.5059H1.76471V13.0059H0V7.50586C0 6.97543 0.247898 6.46672 0.68916 6.09165C1.13042 5.71657 1.7289 5.50586 2.35294 5.50586ZM14.7059 0.505859C15.3299 0.505859 15.9284 0.716573 16.3697 1.09165C16.8109 1.46672 17.0588 1.97543 17.0588 2.50586C17.0588 3.03629 16.8109 3.545 16.3697 3.92007C15.9284 4.29515 15.3299 4.50586 14.7059 4.50586C14.0818 4.50586 13.4834 4.29515 13.0421 3.92007C12.6008 3.545 12.3529 3.03629 12.3529 2.50586C12.3529 1.97543 12.6008 1.46672 13.0421 1.09165C13.4834 0.716573 14.0818 0.505859 14.7059 0.505859ZM12.9412 20.5059V14.5059H9.41177L12.4588 6.91586C12.7529 6.09586 13.6471 5.50586 14.7059 5.50586C15.7647 5.50586 16.6588 6.09586 16.9529 6.91586L20 14.5059H16.4706V20.5059H12.9412Z" fill="#6D6C6C"/>
</svg>
