<svg width="49" height="43" viewBox="0 0 49 43" fill="none" xmlns="http://www.w3.org/2000/svg">
<path d="M48.991 25.2452C48.9847 24.7231 48.8692 24.2077 48.6513 23.7297C48.4334 23.2517 48.1177 22.821 47.723 22.4634C46.1463 21.0265 43.5942 21.0782 42.0309 22.5912L39.5657 24.9812L39.4907 24.9089C38.9993 24.4358 38.3332 24.1703 37.6387 24.1706C36.9442 24.1709 36.2784 24.4371 35.7875 24.9107L34.7167 25.9438C34.5619 26.0931 34.439 26.2703 34.3553 26.4653C34.2715 26.6604 34.2284 26.8694 34.2285 27.0805C34.2286 27.2916 34.2719 27.5006 34.3559 27.6956C34.4398 27.8905 34.5629 28.0676 34.7179 28.2167L35.1311 28.6147L28.8956 34.6356C28.3319 35.176 27.9267 35.8507 27.7213 36.5911C27.516 37.3314 27.5177 38.111 27.7264 38.8505L26.7384 41.031C26.6251 41.279 26.5925 41.5543 26.6449 41.8206C26.6974 42.0869 26.8323 42.3316 27.032 42.5224C27.1853 42.673 27.3681 42.7928 27.5699 42.8748C27.7716 42.9568 27.9881 42.9995 28.2071 43.0003C28.4397 43.0006 28.6699 42.9544 28.8831 42.8646L31.0253 41.9572C31.7795 42.1341 32.5683 42.1205 33.3156 41.9177C34.0628 41.715 34.7431 41.3299 35.2909 40.7997L41.53 34.7777L41.9432 35.1768C42.098 35.3259 42.2818 35.4441 42.4841 35.5248C42.6863 35.6054 42.903 35.6468 43.1219 35.6467C43.3407 35.6466 43.5574 35.605 43.7596 35.5241C43.9618 35.4433 44.1454 35.3249 44.3001 35.1756L45.3709 34.1425C45.8606 33.6679 46.1354 33.0256 46.1351 32.3562C46.1347 31.6869 45.8593 31.0448 45.3691 30.5707L45.2905 30.4962L47.802 28.058C48.1866 27.6905 48.4901 27.2519 48.6944 26.7686C48.8987 26.2852 48.9996 25.7671 48.991 25.2452ZM34.2845 39.8238C33.8873 40.2069 33.3895 40.4785 32.8443 40.6095C32.2992 40.7405 31.7273 40.7261 31.19 40.5676C31.0265 40.5193 30.8503 40.5291 30.6937 40.5954L28.3135 41.6005C28.2727 41.6175 28.2278 41.6233 28.1838 41.617C28.1399 41.6107 28.0986 41.5927 28.0647 41.565L29.1491 39.1665C29.2205 39.0102 29.2285 38.8337 29.1714 38.672C28.9281 37.9884 28.9514 37.2427 29.237 36.5745L37.6623 36.5705L34.2845 39.8238ZM39.09 35.193L30.3362 35.1972L36.1458 29.5906L40.5236 33.8086L39.09 35.193ZM46.7957 27.0901L43.7761 30.0161C43.6428 30.1452 43.568 30.32 43.5681 30.5022C43.5682 30.6843 43.6431 30.859 43.7766 30.988L44.3578 31.5488C44.4685 31.6553 44.5564 31.7818 44.6163 31.921C44.6763 32.0603 44.7072 32.2096 44.7073 32.3604C44.7074 32.5111 44.6766 32.6605 44.6168 32.7998C44.5569 32.9391 44.4692 33.0657 44.3586 33.1723L43.2878 34.2054C43.2432 34.2482 43.1829 34.2722 43.12 34.2723C43.0571 34.2723 42.9968 34.2483 42.9521 34.2056L35.7244 27.2444C35.7023 27.2231 35.6847 27.1978 35.6727 27.17C35.6607 27.1421 35.6545 27.1123 35.6545 27.0821C35.6545 27.052 35.6606 27.0221 35.6726 26.9942C35.6846 26.9664 35.7021 26.9411 35.7242 26.9197L36.795 25.8866C37.0181 25.6714 37.3208 25.5504 37.6364 25.5503C37.9521 25.5501 38.2548 25.6708 38.4782 25.8858L39.0605 26.4466C39.1946 26.5752 39.3762 26.6474 39.5653 26.6471C39.6594 26.647 39.7525 26.629 39.8393 26.5941C39.9261 26.5592 40.0049 26.5081 40.0711 26.4438L43.0384 23.5637C44.058 22.5787 45.7173 22.5297 46.7367 23.4644C46.9917 23.6961 47.1958 23.9749 47.337 24.2841C47.4782 24.5933 47.5535 24.9267 47.5586 25.2644C47.5636 25.6022 47.4983 25.9376 47.3664 26.2506C47.2346 26.5636 47.0389 26.8479 46.7909 27.0866L46.7957 27.0901Z" fill="#014E86"/>
<path d="M40.0336 19.2626L22.1355 2L2 21.4204H6.47455V36.5252C6.47455 37.6697 6.94597 38.7675 7.78511 39.5768C8.62425 40.3861 9.76237 40.8408 10.9491 40.8408H22.1355" stroke="#014E86" stroke-width="3" stroke-linecap="round" stroke-linejoin="round"/>
<path d="M15.4238 40.8407V27.8938C15.4238 26.7492 15.8953 25.6515 16.7344 24.8421C17.5735 24.0328 18.7117 23.5781 19.8984 23.5781H24.3729C25.1 23.5781 25.7846 23.7443 26.3909 24.0421" stroke="#014E86" stroke-width="3" stroke-linecap="round" stroke-linejoin="round"/>
</svg>