<svg width="25" height="27" viewBox="0 0 25 27" fill="none" xmlns="http://www.w3.org/2000/svg">
<g id="search 2" clip-path="url(#clip0_90_58)">
<g id="Vector">
<path d="M14.0665 23.378C8.02807 23.378 3.13293 18.146 3.13293 11.6919C3.13293 5.23782 8.02802 0.00585938 14.0665 0.00585938C20.1049 0.00585938 25 5.23788 25 11.692C25 18.1461 20.1049 23.378 14.0665 23.378ZM14.0665 3.34476C9.7533 3.34476 6.25682 7.08191 6.25682 11.692C6.25682 16.302 9.7533 20.0392 14.0665 20.0392C18.3796 20.0392 21.8761 16.302 21.8761 11.692C21.8761 7.08191 18.3796 3.34476 14.0665 3.34476Z" fill="#014E86"/>
<path d="M1.57099 26.7169C1.15581 26.7195 0.756779 26.5453 0.462027 26.2328C-0.150465 25.5835 -0.154503 24.5265 0.452982 23.8719C0.455997 23.8686 0.459012 23.8654 0.462027 23.8622L6.33488 17.5851C6.96891 16.9305 7.97941 16.9492 8.5919 17.6268C9.20439 18.3045 9.1869 19.3845 8.55287 20.0392L2.67996 26.2328C2.38521 26.5453 1.98618 26.7195 1.57099 26.7169Z" fill="#014E86"/>
</g>
</g>
<defs>
<clipPath id="clip0_90_58">
<rect width="25" height="26.7208" fill="white"/>
</clipPath>
</defs>
</svg>
