<svg width="20" height="22" viewBox="0 0 20 22" fill="none" xmlns="http://www.w3.org/2000/svg">
<g clip-path="url(#clip0_657_331)">
<path d="M11.2532 18.7016C6.42246 18.7016 2.50635 14.516 2.50635 9.35275C2.50635 4.18948 6.42241 0.00390625 11.2532 0.00390625C16.0839 0.00390625 20 4.18952 20 9.35279C20 14.5161 16.0839 18.7016 11.2532 18.7016ZM11.2532 2.67503C7.80264 2.67503 5.00545 5.66475 5.00545 9.35279C5.00545 13.0408 7.80264 16.0306 11.2532 16.0306C14.7037 16.0306 17.5009 13.0408 17.5009 9.35279C17.5009 5.66475 14.7037 2.67503 11.2532 2.67503Z" fill="#014E86"/>
<path d="M1.25679 21.3728C0.924648 21.3748 0.605423 21.2355 0.369621 20.9854C-0.120372 20.466 -0.123602 19.6204 0.362386 19.0967C0.364798 19.0941 0.367209 19.0916 0.369621 19.089L5.06791 14.0673C5.57513 13.5436 6.38353 13.5585 6.87352 14.1007C7.36352 14.6428 7.34952 15.5069 6.8423 16.0306L2.14397 20.9854C1.90817 21.2355 1.58894 21.3748 1.25679 21.3728Z" fill="#014E86"/>
</g>
<defs>
<clipPath id="clip0_657_331">
<rect width="20" height="21.3766" fill="white"/>
</clipPath>
</defs>
</svg>
