<svg width="64" height="60" viewBox="0 0 64 60" fill="none" xmlns="http://www.w3.org/2000/svg">
<path fill-rule="evenodd" clip-rule="evenodd" d="M20.519 13.8124C17.9673 12.7788 15.1581 12.6478 12.5273 13.4396C9.89651 14.2315 7.59123 15.9019 5.96923 18.1917C4.34723 20.4815 3.49921 23.2627 3.55679 26.1035C3.61437 28.9444 4.57431 31.6861 6.28766 33.9032C8.001 36.1203 10.3719 37.6887 13.0325 38.3652C15.6931 39.0416 18.4945 38.7882 21.002 37.6443C23.5095 36.5004 25.583 34.5299 26.9005 32.0386C28.218 29.5474 28.706 26.6747 28.2886 23.8664C28.2531 23.6271 28.2635 23.3829 28.319 23.1477C28.3745 22.9126 28.4741 22.6911 28.6121 22.4958C28.7502 22.3006 28.9239 22.1355 29.1235 22.0099C29.323 21.8843 29.5445 21.8008 29.7752 21.764C30.0059 21.7272 30.2413 21.7379 30.468 21.7955C30.6947 21.853 30.9083 21.9564 31.0965 22.0996C31.2847 22.2428 31.4438 22.423 31.5649 22.63C31.686 22.837 31.7665 23.0667 31.802 23.306C32.338 26.9166 31.7101 30.6098 30.0158 33.8124C28.3215 37.0151 25.6555 39.5481 22.4316 41.0184C19.2076 42.4888 15.6059 42.8142 12.1854 41.9443C8.76491 41.0744 5.71684 39.0577 3.5142 36.2072C1.31155 33.3567 0.0775012 29.8317 0.00353035 26.1794C-0.0704405 22.527 1.01981 18.9514 3.1051 16.0075C5.19039 13.0635 8.15411 10.9158 11.5364 9.89765C14.9186 8.87947 18.5303 9.04773 21.811 10.3763C22.0314 10.4621 22.2331 10.5923 22.4045 10.7596C22.576 10.9269 22.7137 11.1278 22.8096 11.3507C22.9056 11.5737 22.9579 11.8141 22.9635 12.0582C22.9692 12.3023 22.928 12.545 22.8425 12.7725C22.7569 12.9999 22.6287 13.2074 22.4651 13.383C22.3016 13.5586 22.1061 13.6988 21.89 13.7954C21.6738 13.892 21.4413 13.943 21.206 13.9456C20.9706 13.9483 20.7371 13.9042 20.519 13.8124Z" fill="white"/>
<path fill-rule="evenodd" clip-rule="evenodd" d="M14.2168 57.1688V42.4215C14.2168 41.9326 14.404 41.4638 14.7373 41.118C15.0706 40.7723 15.5226 40.5781 15.9939 40.5781C16.4652 40.5781 16.9173 40.7723 17.2505 41.118C17.5838 41.4638 17.7711 41.9326 17.7711 42.4215V57.1688C17.7711 57.6577 17.5838 58.1266 17.2505 58.4723C16.9173 58.818 16.4652 59.0122 15.9939 59.0122C15.5226 59.0122 15.0706 58.818 14.7373 58.4723C14.404 58.1266 14.2168 57.6577 14.2168 57.1688Z" fill="white"/>
<path fill-rule="evenodd" clip-rule="evenodd" d="M8.88574 47.9518C8.88574 47.4629 9.07298 46.994 9.40625 46.6483C9.73953 46.3026 10.1915 46.1084 10.6629 46.1084H21.3256C21.797 46.1084 22.249 46.3026 22.5823 46.6483C22.9155 46.994 23.1028 47.4629 23.1028 47.9518C23.1028 48.4407 22.9155 48.9096 22.5823 49.2553C22.249 49.601 21.797 49.7952 21.3256 49.7952H10.6629C10.1915 49.7952 9.73953 49.601 9.40625 49.2553C9.07298 48.9096 8.88574 48.4407 8.88574 47.9518ZM40.6999 13.4119C38.7305 12.8352 36.6543 12.7713 34.6554 13.226C32.6565 13.6808 30.7966 14.64 29.2405 16.0187C27.6845 17.3973 26.4804 19.1529 25.7349 21.1298C24.9895 23.1067 24.7257 25.2438 24.967 27.3517C24.9958 27.5928 24.9784 27.8373 24.9159 28.0714C24.8533 28.3055 24.7467 28.5244 24.6023 28.7156C24.458 28.9068 24.2786 29.0665 24.0745 29.1855C23.8704 29.3046 23.6456 29.3806 23.4131 29.4093C23.1806 29.438 22.9449 29.4187 22.7196 29.3526C22.4943 29.2864 22.2838 29.1748 22.1002 29.024C21.9166 28.8732 21.7636 28.6863 21.6499 28.474C21.5362 28.2617 21.464 28.0281 21.4376 27.7868C21.0224 24.159 21.7732 20.4905 23.5734 17.3506C25.3736 14.2107 28.1226 11.7749 31.3938 10.4212C34.665 9.06754 38.2755 8.8717 41.6649 9.86408C45.0544 10.8565 48.0333 12.9816 50.1394 15.9096C52.2455 18.8377 53.361 22.4049 53.3129 26.0578C53.2647 29.7107 52.0555 33.245 49.873 36.1122C47.6905 38.9794 44.6566 41.0192 41.2423 41.915C37.8279 42.8109 34.2239 42.5127 30.9897 41.0667C30.7753 40.9709 30.5812 40.8323 30.4185 40.6588C30.2558 40.4853 30.1276 40.2802 30.0413 40.0552C29.867 39.601 29.8738 39.0935 30.0602 38.6445C30.2466 38.1954 30.5974 37.8415 31.0353 37.6607C31.4732 37.4799 31.9625 37.487 32.3954 37.6803C33.9589 38.3791 35.644 38.7376 37.3465 38.7335C39.049 38.7294 40.7325 38.3629 42.2929 37.6566C43.8533 36.9504 45.2573 35.9194 46.418 34.6275C47.5788 33.3356 48.4715 31.8104 49.041 30.1461C49.6105 28.4819 49.8446 26.7141 49.7289 24.9522C49.6131 23.1904 49.1499 21.4719 48.368 19.9032C47.5861 18.3345 46.5021 16.949 45.1831 15.8324C43.8641 14.7159 42.3382 13.892 40.6999 13.4119Z" fill="white"/>
<path fill-rule="evenodd" clip-rule="evenodd" d="M47.6141 16.9969C47.2809 16.6512 47.0938 16.1824 47.0938 15.6936C47.0938 15.2048 47.2809 14.736 47.6141 14.3903L60.9425 0.564724C61.1065 0.38866 61.3026 0.248224 61.5194 0.151613C61.7362 0.0550016 61.9694 0.00414968 62.2053 0.00202273C62.4413 -0.000104228 62.6753 0.0465376 62.8937 0.139226C63.1121 0.231914 63.3106 0.368793 63.4774 0.541875C63.6443 0.714958 63.7762 0.920777 63.8656 1.14733C63.9549 1.37387 63.9999 1.61661 63.9979 1.86138C63.9958 2.10614 63.9468 2.34804 63.8536 2.57294C63.7605 2.79784 63.6251 3.00125 63.4554 3.1713L50.1269 16.9969C49.7937 17.3424 49.3417 17.5366 48.8705 17.5366C48.3993 17.5366 47.9473 17.3424 47.6141 16.9969Z" fill="white"/>
<path fill-rule="evenodd" clip-rule="evenodd" d="M62.065 12.9278C61.8316 12.9247 61.6011 12.8739 61.3866 12.7784C61.1722 12.6828 60.978 12.5444 60.8151 12.371C60.6522 12.1976 60.5238 11.9926 60.4373 11.7677C60.3508 11.5429 60.3079 11.3025 60.3109 11.0604L60.3998 3.73474L53.3375 3.82691C52.8662 3.83327 52.4117 3.64515 52.0741 3.30394C51.7365 2.96272 51.5434 2.49637 51.5373 2.00747C51.5311 1.51857 51.7125 1.04717 52.0414 0.696966C52.3704 0.346766 52.82 0.146454 53.2913 0.140098L64.0003 0L63.8652 11.1084C63.8622 11.3505 63.8132 11.5896 63.7211 11.812C63.629 12.0345 63.4956 12.2359 63.3284 12.4049C63.1612 12.5738 62.9636 12.707 62.7468 12.7967C62.53 12.8864 62.2983 12.931 62.065 12.9278Z" fill="white"/>
</svg>
