<svg width="320" height="275" viewBox="0 0 320 275" fill="none" xmlns="http://www.w3.org/2000/svg">
<path d="M226.065 238.742H218.116V274.751H226.065V238.742Z" fill="#EBEBEB"/>
<path d="M293.633 238.742H285.685V274.751H293.633V238.742Z" fill="#EBEBEB"/>
<path d="M305.268 193.471H204.962V202.372H305.268V193.471Z" fill="#EBEBEB"/>
<path d="M301.272 239.194L211.067 239.385V202.379H301.272V239.194Z" fill="#EBEBEB"/>
<path d="M305.253 202.38C305.253 202.472 282.801 202.55 255.115 202.55C227.428 202.55 204.977 202.472 204.977 202.38C204.977 202.288 227.428 202.203 255.115 202.203C282.801 202.203 305.253 202.281 305.253 202.38Z" fill="#E0E0E0"/>
<path d="M300.94 239.386C300.94 239.478 280.9 239.556 256.177 239.556C231.455 239.556 211.399 239.478 211.399 239.386C211.399 239.294 231.44 239.209 256.177 239.209C280.915 239.209 300.94 239.287 300.94 239.386Z" fill="#E0E0E0"/>
<path d="M293.839 231.886C293.839 231.886 293.839 231.737 293.839 231.462C293.839 231.186 293.839 230.754 293.839 230.23C293.839 229.141 293.839 227.556 293.839 225.497C293.839 221.372 293.803 215.385 293.773 207.871L293.891 207.984L218.573 208.048L218.757 207.871C218.757 216.213 218.757 224.308 218.757 231.886L218.58 231.716L272.457 231.794L288.199 231.844H292.431H293.456H292.38H288.184L272.479 231.893L218.485 231.971H218.308V207.701H218.492L293.81 207.758H293.935V207.871C293.935 215.414 293.884 221.428 293.869 225.56C293.869 227.605 293.869 229.183 293.869 230.266C293.869 230.789 293.869 231.193 293.869 231.476C293.869 231.759 293.839 231.886 293.839 231.886Z" fill="#E0E0E0"/>
<path d="M221.493 228.737C221.155 229.337 220.713 229.878 220.188 230.336C219.746 230.871 219.215 231.332 218.617 231.702C218.953 231.101 219.395 230.56 219.922 230.103C220.362 229.567 220.893 229.105 221.493 228.737Z" fill="#E0E0E0"/>
<path d="M221.493 211.02C220.872 210.625 220.324 210.135 219.871 209.569C219.326 209.078 218.865 208.507 218.507 207.878C219.128 208.277 219.678 208.769 220.136 209.336C220.681 209.822 221.14 210.391 221.493 211.02Z" fill="#E0E0E0"/>
<path d="M293.972 207.948C293.532 208.592 292.975 209.155 292.328 209.611C291.765 210.153 291.136 210.628 290.455 211.026C290.889 210.379 291.444 209.816 292.092 209.363C292.657 208.82 293.288 208.345 293.972 207.948Z" fill="#E0E0E0"/>
<path d="M293.839 231.886C293.161 231.506 292.546 231.029 292.018 230.471C291.41 229.984 290.883 229.411 290.455 228.772C291.133 229.164 291.745 229.653 292.269 230.223C292.873 230.702 293.402 231.262 293.839 231.886Z" fill="#E0E0E0"/>
<path d="M290.455 228.737C290.455 228.737 290.455 228.631 290.455 228.426C290.455 228.221 290.455 227.916 290.455 227.527C290.455 226.72 290.455 225.56 290.455 224.046C290.455 221.017 290.418 216.602 290.396 211.019L290.507 211.126L221.552 211.196L221.729 211.019V228.709L221.552 228.539L270.761 228.617L285.242 228.666H289.143H290.16H290.514H290.182H289.187H285.323L270.879 228.716L221.552 228.794H221.375V228.624C221.375 222.963 221.375 216.998 221.375 210.934V210.765H221.567L290.522 210.828H290.632V210.934C290.632 216.546 290.588 220.982 290.573 224.025C290.573 225.525 290.573 226.685 290.573 227.478C290.573 227.86 290.573 228.15 290.573 228.362C290.573 228.574 290.455 228.737 290.455 228.737Z" fill="#E0E0E0"/>
<path d="M262.805 218.229C262.231 217.877 261.608 217.605 260.954 217.423C260.364 217.239 259.747 217.146 259.126 217.147H254.045C252.548 217.131 251.102 217.668 250.005 218.647C249.767 218.852 249.563 219.09 249.4 219.354C249.162 219.719 249.052 220.148 249.086 220.577C249.121 221.006 249.298 221.414 249.592 221.739C250.248 222.326 251.583 222.036 251.693 221.187C251.729 221.748 251.996 222.272 252.434 222.645C252.872 223.017 253.446 223.208 254.031 223.175C254.614 223.107 255.163 222.874 255.607 222.504C256.051 222.135 256.37 221.647 256.523 221.102C256.523 221.582 256.712 222.045 257.053 222.397C257.393 222.749 257.859 222.964 258.358 223C258.857 223.036 259.352 222.889 259.743 222.59C260.134 222.29 260.393 221.86 260.468 221.385C261.094 222.171 262.023 222.899 263.093 222.567C263.393 222.466 263.663 222.294 263.875 222.066C264.088 221.838 264.237 221.563 264.309 221.265C264.413 220.672 264.325 220.063 264.056 219.52C263.787 218.976 263.35 218.526 262.805 218.229Z" fill="#E0E0E0"/>
<path d="M254.953 217.127C254.171 217.64 253.469 218.257 252.867 218.959C252.356 219.723 251.961 220.552 251.694 221.422C251.65 221.422 251.621 221.103 251.694 220.594C251.841 219.93 252.133 219.303 252.549 218.754C252.966 218.205 253.499 217.747 254.113 217.41C254.607 217.155 254.939 217.084 254.953 217.127Z" fill="#EBEBEB"/>
<path d="M256.899 217.317C256.991 218.612 256.849 219.912 256.479 221.16C256.356 220.519 256.356 219.862 256.479 219.221C256.499 218.567 256.641 217.922 256.899 217.317Z" fill="#EBEBEB"/>
<path d="M259.347 217.273C259.347 217.238 259.634 217.337 259.929 217.655C260.316 218.08 260.571 218.599 260.667 219.156C260.755 219.695 260.755 220.244 260.667 220.783C260.608 221.186 260.541 221.434 260.49 221.434C260.438 221.434 260.423 221.172 260.416 220.769C260.421 220.25 260.384 219.732 260.305 219.219C260.223 218.715 260.032 218.233 259.745 217.804C259.538 217.479 259.31 217.316 259.347 217.273Z" fill="#EBEBEB"/>
<path d="M287.004 250.87H225.194V257.818H287.004V250.87Z" fill="#EBEBEB"/>
<path d="M271.461 184.458V193.409H231.373C230.76 193.409 230.154 193.293 229.588 193.068C229.022 192.843 228.508 192.513 228.075 192.097C227.642 191.681 227.299 191.187 227.065 190.643C226.832 190.1 226.712 189.518 226.713 188.93C226.713 187.744 227.204 186.606 228.078 185.768C228.952 184.929 230.137 184.458 231.373 184.458" fill="#E0E0E0"/>
<path d="M257.968 186.332H271.461V191.526H257.968C257.327 191.526 256.712 191.281 256.258 190.846C255.805 190.411 255.55 189.82 255.55 189.205V188.646C255.552 188.032 255.807 187.443 256.261 187.009C256.714 186.576 257.328 186.332 257.968 186.332Z" fill="#EBEBEB"/>
<path d="M271.461 175.513V184.456H231.373C230.137 184.456 228.952 183.985 228.078 183.147C227.204 182.308 226.713 181.171 226.713 179.985C226.713 178.799 227.204 177.661 228.078 176.822C228.952 175.984 230.137 175.513 231.373 175.513H271.461Z" fill="#EBEBEB"/>
<path d="M257.968 177.389H271.461V182.582H257.968C257.327 182.582 256.712 182.338 256.258 181.903C255.805 181.467 255.55 180.877 255.55 180.261V179.702C255.552 179.088 255.807 178.5 256.261 178.066C256.714 177.632 257.328 177.389 257.968 177.389Z" fill="#F5F5F5"/>
<path d="M242.507 161.163L236.144 175.513H240.243L243.067 167.85L242.507 161.163Z" fill="#E0E0E0"/>
<path d="M262.062 148.179L264.517 175.512H243.71L241.424 148.179H262.062Z" fill="#F5F5F5"/>
<path d="M260.026 150.344L262.179 173.242L246.563 173.44L244.454 150.21L260.026 150.344Z" fill="#FAFAFA"/>
<path d="M256.714 153.515L257.938 169.272H249.606L248.132 153.515H256.714Z" fill="#E0E0E0"/>
<path d="M226.102 4.01195C226.035 3.3539 225.962 2.70293 225.866 2.05196C225.77 1.40099 225.667 0.686348 225.549 0C225.667 0.707575 225.77 1.36562 225.866 2.05196C225.962 2.73831 226.035 3.3539 226.102 4.01195Z" fill="#263238"/>
<path d="M105.783 8.70215C105.783 9.05594 105.783 9.40973 105.783 9.74936C105.783 10.089 105.783 10.3154 105.783 10.5984C105.783 10.3154 105.783 10.0324 105.783 9.74936C105.783 9.46633 105.776 9.05594 105.783 8.70215Z" fill="#263238"/>
<g opacity="0.6">
<path d="M134.039 58.7904C134.4 59.0098 134.776 59.222 135.138 59.4343C134.769 59.222 134.4 59.0098 134.039 58.7904Z" fill="#263238"/>
</g>
<g opacity="0.6">
<path d="M105.777 10.5996C105.777 10.8826 105.777 11.1657 105.777 11.4416C105.785 11.1657 105.785 10.8826 105.777 10.5996Z" fill="#263238"/>
</g>
<path d="M289.348 194.177C283.567 185.686 284.408 173.566 291.317 165.874C293.455 163.49 296.478 161.424 299.722 161.693C302.966 161.961 305.761 164.721 306.778 167.792C307.796 170.863 307.442 174.16 306.845 177.358C306.012 181.802 304.633 186.344 301.396 189.642C298.159 192.939 293.47 196.328 289.348 194.163" fill="#8CC63E" fill-opacity="0.75"/>
<path d="M292.541 235.005C291.503 232.536 291.3 229.816 291.962 227.231C292.623 224.645 294.116 222.325 296.228 220.598C297.555 219.558 299.295 218.752 300.954 219.183C302.613 219.615 303.785 221.271 304.014 222.94C304.151 224.634 303.854 226.334 303.151 227.894C302.296 230.108 301.146 232.33 299.184 233.752C297.223 235.174 294.465 236.505 292.548 235.033" fill="#8CC63E" fill-opacity="0.75"/>
<path d="M278.598 232.117C279.307 228.326 278.759 224.417 277.03 220.941C275.301 217.466 272.479 214.598 268.962 212.743C266.75 211.647 264.044 210.996 261.824 212.036C259.605 213.076 258.462 215.786 258.639 218.22C258.816 220.654 260.04 222.904 261.382 224.97C263.269 227.871 265.585 230.687 268.799 232.145C272.014 233.603 276.327 234.721 278.598 232.088" fill="#8CC63E" fill-opacity="0.75"/>
<path d="M279.601 211.766C282.373 203.198 277.677 192.803 269.854 187.878C267.428 186.357 264.353 185.289 261.64 186.286C258.926 187.284 257.26 190.27 257.179 193.122C257.098 195.973 258.233 198.726 259.546 201.28C261.382 204.867 263.726 208.405 267.295 210.478C270.864 212.552 276.637 214.589 279.601 211.78" fill="#8CC63E" fill-opacity="0.75"/>
<path d="M285.16 253.678C285.117 253.542 285.087 253.402 285.072 253.26C285.02 252.949 284.961 252.553 284.887 252.065C284.85 251.803 284.806 251.513 284.762 251.201C284.718 250.89 284.629 250.543 284.555 250.182C284.408 249.475 284.26 248.612 284.01 247.706C283.892 247.253 283.774 246.772 283.648 246.291L283.184 244.762C282.882 243.701 282.447 242.597 282.034 241.423C280.085 236.379 277.42 231.616 274.115 227.271C273.326 226.295 272.64 225.332 271.851 224.505L270.782 223.288L269.742 222.205C269.094 221.497 268.452 220.924 267.892 220.401L267.154 219.693L266.469 219.113L265.532 218.306C265.42 218.213 265.317 218.112 265.223 218.002C265.351 218.073 265.472 218.156 265.584 218.25L266.565 219.007L267.302 219.566L268.098 220.273C268.673 220.776 269.33 221.349 269.993 222.042C270.332 222.389 270.686 222.75 271.062 223.111L272.154 224.328C272.928 225.148 273.628 226.104 274.454 227.087C277.801 231.431 280.476 236.217 282.395 241.295C282.801 242.477 283.236 243.588 283.523 244.663C283.678 245.194 283.825 245.711 283.973 246.206C284.12 246.701 284.201 247.189 284.305 247.621C284.541 248.541 284.673 249.383 284.799 250.119C284.865 250.487 284.924 250.826 284.976 251.145C285.027 251.463 285.042 251.753 285.072 252.022C285.116 252.51 285.153 252.914 285.182 253.225C285.195 253.376 285.188 253.528 285.16 253.678Z" fill="#263238"/>
<path d="M284.962 255.22C284.953 255.161 284.953 255.101 284.962 255.043C284.962 254.915 284.962 254.746 284.962 254.547C285.006 254.08 285.065 253.451 285.146 252.644C285.183 252.227 285.235 251.767 285.286 251.271C285.338 250.776 285.338 250.217 285.367 249.63C285.419 248.448 285.537 247.111 285.493 245.625C285.493 244.882 285.493 244.104 285.493 243.297C285.493 242.49 285.404 241.648 285.36 240.778C285.301 239.03 285.058 237.184 284.836 235.238C283.703 226.783 281.162 218.557 277.308 210.876C276.387 209.128 275.539 207.451 274.602 205.958C274.145 205.201 273.732 204.458 273.283 203.772C272.833 203.086 272.383 202.442 271.97 201.819C271.159 200.552 270.304 199.491 269.596 198.522C269.235 198.048 268.91 197.595 268.593 197.191C268.276 196.788 267.966 196.441 267.694 196.116L266.455 194.616L266.138 194.22L266.042 194.078C266.042 194.078 266.094 194.078 266.167 194.191L266.514 194.566L267.804 196.024L268.733 197.085C269.058 197.482 269.397 197.934 269.765 198.401C270.503 199.357 271.365 200.411 272.191 201.677L273.526 203.63C273.99 204.338 274.411 205.046 274.875 205.803C275.834 207.303 276.689 208.98 277.625 210.756C281.529 218.455 284.083 226.719 285.183 235.217C285.389 237.169 285.625 239.03 285.677 240.785C285.677 241.655 285.788 242.497 285.788 243.311C285.788 244.125 285.788 244.903 285.788 245.646C285.788 247.139 285.677 248.476 285.611 249.658C285.566 250.252 285.544 250.797 285.493 251.307C285.441 251.816 285.375 252.262 285.316 252.679C285.212 253.479 285.124 254.095 285.065 254.576C285.065 254.781 285.013 254.937 284.991 255.071C284.969 255.206 284.962 255.22 284.962 255.22Z" fill="#263238"/>
<path d="M300.01 171.953C300.01 171.953 300.01 172.01 299.937 172.116L299.686 172.562L298.698 174.253C298.491 174.621 298.233 175.024 297.961 175.477C297.688 175.93 297.459 176.432 297.223 176.97L296.331 178.682C296.029 179.298 295.741 179.956 295.424 180.649C295.107 181.343 294.768 182.064 294.443 182.814C294.119 183.564 293.817 184.378 293.485 185.206L292.984 186.465C292.826 186.899 292.671 187.338 292.519 187.782L291.546 190.541C290.322 194.341 289.164 198.579 288.176 203.079C287.188 207.58 286.554 211.917 286.082 215.901C285.61 219.884 285.345 223.436 285.264 226.451C285.183 227.958 285.168 229.316 285.161 230.512C285.153 231.708 285.161 232.741 285.161 233.583C285.161 234.425 285.161 235.048 285.161 235.522V236.031C285.172 236.087 285.172 236.145 285.161 236.201C285.151 236.145 285.151 236.087 285.161 236.031L285.124 235.529C285.124 235.055 285.065 234.404 285.028 233.59C284.991 232.776 284.954 231.715 284.954 230.512C284.954 229.309 284.954 227.951 284.998 226.443C285.05 223.422 285.338 219.835 285.736 215.865C286.134 211.896 286.864 207.551 287.815 203.03C288.766 198.508 289.961 194.249 291.244 190.428C291.583 189.487 291.914 188.567 292.232 187.668L292.703 186.352L293.22 185.093L294.208 182.701C294.532 181.937 294.893 181.222 295.21 180.536C295.527 179.85 295.83 179.185 296.139 178.576C296.449 177.968 296.773 177.401 297.061 176.871L297.865 175.385C298.123 174.932 298.388 174.536 298.602 174.175L299.656 172.512L299.937 172.088C299.956 172.04 299.981 171.995 300.01 171.953Z" fill="#263238"/>
<path d="M298.049 224.037C297.873 224.397 297.666 224.743 297.43 225.07C297.01 225.721 296.427 226.676 295.749 227.9C295.07 229.125 294.318 230.561 293.537 232.21C292.755 233.858 292.062 235.747 291.413 237.722C290.82 239.595 290.328 241.496 289.939 243.418C289.592 245.194 289.349 246.807 289.201 248.165C289.054 249.524 288.973 250.628 288.943 251.392C288.942 251.79 288.908 252.188 288.84 252.581C288.797 252.186 288.782 251.789 288.796 251.392C288.796 250.621 288.796 249.51 288.936 248.144C289.067 246.538 289.284 244.939 289.585 243.354C289.967 241.414 290.46 239.496 291.059 237.608C291.672 235.726 292.396 233.879 293.227 232.075C293.909 230.606 294.667 229.17 295.498 227.773C296.235 226.584 296.833 225.65 297.297 225.014C297.517 224.667 297.769 224.34 298.049 224.037Z" fill="#263238"/>
<path d="M273.806 249.856H299.207L296.132 274.749H276.969L273.806 249.856Z" fill="#455A64"/>
<path d="M274.734 272.068L276.887 274.75H296.132L298.351 272.153L274.734 272.068Z" fill="#263238"/>
<path d="M298.218 257.18C298.218 257.279 292.947 257.357 286.421 257.357C279.896 257.357 274.624 257.279 274.624 257.18C274.624 257.081 279.896 256.996 286.421 256.996C292.947 256.996 298.218 257.081 298.218 257.18Z" fill="#FAFAFA"/>
<path d="M298.218 258.836C298.218 258.935 292.947 259.02 286.421 259.02C279.896 259.02 274.624 258.935 274.624 258.836C274.624 258.737 279.896 258.652 286.421 258.652C292.947 258.652 298.218 258.737 298.218 258.836Z" fill="#FAFAFA"/>
<path d="M297.88 260.477C297.88 260.576 292.792 260.654 286.517 260.654C280.243 260.654 275.155 260.576 275.155 260.477C275.155 260.378 280.243 260.293 286.517 260.293C292.792 260.293 297.88 260.343 297.88 260.477Z" fill="#FAFAFA"/>
<path d="M294.183 79.3555H161.892C159.301 79.3555 156.816 80.3461 154.984 82.1094C153.151 83.8727 152.122 86.2643 152.122 88.758C152.123 91.2513 154.985 95.4052 154.985 95.4052L161.892 98.1606H294.183C295.466 98.1606 296.736 97.9174 297.921 97.4449C299.107 96.9723 300.184 96.2798 301.091 95.4066C301.998 94.5335 302.718 93.497 303.209 92.3562C303.7 91.2155 303.952 89.9928 303.952 88.758C303.952 86.2643 302.923 83.8727 301.091 82.1094C299.259 80.3461 296.774 79.3555 294.183 79.3555Z" fill="white"/>
<path d="M275.326 79.3555H294.445C296.966 79.3555 299.383 80.3191 301.165 82.0343C302.947 83.7495 303.948 86.0758 303.948 88.5015V88.9948C303.948 91.4205 302.947 93.7468 301.165 95.462C299.383 97.1773 296.966 98.1409 294.445 98.1409H275.326V79.3555Z" fill="#8CC63E" fill-opacity="0.75"/>
<path d="M288.151 91.3376C287.309 91.3376 286.485 91.0971 285.785 90.6467C285.084 90.1962 284.538 89.556 284.216 88.8069C283.893 88.0578 283.809 87.2336 283.973 86.4384C284.138 85.6431 284.543 84.9127 285.139 84.3394C285.735 83.7661 286.494 83.3756 287.32 83.2174C288.146 83.0593 289.003 83.1404 289.781 83.4507C290.559 83.761 291.225 84.2864 291.693 84.9606C292.161 85.6347 292.411 86.4273 292.411 87.2381C292.409 88.3249 291.96 89.3669 291.162 90.1354C290.363 90.9039 289.28 91.3362 288.151 91.3376ZM288.151 83.7405C287.432 83.7405 286.73 83.9456 286.132 84.33C285.534 84.7143 285.069 85.2605 284.794 85.8996C284.519 86.5387 284.447 87.242 284.587 87.9205C284.727 88.5989 285.073 89.2221 285.581 89.7113C286.09 90.2004 286.737 90.5335 287.442 90.6685C288.147 90.8035 288.878 90.7342 289.542 90.4695C290.206 90.2047 290.774 89.7564 291.173 89.1813C291.572 88.6061 291.785 87.9299 291.785 87.2381C291.784 86.3109 291.401 85.422 290.719 84.7664C290.038 84.1107 289.115 83.7418 288.151 83.7405Z" fill="white"/>
<path d="M294.548 93.9568C294.507 93.9569 294.466 93.9491 294.428 93.9338C294.39 93.9186 294.356 93.8962 294.327 93.868L292.459 92.0698L290.591 90.2717C290.539 90.2141 290.513 90.1401 290.516 90.0645C290.519 89.9888 290.552 89.9171 290.607 89.8635C290.663 89.81 290.737 89.7786 290.816 89.7756C290.895 89.7726 290.972 89.7983 291.031 89.8475L294.768 93.4437C294.825 93.5007 294.857 93.5767 294.857 93.6558C294.857 93.7349 294.825 93.811 294.768 93.868C294.71 93.9245 294.63 93.9564 294.548 93.9568Z" fill="white"/>
<path d="M169.882 88.5312C169.854 88.418 169.838 88.3022 169.836 88.1859C169.828 88.0484 169.811 87.9117 169.785 87.7764C169.756 87.5899 169.715 87.4053 169.662 87.2239C169.533 86.7261 169.326 86.2502 169.047 85.813C168.687 85.2383 168.215 84.7358 167.658 84.3331C166.98 83.8371 166.192 83.4993 165.356 83.3465C164.397 83.1717 163.407 83.2431 162.486 83.5537C161.989 83.7192 161.523 83.9571 161.102 84.2591C160.883 84.411 160.674 84.5758 160.476 84.7524C160.292 84.9422 160.121 85.1433 159.964 85.3542C159.268 86.2449 158.885 87.3259 158.871 88.4401C158.858 89.5544 159.213 90.6439 159.887 91.5503C160.045 91.7635 160.217 91.9677 160.399 92.162C160.591 92.3393 160.795 92.5041 161.009 92.6553C161.423 92.9668 161.885 93.2148 162.378 93.3903C163.291 93.7233 164.28 93.817 165.243 93.6617C166.084 93.525 166.879 93.2006 167.565 92.7145C168.135 92.3125 168.62 91.8104 168.995 91.2346C169.281 90.8006 169.499 90.3285 169.641 89.8335C169.7 89.6545 169.744 89.4715 169.774 89.286C169.806 89.1512 169.827 89.0143 169.836 88.8765C169.841 88.7613 169.86 88.6471 169.892 88.5361C169.905 88.6509 169.905 88.7666 169.892 88.8814C169.896 89.0202 169.885 89.1589 169.862 89.2958C169.84 89.4871 169.804 89.6767 169.754 89.8631C169.628 90.3844 169.419 90.8837 169.134 91.3431C168.763 91.9479 168.272 92.476 167.688 92.897C166.981 93.4167 166.155 93.7668 165.279 93.9182C164.272 94.0933 163.235 94.0047 162.275 93.6617C161.755 93.4785 161.266 93.2207 160.825 92.897C160.599 92.7301 160.383 92.5505 160.179 92.3593C159.98 92.1562 159.795 91.9403 159.625 91.7131C158.909 90.7592 158.53 89.6093 158.544 88.4327C158.558 87.256 158.964 86.1147 159.702 85.1767C159.871 84.9456 160.054 84.7248 160.251 84.5156C160.459 84.3279 160.68 84.1532 160.912 83.9927C161.358 83.6794 161.85 83.4332 162.373 83.2626C163.342 82.9433 164.383 82.8786 165.387 83.0751C166.258 83.2461 167.075 83.6129 167.77 84.1456C168.342 84.5815 168.819 85.1212 169.175 85.7341C169.451 86.1939 169.648 86.6937 169.759 87.214C169.806 87.4003 169.837 87.5901 169.851 87.7814C169.865 87.9208 169.865 88.0612 169.851 88.2007C169.874 88.3095 169.884 88.4203 169.882 88.5312Z" fill="#E0E0E0"/>
<path d="M168.719 85.1856C168.719 85.1856 168.632 85.2843 168.437 85.4273L168.084 85.6789C168.012 85.7282 167.935 85.7825 167.853 85.8318L167.581 85.9749C166.587 86.5355 165.453 86.8254 164.301 86.8135H163.788L163.311 86.7445L163.076 86.7099L162.855 86.6557C162.707 86.6211 162.558 86.5866 162.42 86.5471C161.931 86.394 161.46 86.1923 161.015 85.9453C160.592 85.7367 160.223 85.4401 159.934 85.0771C159.964 85.0475 160.38 85.3731 161.138 85.743C161.581 85.9552 162.043 86.1302 162.517 86.266L162.932 86.3597L163.147 86.409L163.373 86.4386L163.829 86.4978H164.306C165.409 86.5056 166.498 86.255 167.479 85.7677L167.756 85.6493L167.991 85.5211L168.371 85.3139C168.581 85.2201 168.704 85.1659 168.719 85.1856Z" fill="#E0E0E0"/>
<path d="M159.853 91.8412C159.853 91.8412 159.94 91.7376 160.134 91.5945L160.493 91.3429C160.56 91.2936 160.637 91.2393 160.719 91.19L160.99 91.0469C161.985 90.4871 163.119 90.1972 164.271 90.2083H164.784L165.265 90.2774L165.496 90.3119L165.722 90.3662L166.152 90.4747C166.641 90.6279 167.111 90.8296 167.557 91.0765C167.983 91.2776 168.358 91.5675 168.653 91.925C168.623 91.9546 168.213 91.6291 167.449 91.2591C167.005 91.0481 166.544 90.8732 166.07 90.7362L165.655 90.6424L165.44 90.5931L165.214 90.5635L164.758 90.5043H164.281C163.178 90.4971 162.089 90.7477 161.108 91.2344L160.832 91.3528L160.596 91.486L160.216 91.6932C159.991 91.8017 159.868 91.856 159.853 91.8412Z" fill="#E0E0E0"/>
<path d="M169.878 88.6592C169.878 88.7431 167.371 88.7776 164.286 88.7431C162.426 88.7672 160.566 88.6964 158.714 88.531C158.714 88.4471 161.22 88.4076 164.311 88.4422C167.402 88.4767 169.883 88.5754 169.878 88.6592Z" fill="#E0E0E0"/>
<path d="M164.096 93.853C164.009 93.853 163.973 91.4407 164.009 88.466C164.045 85.4914 164.142 83.084 164.229 83.084C164.358 84.8769 164.387 86.6751 164.316 88.471C164.281 91.4457 164.183 93.853 164.096 93.853Z" fill="#E0E0E0"/>
<path d="M164.095 93.8429C163.551 93.522 163.086 93.0911 162.732 92.58C162.308 92.0498 161.963 91.4653 161.707 90.8436C161.395 90.0766 161.237 89.2598 161.24 88.4362C161.258 87.6181 161.444 86.8115 161.789 86.0633C162.064 85.4528 162.422 84.8804 162.855 84.3614C163.223 83.8577 163.694 83.4314 164.239 83.1084C164.264 83.1429 163.726 83.6017 163.029 84.4847C162.634 85.0075 162.305 85.5739 162.05 86.1719C161.728 86.8962 161.554 87.6733 161.538 88.4609C161.535 89.2487 161.679 90.0307 161.963 90.7696C162.198 91.3757 162.511 91.9509 162.896 92.4814C163.567 93.3644 164.126 93.8084 164.095 93.8429Z" fill="#E0E0E0"/>
<path d="M164.352 83.1055C164.894 83.4313 165.359 83.8633 165.716 84.3733C166.141 84.9029 166.486 85.4874 166.741 86.1097C167.054 86.8763 167.21 87.6936 167.202 88.5171C167.203 89.3399 167.028 90.1541 166.69 90.9097C166.415 91.5217 166.056 92.0957 165.623 92.6166C165.256 93.1198 164.785 93.5447 164.24 93.8646C164.209 93.835 164.752 93.3713 165.449 92.4883C165.836 91.9593 166.156 91.388 166.403 90.7864C166.727 90.061 166.901 89.2819 166.915 88.4925C166.922 87.7047 166.779 86.9224 166.495 86.1837C166.26 85.5791 165.947 85.0056 165.562 84.4769C164.865 83.5643 164.322 83.1055 164.352 83.1055Z" fill="#E0E0E0"/>
<path d="M175.24 95.501C175.168 95.501 175.106 92.6348 175.106 89.0879C175.106 85.541 175.168 82.6748 175.24 82.6748C175.311 82.6748 175.373 85.541 175.373 89.0879C175.373 92.6348 175.317 95.501 175.24 95.501Z" fill="#E0E0E0"/>
<path d="M183.697 89.6362V91.94H183.138V89.6905C183.138 88.8518 182.687 88.4177 181.897 88.4177C181.7 88.4045 181.502 88.433 181.317 88.5011C181.133 88.5693 180.966 88.6754 180.828 88.8121C180.69 88.9488 180.585 89.1128 180.52 89.2927C180.455 89.4725 180.432 89.6638 180.452 89.8533V91.94H179.898V86.3359H180.452V88.6594C180.623 88.4225 180.854 88.2314 181.123 88.1045C181.392 87.9776 181.69 87.919 181.99 87.9343C182.224 87.915 182.46 87.9464 182.681 88.026C182.901 88.1056 183.1 88.2315 183.264 88.3945C183.427 88.5575 183.551 88.7535 183.626 88.9683C183.701 89.1831 183.725 89.4113 183.697 89.6362Z" fill="#263238"/>
<path d="M187.388 91.6964C187.142 91.8885 186.832 91.9884 186.516 91.9776C186.353 91.9946 186.189 91.9764 186.034 91.9242C185.88 91.8721 185.739 91.7873 185.623 91.6761C185.507 91.565 185.419 91.4302 185.364 91.2818C185.309 91.1333 185.289 90.975 185.306 90.8183V88.4158H184.568V87.962H185.306V87.0938H185.881V87.962H187.136V88.4158H185.881V90.7887C185.866 90.8837 185.874 90.9806 185.905 91.0721C185.935 91.1636 185.986 91.2474 186.055 91.3172C186.123 91.3869 186.207 91.4408 186.3 91.4749C186.394 91.509 186.494 91.5223 186.593 91.5138C186.817 91.5209 187.036 91.449 187.208 91.3116L187.388 91.6964Z" fill="#263238"/>
<path d="M190.494 91.6964C190.248 91.8885 189.939 91.9884 189.623 91.9776C189.46 91.9946 189.295 91.9764 189.141 91.9242C188.986 91.8721 188.846 91.7873 188.73 91.6761C188.614 91.565 188.525 91.4302 188.47 91.2818C188.416 91.1333 188.396 90.975 188.413 90.8183V88.4158H187.675V87.962H188.413V87.0938H188.956V87.962H190.212V88.4158H188.956V90.7887C188.942 90.8837 188.95 90.9806 188.98 91.0721C189.01 91.1636 189.062 91.2474 189.13 91.3172C189.199 91.3869 189.283 91.4408 189.376 91.4749C189.469 91.509 189.569 91.5223 189.669 91.5138C189.893 91.5209 190.111 91.449 190.284 91.3116L190.494 91.6964Z" fill="#263238"/>
<path d="M195.665 89.9518C195.68 90.2172 195.638 90.4828 195.541 90.7317C195.444 90.9806 195.294 91.2075 195.102 91.398C194.909 91.5885 194.678 91.7385 194.422 91.8385C194.166 91.9386 193.891 91.9865 193.615 91.9793C193.303 91.9912 192.993 91.9252 192.716 91.7877C192.438 91.6503 192.202 91.4461 192.031 91.195V93.405H191.478V87.9786H191.99V88.7679C192.157 88.5082 192.393 88.2956 192.673 88.1518C192.953 88.008 193.267 87.938 193.584 87.949C193.861 87.9378 194.136 87.982 194.394 88.0787C194.652 88.1754 194.886 88.3225 195.082 88.5108C195.277 88.699 195.43 88.9243 195.531 89.1723C195.631 89.4204 195.677 89.6858 195.665 89.9518ZM195.107 89.9518C195.093 89.6624 194.991 89.3834 194.813 89.1493C194.636 88.9151 194.391 88.7362 194.109 88.6347C193.827 88.5332 193.521 88.5136 193.227 88.5783C192.934 88.6429 192.667 88.7891 192.459 88.9985C192.251 89.208 192.111 89.4716 192.058 89.7566C192.004 90.0417 192.038 90.3356 192.156 90.602C192.275 90.8685 192.471 91.0956 192.722 91.2554C192.974 91.4152 193.268 91.5005 193.569 91.5008C193.777 91.501 193.983 91.4606 194.174 91.3819C194.366 91.3033 194.539 91.188 194.682 91.0432C194.826 90.8984 194.938 90.727 195.011 90.5394C195.084 90.3518 195.116 90.1519 195.107 89.9518Z" fill="#263238"/>
<path d="M196.445 88.3433C196.445 88.2902 196.455 88.2375 196.475 88.1881C196.496 88.1388 196.526 88.0938 196.565 88.0558C196.603 88.0178 196.649 87.9875 196.7 87.9665C196.751 87.9456 196.805 87.9345 196.861 87.9339C196.947 87.9309 197.032 87.9528 197.104 87.9967C197.177 88.0406 197.235 88.1046 197.27 88.1803C197.305 88.256 197.315 88.34 197.3 88.4215C197.284 88.5029 197.244 88.5781 197.184 88.6374C197.124 88.6966 197.047 88.7372 196.963 88.7539C196.878 88.7705 196.791 88.7625 196.711 88.7309C196.632 88.6992 196.564 88.6454 196.517 88.5763C196.469 88.5072 196.444 88.4261 196.445 88.3433ZM196.445 91.5646C196.444 91.5113 196.454 91.4583 196.474 91.4087C196.494 91.3591 196.525 91.3139 196.563 91.2757C196.602 91.2375 196.648 91.2072 196.699 91.1865C196.75 91.1658 196.805 91.1552 196.861 91.1552C196.917 91.1545 196.972 91.1647 197.024 91.185C197.076 91.2054 197.123 91.2355 197.163 91.2736C197.203 91.3118 197.234 91.3572 197.255 91.4072C197.276 91.4572 197.287 91.5107 197.286 91.5646C197.286 91.6737 197.241 91.7784 197.162 91.8559C197.082 91.9335 196.974 91.9777 196.861 91.979C196.749 91.9764 196.642 91.9315 196.565 91.8539C196.487 91.7763 196.444 91.6724 196.445 91.5646Z" fill="#263238"/>
<path d="M200.443 85.5703H200.956L198.367 92.6888H197.854L200.443 85.5703Z" fill="#263238"/>
<path d="M207.28 87.9639L205.717 91.94H205.204L203.897 88.6841L202.595 91.94H202.083L200.545 87.9639H201.057L202.354 91.3431L203.682 87.9639H204.159L205.481 91.3431L206.793 87.9639H207.28Z" fill="#263238"/>
<path d="M214.144 87.9639L212.606 91.94H212.094L210.787 88.6841L209.485 91.94H208.972L207.435 87.9639H207.947L209.244 91.3431L210.572 87.9639H210.997L212.319 91.3431L213.632 87.9639H214.144Z" fill="#263238"/>
<path d="M221.008 87.9639L219.444 91.94H218.932L217.63 88.6841L216.323 91.94H215.81L214.272 87.9639H214.785L216.082 91.3431L217.409 87.9639H217.891L219.198 91.3431L220.511 87.9639H221.008Z" fill="#263238"/>
<path d="M221.248 91.5637C221.247 91.5104 221.257 91.4574 221.277 91.4078C221.297 91.3582 221.327 91.313 221.366 91.2748C221.405 91.2366 221.451 91.2063 221.502 91.1856C221.553 91.1649 221.608 91.1543 221.663 91.1543C221.776 91.1543 221.884 91.1974 221.964 91.2742C222.044 91.351 222.089 91.4552 222.089 91.5637C222.089 91.6728 222.044 91.7775 221.965 91.855C221.885 91.9326 221.777 91.9768 221.663 91.9781C221.551 91.9755 221.445 91.9306 221.367 91.853C221.29 91.7754 221.247 91.6715 221.248 91.5637Z" fill="#263238"/>
<path d="M294.183 79.3553C294.183 79.3553 294.47 79.3553 295.024 79.3849C295.367 79.4112 295.709 79.454 296.049 79.5131C296.254 79.5427 296.464 79.6069 296.7 79.6611C296.95 79.7111 297.195 79.7821 297.433 79.8733C298.704 80.2943 299.871 80.9664 300.857 81.8465C301.166 82.1177 301.456 82.4094 301.723 82.7197C301.861 82.8775 301.984 83.0502 302.123 83.213L302.323 83.4745L302.502 83.7556C303.029 84.5494 303.422 85.4186 303.666 86.3307C304.268 88.491 304.052 90.7871 303.056 92.808C302.466 94.0026 301.624 95.0658 300.584 95.9297C299.543 96.7936 298.327 97.439 297.012 97.825C296.293 98.0279 295.552 98.1537 294.803 98.1999C294.034 98.2541 293.265 98.1999 292.486 98.2295H287.648H277.13L161.902 98.2689C159.788 98.2688 157.73 97.6176 156.028 96.4105C154.326 95.2035 153.07 93.5041 152.444 91.5608C151.818 89.6175 151.855 87.5324 152.548 85.6105C153.242 83.6886 154.557 82.0308 156.3 80.8796C157.425 80.1386 158.7 79.6344 160.042 79.3997C161.372 79.2286 162.715 79.1725 164.055 79.232H194.646L246.452 79.2616L281.379 79.301L246.452 79.3405L194.646 79.3701H164.055C162.732 79.3119 161.406 79.368 160.093 79.5378C158.783 79.7775 157.541 80.2819 156.448 81.0178C155.34 81.754 154.402 82.7045 153.696 83.8086C152.99 84.9128 152.531 86.1464 152.348 87.4308C152.164 88.742 152.273 90.076 152.668 91.3432C153.064 92.6104 153.736 93.7816 154.641 94.7781C155.545 95.7747 156.66 96.5736 157.912 97.1212C159.164 97.6688 160.522 97.9525 161.897 97.9532L277.124 97.9878H287.642H292.497C293.276 97.9878 294.034 98.0174 294.803 97.9878C295.541 97.942 296.271 97.8196 296.982 97.6227C299.392 96.9197 301.426 95.3451 302.656 93.2294C303.887 91.1137 304.217 88.6217 303.578 86.2765C303.336 85.3733 302.95 84.5114 302.435 83.7211L302.256 83.4449L302.061 83.1883C301.928 83.0157 301.8 82.8479 301.667 82.695C301.403 82.3942 301.121 82.1092 300.821 81.8416C299.844 80.9675 298.691 80.2958 297.433 79.8683C297.197 79.7764 296.953 79.7038 296.705 79.6513C296.469 79.597 296.259 79.5279 296.054 79.4983C295.649 79.4391 295.311 79.3652 295.029 79.3553C294.47 79.38 294.183 79.3553 294.183 79.3553Z" fill="#263238"/>
<path d="M33.5703 248.075L21.8173 274.821L13.5371 274.751L17.2237 248.054L33.5703 248.075Z" fill="#263238"/>
<path d="M78.5991 248.16L67.0009 274.786L58.7207 274.715L62.341 248.132L78.5991 248.16Z" fill="#263238"/>
<path d="M14.2445 87.6678C18.7938 81.1227 108.504 80.1675 112.346 86.9602L145.12 146.743L194.418 144.571C194.418 144.571 201.054 144.267 207.535 150.232C210.735 153.168 210.573 171.685 209.673 178.846C209.068 183.608 201.511 248.393 201.511 248.393L15.7708 248.033C15.7708 248.033 9.70259 94.1987 14.2445 87.6678Z" fill="#455A64"/>
<path d="M68.4459 249.731C68.4459 249.731 68.4459 249.54 68.4459 249.165C68.4459 248.79 68.4459 248.217 68.4976 247.495C68.5418 246.016 68.5934 243.858 68.6598 241.127C68.7851 235.572 68.9547 227.57 69.1685 217.777L69.0137 217.918L125.427 218.307L183.867 218.612L183.72 218.499C184.975 225.721 185.324 233.061 184.759 240.363C184.56 242.959 184.302 244.962 184.118 246.32C184.015 246.993 183.941 247.509 183.889 247.87C183.838 248.231 183.823 248.401 183.823 248.401C184.351 245.749 184.718 243.069 184.922 240.377C185.554 233.057 185.25 225.69 184.015 218.442V218.322H183.889L125.441 217.918L69.0358 217.621H68.881V217.763C68.7188 227.57 68.5934 235.565 68.5049 241.113C68.4681 243.879 68.4459 246.03 68.4238 247.481C68.4238 248.188 68.4238 248.761 68.4238 249.151C68.4238 249.54 68.4459 249.731 68.4459 249.731Z" fill="#263238"/>
<path d="M74.1384 149.39H73.7329C73.3608 149.383 72.9887 149.402 72.6195 149.447C71.1778 149.602 69.7809 150.022 68.5052 150.685C66.461 151.754 64.6962 153.254 63.3439 155.072C61.5363 157.532 60.3315 160.353 59.8195 163.322C59.2044 166.966 58.9575 170.658 59.0822 174.346C59.0822 178.344 59.2296 182.66 59.5098 187.246C60.0628 196.444 61.2425 206.647 62.5181 217.671V217.827H62.673L109.641 218.138L194.824 218.612H194.957V218.478C195.317 213.04 195.037 207.581 194.124 202.204C193.254 197.491 191.772 193.501 189.7 190.727C188.818 189.481 187.697 188.408 186.396 187.564L185.984 187.288L185.556 187.076L184.752 186.68C184.214 186.503 183.735 186.304 183.278 186.198L182.083 185.951C181.729 185.908 181.434 185.901 181.198 185.88H180.461C180.461 185.88 180.697 185.88 181.198 185.958C181.434 185.958 181.729 186 182.076 186.05L183.263 186.305C183.713 186.418 184.184 186.623 184.737 186.807L185.519 187.21L185.939 187.422L186.345 187.698C187.626 188.542 188.727 189.613 189.589 190.854C191.609 193.607 193.062 197.576 193.902 202.282C194.788 207.631 195.048 213.059 194.677 218.464L194.824 218.336L109.641 217.756L62.673 217.48L62.8573 217.636C61.567 206.605 60.3578 196.409 59.7826 187.21C59.4951 182.632 59.3402 178.323 59.3255 174.318C59.2093 170.646 59.4561 166.971 60.0628 163.344C60.5575 160.398 61.7369 157.598 63.5135 155.15C64.8426 153.359 66.5704 151.875 68.5716 150.805C69.8338 150.14 71.214 149.706 72.6416 149.525C73.6296 149.39 74.1458 149.44 74.1384 149.39Z" fill="#263238"/>
<path d="M198.783 248.401L201.474 274.751L193.194 274.68L182.827 248.365L198.783 248.401Z" fill="#263238"/>
<path d="M183.314 186.255C183.039 186.255 182.764 186.227 182.495 186.17L180.284 185.816C178.411 185.512 175.86 185.073 172.962 184.776C170.512 184.533 168.051 184.419 165.589 184.436H163.377C163.103 184.471 162.825 184.471 162.551 184.436C162.818 184.369 163.093 184.331 163.369 184.323C163.9 184.266 164.667 184.224 165.618 184.181C168.095 184.083 170.577 184.159 173.043 184.408C175.933 184.705 178.521 185.186 180.379 185.554C181.308 185.745 182.06 185.908 182.591 186.028C182.841 186.074 183.084 186.15 183.314 186.255Z" fill="#263238"/>
<path d="M196.402 144.698C196.402 144.734 195.805 144.988 194.758 145.547C193.279 146.345 191.905 147.309 190.666 148.42C188.828 150.078 187.253 151.985 185.991 154.081C184.445 156.637 183.278 159.387 182.526 162.253C180.962 168.381 181.051 174.162 181.162 178.273C181.22 180.346 181.309 182.016 181.353 183.169C181.353 183.721 181.39 184.16 181.405 184.506C181.423 184.662 181.423 184.818 181.405 184.973C181.365 184.821 181.342 184.664 181.338 184.506C181.302 184.167 181.265 183.728 181.213 183.183C181.117 182.03 180.992 180.353 180.896 178.287C180.8 176.221 180.741 173.744 180.896 170.999C181.012 168.009 181.434 165.037 182.157 162.126C182.916 159.225 184.105 156.444 185.689 153.868C186.982 151.762 188.597 149.854 190.481 148.208C191.75 147.095 193.162 146.144 194.684 145.378C195.208 145.094 195.665 144.953 195.952 144.819C196.099 144.769 196.25 144.729 196.402 144.698Z" fill="#263238"/>
<g opacity="0.3">
<path d="M99.3031 194.25C104.899 195.506 110.642 196.058 116.387 195.892C116.813 213.108 118.365 230.281 121.032 247.311C122.425 248.011 123.949 248.441 125.515 248.578C127.086 248.62 128.781 247.934 129.43 246.561C129.747 245.714 129.855 244.808 129.747 243.915C128.971 226.77 127.132 209.685 124.239 192.75C124.026 191.49 123.723 190.104 122.625 189.389C121.526 188.674 120.192 188.894 118.938 189.12C112.012 190.361 105.157 191.896 98.374 193.726" fill="black"/>
</g>
<g opacity="0.3">
<path d="M91.1182 192.813L92.8509 216.362C92.8509 216.362 98.6536 203.625 97.1642 198.75C96.7563 197.353 95.9887 196.077 94.9321 195.04C93.8755 194.003 92.564 193.237 91.1182 192.813Z" fill="black"/>
</g>
<path d="M89.6371 99.151L87.9118 43.4578L86.039 40.2524C84.3874 38.8373 81.7108 39.0991 79.9265 40.3303C78.1422 41.5615 77.0952 43.5568 76.38 45.5522C72.9293 55.1327 75.6426 65.6615 74.9053 75.7727C74.7505 77.9662 74.3892 80.2446 73.062 82.0347C71.2555 84.4688 67.9007 85.6646 66.5293 88.3392C65.942 89.5677 65.8248 90.9556 66.1984 92.2588C66.5719 93.562 67.4123 94.6971 68.5717 95.4645C66.8832 96.4127 65.1357 97.4033 64.0076 98.9387C62.8795 100.474 62.5772 102.731 63.8159 104.182C65.1652 105.753 67.6205 105.774 69.7145 105.597C75.6915 105.101 81.5949 103.986 87.3219 102.271C88.0614 102.122 88.7296 101.744 89.2242 101.196C89.5835 100.573 89.7281 99.8573 89.6371 99.151Z" fill="#263238"/>
<path d="M77.3232 89.563C77.9346 89.3349 78.4841 88.9768 78.9306 88.5158C79.8007 87.6242 80.4569 85.8977 80.6486 83.7255C81.0593 78.0212 81.0322 72.2956 80.5675 66.5951C80.2947 63.2554 79.8818 60.0854 79.4099 57.2197C78.938 54.3541 78.6726 51.6582 79.314 49.493C79.7611 47.7672 80.8259 46.247 82.3223 45.198C82.734 44.9331 83.1802 44.7214 83.6495 44.5683C83.8159 44.5183 83.986 44.4805 84.1583 44.4551C82.9911 44.841 81.9516 45.5172 81.1459 46.4148C80.3401 47.3123 79.7971 48.3989 79.5721 49.5638C78.9822 51.6865 79.2477 54.3116 79.7564 57.1631C80.2652 60.0147 80.6781 63.2129 80.9435 66.5668C81.4255 72.2865 81.4255 78.0341 80.9435 83.7538C80.7076 85.9544 79.9997 87.7162 79.0633 88.6148C78.7136 88.959 78.298 89.2352 77.8394 89.4285C77.6742 89.4948 77.5007 89.54 77.3232 89.563Z" fill="#455A64"/>
<path d="M90.5218 43.2102C90.3522 43.9886 90.92 42.5522 90.5218 43.2102V43.2102Z" fill="#8CC63E" fill-opacity="0.75"/>
<path d="M89.8726 40.0912C89.209 39.419 88.1694 39.702 87.4025 40.2327C86.037 41.2811 85.0135 42.6832 84.4532 44.273C83.8307 45.9731 83.4343 47.7419 83.2735 49.5373C83.1555 50.5774 83.1555 51.8299 83.856 52.4313C84.1059 52.6236 84.4167 52.7285 84.7371 52.7285C85.0575 52.7285 85.3683 52.6236 85.6182 52.4313C86.1666 52.0019 86.6182 51.4699 86.9454 50.8675C88.4394 48.4627 89.6464 45.904 90.5436 43.2399C90.691 42.4262 90.3887 40.6077 89.8726 40.0912Z" fill="#8CC63E" fill-opacity="0.75"/>
<path d="M84.4093 54.0153C85.8839 47.9797 88.5383 41.8096 93.7512 38.1373C98.3964 34.8754 105.172 33.6301 110.916 34.0405C113.748 34.2386 116.903 35.5971 119.322 37.0123C122.647 38.9581 123.952 42.7295 125.471 46.1612C128.509 53.0459 127.779 62.2161 125.471 64.6997L95.4323 78.7451C90.271 75.9714 84.7263 72.2354 83.5318 66.7163C82.7208 62.9237 83.4876 57.7655 84.4093 54.0153Z" fill="#263238"/>
<path d="M95.7859 43.3032L114.551 38.619C120.56 37.9752 124.615 45.058 125.036 50.853C125.508 57.292 125.817 65.1673 125.036 69.9575C123.509 79.6301 115.79 81.9297 115.79 81.9297C115.79 81.9297 115.79 90.3286 115.738 93.2014L106.986 118.787L94.5398 93.2014L92.6375 46.7915C92.6097 45.9369 92.9181 45.1034 93.5015 44.4571C94.0849 43.8107 94.9004 43.3988 95.7859 43.3032Z" fill="#FFBE9D"/>
<path d="M121.659 58.6498C121.663 58.9729 121.536 59.285 121.305 59.52C121.074 59.755 120.757 59.8946 120.42 59.9093C120.256 59.9228 120.09 59.9046 119.933 59.8558C119.776 59.807 119.63 59.7285 119.505 59.625C119.38 59.5215 119.278 59.395 119.205 59.2531C119.131 59.1111 119.088 58.9565 119.078 58.7984C119.074 58.4753 119.201 58.1632 119.432 57.9282C119.663 57.6932 119.981 57.5536 120.317 57.5389C120.481 57.5264 120.647 57.5453 120.803 57.5945C120.96 57.6436 121.105 57.7222 121.23 57.8255C121.354 57.9288 121.457 58.0549 121.53 58.1964C121.604 58.3379 121.648 58.492 121.659 58.6498Z" fill="#263238"/>
<path d="M123.288 54.9636C123.126 55.1263 122.146 54.44 120.752 54.4471C119.359 54.4542 118.348 55.1547 118.201 54.9778C118.053 54.8009 118.282 54.6098 118.724 54.2702C119.325 53.8666 120.041 53.6493 120.774 53.6475C121.495 53.6436 122.199 53.8564 122.787 54.256C123.215 54.5744 123.362 54.8928 123.288 54.9636Z" fill="#263238"/>
<path d="M109.072 58.6498C109.078 58.9723 108.953 59.2843 108.723 59.5195C108.493 59.7548 108.177 59.8946 107.841 59.9093C107.676 59.9238 107.51 59.9063 107.353 59.8578C107.195 59.8094 107.05 59.731 106.924 59.6273C106.799 59.5236 106.697 59.3968 106.624 59.2544C106.551 59.112 106.508 58.9569 106.499 58.7984C106.495 58.4752 106.622 58.1632 106.853 57.9282C107.084 57.6932 107.401 57.5536 107.738 57.5389C107.902 57.5264 108.067 57.5453 108.223 57.5946C108.379 57.6439 108.524 57.7225 108.648 57.8259C108.772 57.9293 108.874 58.0554 108.946 58.1969C109.019 58.3383 109.062 58.4923 109.072 58.6498Z" fill="#263238"/>
<path d="M109.626 55.2822C109.472 55.4449 108.484 54.7515 107.097 54.7656C105.711 54.7798 104.694 55.4732 104.539 55.2892C104.384 55.1053 104.627 54.9284 105.07 54.617C105.665 54.2085 106.38 53.9906 107.112 53.9944C107.836 53.9861 108.544 54.1992 109.132 54.6029C109.56 54.9354 109.708 55.2256 109.626 55.2822Z" fill="#263238"/>
<path d="M114.743 65.1869C115.46 64.963 116.203 64.8275 116.955 64.7836C117.317 64.7411 117.649 64.6703 117.693 64.4368C117.72 64.086 117.635 63.7354 117.449 63.4321C117.11 62.6113 116.756 61.7481 116.38 60.8494C114.906 57.163 113.822 54.1346 113.977 54.078C114.131 54.0213 115.451 56.9649 116.926 60.6442C117.287 61.5499 117.663 62.4203 117.951 63.2481C118.178 63.6578 118.246 64.132 118.143 64.5854C118.094 64.7058 118.017 64.8135 117.917 64.8996C117.817 64.9857 117.697 65.0478 117.567 65.0807C117.371 65.1367 117.168 65.1653 116.963 65.1656C116.227 65.2621 115.481 65.2692 114.743 65.1869Z" fill="#263238"/>
<path d="M115.834 82.0221L115.775 84.4279C105.703 85.3973 102.318 78.6611 102.318 78.6611C106.412 80.9612 111.091 82.1247 115.834 82.0221Z" fill="#EB996E"/>
<path d="M110.171 67.6777C110.369 67.3795 110.641 67.1333 110.963 66.9616C111.285 66.7898 111.646 66.6979 112.014 66.6942C112.532 66.6527 113.052 66.7458 113.519 66.9637C113.986 67.1816 114.383 67.5162 114.669 67.9325C114.878 68.3185 114.923 68.7676 114.794 69.1849C114.698 69.3971 114.794 69.291 114.603 69.4396C114.031 70.0122 113.322 70.4421 112.538 70.692C112.114 70.7922 111.669 70.7697 111.258 70.6274C110.847 70.4852 110.49 70.2294 110.23 69.8924C110.009 69.5643 109.886 69.1838 109.876 68.7931C109.865 68.4023 109.968 68.0163 110.171 67.6777Z" fill="#EB996E"/>
<path d="M110.659 66.1075C110.887 66.1075 110.895 67.5227 112.2 68.5628C113.505 69.6029 115.097 69.4119 115.149 69.61C115.149 69.702 114.795 69.893 114.117 69.9143C113.233 69.9387 112.369 69.6574 111.684 69.1218C111.019 68.6127 110.59 67.873 110.489 67.0627C110.393 66.4613 110.556 66.1004 110.659 66.1075Z" fill="#263238"/>
<path d="M110.252 51.0363C110.112 51.3971 108.726 51.2344 107.097 51.4325C105.467 51.6306 104.147 52.0693 103.933 51.7439C103.838 51.5882 104.066 51.2485 104.59 50.8948C105.296 50.4585 106.097 50.1826 106.931 50.0882C107.766 49.9938 108.612 50.0833 109.404 50.3499C110.002 50.5693 110.311 50.8523 110.252 51.0363Z" fill="#263238"/>
<path d="M122.75 50.3277C122.506 50.632 121.548 50.3277 120.39 50.3277C119.233 50.3277 118.267 50.5471 118.046 50.2357C117.942 50.0801 118.097 49.7758 118.517 49.4857C119.087 49.138 119.751 48.9604 120.426 48.9755C121.101 48.9906 121.755 49.1977 122.307 49.5706C122.72 49.8961 122.853 50.2074 122.75 50.3277Z" fill="#263238"/>
<path d="M95.3508 58.5296C95.2107 58.473 89.7398 56.8031 89.7914 62.2019C89.843 67.6007 95.4762 66.4473 95.4835 66.2775C95.4909 66.1077 95.3508 58.5296 95.3508 58.5296Z" fill="#FFBE9D"/>
<path d="M93.751 64.2468C93.751 64.2468 93.6478 64.3176 93.4856 64.3883C93.2495 64.4819 92.9843 64.4819 92.7482 64.3883C92.3831 64.1713 92.0847 63.8648 91.8838 63.5005C91.683 63.1361 91.5869 62.727 91.6054 62.3151C91.59 61.8515 91.6806 61.3902 91.8708 60.9637C91.9248 60.7972 92.0201 60.6458 92.1485 60.5226C92.277 60.3993 92.4347 60.3079 92.6082 60.2561C92.7199 60.2286 92.8382 60.2389 92.9429 60.2853C93.0477 60.3317 93.1326 60.4113 93.1833 60.5108C93.2644 60.6594 93.2275 60.7726 93.257 60.7797C93.2865 60.7868 93.375 60.6877 93.3307 60.4613C93.3009 60.3286 93.2224 60.2105 93.1095 60.1287C92.9534 60.0164 92.7572 59.968 92.5639 59.9943C92.333 60.041 92.1184 60.1435 91.9403 60.2921C91.7623 60.4407 91.6267 60.6304 91.5464 60.8434C91.3134 61.3134 91.2022 61.8304 91.222 62.3505C91.2662 63.4331 91.8561 64.4732 92.6966 64.6643C92.8474 64.7057 93.006 64.7138 93.1605 64.6881C93.315 64.6624 93.4614 64.6034 93.5888 64.5157C93.7363 64.3813 93.7658 64.261 93.751 64.2468Z" fill="#EB996E"/>
<path d="M91.8931 66.0447C91.8931 66.0447 91.6497 66.2782 91.6792 66.7523C91.6856 66.8974 91.7245 67.0395 91.7932 67.1689C91.8619 67.2983 91.9588 67.412 92.0774 67.5023C92.2402 67.591 92.4214 67.6439 92.6081 67.6574C92.7947 67.6709 92.9822 67.6446 93.157 67.5803C93.3318 67.5161 93.4896 67.4155 93.6191 67.2858C93.7486 67.1561 93.8466 67.0005 93.906 66.8301C93.9641 66.5453 93.9088 66.2499 93.7511 66.0022C93.4709 65.5848 93.117 65.5494 93.117 65.5777C93.117 65.606 93.3825 65.7192 93.5742 66.0942C93.6892 66.3132 93.7154 66.5653 93.6479 66.8018C93.6014 66.9317 93.5239 67.0493 93.4214 67.1451C93.319 67.241 93.1945 67.3124 93.058 67.3537C92.9281 67.4139 92.7857 67.4451 92.6415 67.4451C92.4972 67.4451 92.3548 67.4139 92.2249 67.3537C92.1306 67.2848 92.0515 67.1987 91.992 67.1003C91.9325 67.002 91.8939 66.8933 91.8783 66.7806C91.8515 66.5356 91.8565 66.2885 91.8931 66.0447Z" fill="#E0E0E0"/>
<path d="M125.485 52.3809C124.634 50.8534 123.31 49.6173 121.696 48.843C120.132 47.9868 118.444 47.3642 116.888 46.5009C113.292 44.4777 110.602 41.2491 109.338 37.4369C110.745 36.7886 112.288 36.4608 113.849 36.4793C115.409 36.4977 116.944 36.8617 118.333 37.543C121.116 38.9477 123.312 41.2254 124.556 43.9961C125.781 46.7528 126.368 49.732 126.274 52.7276" fill="#263238"/>
<path d="M94.0614 41.8382C98.2125 38.0526 106.072 35.9582 111.484 37.7342C110.681 42.2769 107.112 47.3714 103.971 50.8597C100.83 54.3481 98.8982 60.504 92.0263 58.4166C91.5544 58.268 91.0088 58.6855 90.5517 58.4166C90.2144 58.1699 89.9793 57.8164 89.8881 57.419C89.0276 54.7044 88.9618 51.815 89.6979 49.0669C90.4339 46.3189 91.9435 43.8181 94.0614 41.8382Z" fill="#263238"/>
<path d="M91.6934 40.9823C91.6934 40.9823 91.6934 41.046 91.8113 41.1663C91.9293 41.2866 92.0178 41.4493 92.2021 41.6474C92.7062 42.2248 93.2777 42.7447 93.9053 43.197C94.8396 43.8698 95.8767 44.3997 96.98 44.7678C98.3324 45.2265 99.7648 45.4284 101.198 45.3622C102.63 45.273 104.031 44.9224 105.327 44.3291C106.38 43.8438 107.35 43.2067 108.202 42.4399C108.773 41.9252 109.283 41.3508 109.721 40.7276C109.883 40.5082 109.972 40.3243 110.053 40.204C110.093 40.1419 110.125 40.0753 110.149 40.0059C109.54 40.8394 108.844 41.6101 108.069 42.3055C107.221 43.0435 106.262 43.6542 105.223 44.1169C102.668 45.2881 99.7347 45.4432 97.0611 44.5485C95.9732 44.1984 94.9465 43.6927 94.0159 43.0484C93.1699 42.4381 92.3916 41.7457 91.6934 40.9823Z" fill="white"/>
<path d="M88.9951 48.3274C89.0541 48.3933 89.1182 48.4548 89.1868 48.5113C89.3725 48.6815 89.5695 48.8399 89.7767 48.9854C90.5349 49.5341 91.3818 49.9595 92.2836 50.2449C93.6209 50.6791 95.0328 50.8617 96.4421 50.7827C98.1701 50.7003 99.8629 50.2839 101.419 49.5586C102.956 48.8083 104.362 47.8318 105.585 46.6646C106.578 45.7154 107.472 44.675 108.254 43.5583C108.791 42.8118 109.283 42.037 109.729 41.2375C109.891 40.9544 110.002 40.728 110.075 40.5794C110.123 40.5053 110.158 40.424 110.179 40.3389C110.122 40.4045 110.072 40.4757 110.031 40.5511L109.64 41.188C109.308 41.7399 108.807 42.5253 108.121 43.4593C107.322 44.5471 106.421 45.5631 105.43 46.4948C104.217 47.6338 102.829 48.5882 101.316 49.3251C99.7911 50.0371 98.1349 50.4531 96.4421 50.5492C95.0613 50.6295 93.6769 50.4665 92.3573 50.068C91.4654 49.8017 90.6203 49.4081 89.8504 48.9005C89.2901 48.5397 89.0172 48.3062 88.9951 48.3274Z" fill="#455A64"/>
<path d="M93.9279 77.8384C93.9279 77.8384 93.8173 77.8384 93.633 77.711C93.4486 77.5837 93.1611 77.4705 92.8145 77.2582C91.8313 76.6836 90.8969 76.0353 90.0201 75.3194C88.7055 74.2591 87.5405 73.0389 86.5546 71.6896C85.3559 70.0254 84.447 68.1853 83.8634 66.2413C82.8055 62.7029 82.7116 58.9632 83.5906 55.38C83.8578 54.3013 84.2179 53.2457 84.6671 52.2242C84.8219 51.8633 84.9694 51.5945 85.0652 51.4105C85.1056 51.3139 85.1603 51.2233 85.2274 51.1416C85.1141 51.5299 84.9737 51.9105 84.8072 52.2808C84.4151 53.3105 84.0972 54.365 83.856 55.4366C83.0667 58.9785 83.1958 62.6523 84.2321 66.1351C84.8024 68.0436 85.6833 69.8537 86.8422 71.4985C87.8037 72.8319 88.9302 74.0483 90.197 75.1213C91.0527 75.8459 91.9539 76.5194 92.8957 77.1379C93.2547 77.3504 93.5995 77.5844 93.9279 77.8384Z" fill="#455A64"/>
<path d="M175.8 213.813L185.187 230.187C185.187 230.187 204.94 225.375 206.982 228.234L175.277 248.004L159.55 223.069L175.8 213.813Z" fill="#8CC63E" fill-opacity="0.75"/>
<g opacity="0.6">
<path d="M174.319 234.594C174.064 234.864 173.923 235.216 173.923 235.581C173.923 235.945 174.064 236.297 174.319 236.568C174.593 236.819 174.958 236.959 175.336 236.959C175.715 236.959 176.08 236.819 176.354 236.568C176.626 236.283 176.778 235.911 176.778 235.524C176.778 235.137 176.626 234.765 176.354 234.48C176.043 234.242 175.648 234.128 175.252 234.164C174.856 234.199 174.489 234.381 174.23 234.671" fill="white"/>
</g>
<g opacity="0.6">
<path d="M175.3 248.004L173.715 245.492L204.978 227.428C205.411 227.388 205.847 227.452 206.248 227.615C206.648 227.778 207 228.035 207.271 228.362L175.3 248.004Z" fill="white"/>
</g>
<path d="M185.615 229.728C185.703 229.884 184.958 230.436 184.479 231.341C184 232.247 183.993 233.16 183.808 233.181C183.624 233.202 183.314 232.19 183.904 231.058C184.494 229.926 185.563 229.572 185.615 229.728Z" fill="#263238"/>
<path d="M189.862 229.125C189.987 229.253 189.464 229.904 189.324 230.859C189.184 231.814 189.456 232.578 189.324 232.663C189.191 232.748 188.527 231.956 188.719 230.76C188.911 229.564 189.766 228.984 189.862 229.125Z" fill="#263238"/>
<path d="M194.227 231.928C194.102 232.041 193.409 231.404 193.298 230.343C193.188 229.281 193.719 228.517 193.866 228.609C194.013 228.701 193.829 229.402 193.932 230.279C194.036 231.156 194.375 231.821 194.227 231.928Z" fill="#263238"/>
<path d="M183.041 226.224C183.041 226.401 182.208 226.606 181.345 227.179C180.483 227.753 179.959 228.425 179.797 228.34C179.635 228.255 179.967 227.328 180.984 226.67C182.002 226.012 183.049 226.061 183.041 226.224Z" fill="#263238"/>
<g opacity="0.3">
<path d="M177.651 217.062L179.332 219.978L163.303 228.985L161.681 226.424L177.651 217.062Z" fill="black"/>
</g>
<path d="M181.088 222.977C181.088 223.041 180.557 223.493 179.458 223.904C178.809 224.137 178.133 224.296 177.445 224.378C177.038 224.408 176.629 224.413 176.221 224.392C175.972 224.401 175.724 224.372 175.484 224.307C175.313 224.26 175.163 224.159 175.059 224.02C174.955 223.882 174.902 223.714 174.909 223.543C174.921 223.391 174.969 223.244 175.051 223.114C175.133 222.984 175.246 222.874 175.381 222.793C175.589 222.676 175.812 222.585 176.044 222.524C176.442 222.41 176.849 222.327 177.261 222.276C177.957 222.201 178.661 222.23 179.348 222.361C180.512 222.602 181.124 223.019 181.088 223.069C181.051 223.118 180.387 222.892 179.274 222.779C178.63 222.716 177.981 222.732 177.342 222.828C176.967 222.887 176.597 222.975 176.236 223.09C175.838 223.196 175.543 223.366 175.55 223.557C175.55 223.635 175.55 223.656 175.69 223.713C175.863 223.759 176.042 223.781 176.221 223.776C176.604 223.798 176.988 223.798 177.371 223.776C178.024 223.725 178.671 223.616 179.303 223.451C179.885 223.252 180.482 223.094 181.088 222.977Z" fill="#263238"/>
<path d="M181.013 223.288C180.976 223.345 180.32 222.984 179.649 222.029C179.03 221.132 178.678 220.09 178.632 219.015C178.59 218.759 178.619 218.497 178.714 218.255C178.81 218.014 178.97 217.8 179.177 217.635C179.323 217.553 179.491 217.514 179.659 217.521C179.828 217.529 179.991 217.583 180.129 217.677C180.323 217.811 180.497 217.971 180.645 218.151C181.375 219.008 181.722 220.107 181.611 221.208C181.485 222.383 180.932 222.942 180.873 222.899C181.003 222.335 181.094 221.763 181.146 221.187C181.145 220.581 181.009 219.983 180.748 219.432C180.595 219.113 180.396 218.815 180.158 218.548C179.9 218.243 179.605 218.052 179.494 218.158C179.393 218.272 179.318 218.406 179.275 218.55C179.231 218.694 179.221 218.845 179.244 218.993C179.251 219.355 179.293 219.715 179.369 220.069C179.498 220.677 179.719 221.263 180.025 221.809C180.564 222.751 181.087 223.218 181.013 223.288Z" fill="#263238"/>
<path d="M147.097 245.62L146.132 264.286C146.132 264.286 166.275 270.053 165.951 274.631L128.045 274.581L128.229 245.323L147.097 245.62Z" fill="#8CC63E" fill-opacity="0.75"/>
<g opacity="0.6">
<path d="M134.475 262.536C134.109 262.638 133.796 262.865 133.594 263.174C133.393 263.484 133.318 263.854 133.384 264.213C133.473 264.568 133.702 264.875 134.022 265.071C134.342 265.268 134.729 265.338 135.102 265.268C135.489 265.159 135.82 264.916 136.032 264.587C136.244 264.258 136.323 263.866 136.252 263.485C136.116 263.125 135.841 262.831 135.483 262.663C135.125 262.495 134.713 262.468 134.335 262.586" fill="white"/>
</g>
<g opacity="0.6">
<path d="M128.044 274.56L127.992 271.511L164.165 271.893C164.165 271.893 165.95 273.11 165.95 274.61L128.044 274.56Z" fill="white"/>
</g>
<path d="M146.727 264.087C146.727 264.264 145.791 264.335 144.877 264.894C143.963 265.453 143.469 266.189 143.299 266.118C143.129 266.047 143.417 265.021 144.538 264.37C145.658 263.719 146.794 263.924 146.727 264.087Z" fill="#263238"/>
<path d="M150.688 265.715C150.732 265.885 149.95 266.175 149.287 266.918C148.623 267.661 148.461 268.446 148.277 268.439C148.092 268.432 147.989 267.427 148.8 266.522C149.611 265.616 150.688 265.545 150.688 265.715Z" fill="#263238"/>
<path d="M152.877 270.293C152.708 270.336 152.464 269.444 152.951 268.482C153.438 267.52 154.308 267.145 154.381 267.293C154.455 267.442 153.917 267.951 153.526 268.751C153.135 269.55 153.062 270.279 152.877 270.293Z" fill="#263238"/>
<path d="M146.477 259.813C146.396 259.969 145.556 259.714 144.509 259.771C143.462 259.828 142.651 260.132 142.555 259.976C142.459 259.821 143.255 259.205 144.479 259.155C145.703 259.106 146.573 259.672 146.477 259.813Z" fill="#263238"/>
<g opacity="0.3">
<path d="M146.44 258.815L146.219 262.53L128.081 262.077L128.103 259.077L146.44 258.815Z" fill="black"/>
</g>
<path d="M146.602 256.041C145.978 256.19 145.324 256.178 144.707 256.005C143.622 255.8 142.587 255.402 141.655 254.831C141.445 254.714 141.256 254.566 141.094 254.392C140.973 254.266 140.899 254.105 140.886 253.934C140.873 253.763 140.92 253.593 141.021 253.451C141.115 253.329 141.237 253.23 141.378 253.162C141.519 253.093 141.674 253.056 141.832 253.055C142.081 253.057 142.33 253.093 142.569 253.161C142.972 253.26 143.365 253.395 143.741 253.564C144.376 253.848 144.96 254.225 145.474 254.682C146.337 255.475 146.624 256.14 146.565 256.175C146.506 256.21 146.064 255.673 145.179 255.015C144.664 254.638 144.101 254.324 143.505 254.081C143.154 253.941 142.792 253.83 142.422 253.748C142.023 253.642 141.684 253.635 141.574 253.805C141.463 253.975 141.537 253.897 141.618 254.01C141.74 254.132 141.879 254.237 142.031 254.321C142.349 254.531 142.682 254.72 143.026 254.887C143.606 255.178 144.213 255.415 144.84 255.595C145.438 255.702 146.027 255.851 146.602 256.041Z" fill="#263238"/>
<path d="M146.352 256.291C146.005 255.769 145.84 255.154 145.88 254.536C145.859 253.863 145.956 253.191 146.167 252.548C146.294 252.167 146.462 251.799 146.669 251.451C146.773 251.213 146.94 251.006 147.154 250.848C147.367 250.691 147.619 250.589 147.885 250.553C148.053 250.559 148.216 250.61 148.354 250.702C148.493 250.793 148.601 250.921 148.667 251.069C148.764 251.28 148.826 251.505 148.851 251.734C148.918 252.14 148.918 252.553 148.851 252.958C148.737 253.637 148.451 254.279 148.018 254.826C147.281 255.753 146.492 255.959 146.477 255.895C146.462 255.831 147.067 255.47 147.642 254.579C147.978 254.063 148.192 253.484 148.269 252.881C148.316 252.531 148.316 252.176 148.269 251.826C148.217 251.444 148.07 251.119 147.915 251.168C147.76 251.218 147.406 251.451 147.244 251.756C146.73 252.604 146.432 253.557 146.374 254.536C146.271 255.605 146.455 256.27 146.352 256.291Z" fill="#263238"/>
<path d="M92.1062 86.2168L94.2297 85.3535C93.5808 84.3629 98.6536 93.8444 105.54 93.9081C114.963 93.993 115.907 84.9785 115.907 84.9785L116.401 85.0422L131.885 100.446L133.927 143.608L132.246 149.148L98.9781 160.71L87.3725 138.542L86.3477 124.879L92.1062 86.2168Z" fill="#F5F5F5"/>
<path d="M93.1174 85.708C93.1174 85.708 74.2197 89.8332 71.1376 97.574C69.7809 100.992 69.3459 156.119 69.3459 156.119C69.3459 156.119 66.9939 161.164 67.1339 171.572C67.2814 181.549 74.1533 187.995 82.7358 189.863C82.7358 189.863 84.992 174.19 94.039 166.329C102.607 158.885 103.396 159.791 103.396 159.791L101.331 141.812L99.1856 126.16C97.0399 114.98 99.4584 102.853 95.4989 92.1328L93.1174 85.708Z" fill="#8CC63E" fill-opacity="0.75"/>
<path d="M133.013 96.697L145.902 151.102L132.047 148.081L127.623 115.434L116.254 85.0078C116.254 85.0078 118.164 85.2484 120.626 85.6163C123.61 86.0609 126.385 87.3547 128.594 89.3303C130.802 91.3059 132.342 93.8722 133.013 96.697Z" fill="#8CC63E" fill-opacity="0.75"/>
<g opacity="0.3">
<path d="M69.4788 165.487C69.4733 165.817 69.5549 166.144 69.7161 166.436C69.8772 166.728 70.1126 166.976 70.4004 167.157C70.9805 167.512 71.6352 167.739 72.3175 167.822C75.5101 168.36 78.7912 167.78 81.9027 166.832C85.414 165.655 88.8319 164.236 92.1295 162.586C97.0179 160.265 98.559 159.211 103.189 156.416C98.3967 158.298 96.8115 158.539 91.7534 159.643C84.2106 161.305 76.2696 162.126 69.4788 165.622" fill="black"/>
</g>
<path d="M97.209 144.931L105.637 143.19C105.637 143.19 115.325 138.004 117.5 138.011C119.454 138.011 127.189 141.379 128.708 142.044C128.877 142.116 129.017 142.241 129.106 142.398C129.207 142.558 129.274 142.736 129.302 142.922C129.331 143.107 129.321 143.296 129.273 143.478C129.225 143.659 129.14 143.83 129.023 143.98C128.905 144.13 128.758 144.256 128.59 144.351L128.45 144.428L128.545 144.619C128.676 144.865 128.758 145.131 128.789 145.405C128.808 145.613 128.758 145.821 128.645 145.999C128.532 146.177 128.362 146.316 128.161 146.395C127.96 146.475 127.738 146.49 127.527 146.439C127.316 146.388 127.128 146.274 126.99 146.112L127.329 146.523C127.47 146.686 127.557 146.885 127.579 147.096L127.624 147.506C127.65 147.73 127.605 147.956 127.494 148.154C127.383 148.353 127.213 148.514 127.004 148.617C126.806 148.715 126.582 148.756 126.36 148.736C126.138 148.716 125.927 148.635 125.751 148.504C124.711 147.705 122.477 146.134 121.15 146.134C119.723 146.189 118.301 146.34 116.896 146.587C116.609 146.636 116.344 146.766 116.134 146.96C115.924 147.154 115.778 147.403 115.716 147.676C116.49 147.605 122.293 149.445 124.35 150.103C124.667 150.198 124.956 150.366 125.191 150.591C125.426 150.817 125.6 151.094 125.699 151.398C125.862 151.95 125.699 152.594 124.453 152.516C121.927 152.205 119.429 151.718 116.977 151.058C116.977 151.058 114.529 150.79 113.194 152.049C111.314 153.818 110.429 154.504 108.505 154.207C107.334 154.025 106.189 153.716 105.091 153.287L102.038 153.846L97.209 144.931Z" fill="#FFBE9D"/>
<path d="M114.956 143.438C115.575 143.222 116.205 143.035 116.844 142.879C118.396 142.535 120.012 142.548 121.558 142.917C123.105 143.286 124.539 144 125.743 145.002C126.665 145.766 127.115 146.367 127.144 146.339C127.057 146.189 126.953 146.049 126.834 145.922C126.531 145.556 126.195 145.215 125.832 144.903C124.628 143.859 123.174 143.119 121.598 142.749C120.023 142.378 118.377 142.389 116.807 142.78C116.334 142.892 115.873 143.043 115.428 143.233C115.263 143.284 115.105 143.353 114.956 143.438Z" fill="#EB996E"/>
<path d="M115.634 140.899C116.255 140.605 116.912 140.387 117.588 140.248C119.241 139.981 120.938 140.168 122.484 140.786C124.024 141.424 125.47 142.254 126.783 143.255L127.992 144.147C128.133 144.266 128.286 144.37 128.449 144.458C128.326 144.324 128.19 144.2 128.044 144.09C127.771 143.864 127.373 143.538 126.864 143.149C125.564 142.107 124.114 141.251 122.558 140.609C120.979 139.974 119.24 139.801 117.559 140.113C117.047 140.217 116.551 140.383 116.084 140.609C115.915 140.687 115.804 140.771 115.723 140.814C115.642 140.856 115.627 140.899 115.634 140.899Z" fill="#EB996E"/>
<path d="M82.58 99.2645L78.3699 142.717H77.1754L96.2648 143.085L103.166 156.394C103.166 156.394 78.1413 168.076 67.4501 164.885C54.7681 161.064 58.3883 147.493 58.4842 142.695C58.4842 141.853 65.6141 101.486 72.4934 95.4365C72.4787 95.4082 81.5699 95.9884 82.58 99.2645Z" fill="#8CC63E" fill-opacity="0.75"/>
<path d="M83.1405 111.393C83.1448 111.786 83.1102 112.18 83.0373 112.567C82.9193 113.381 82.7645 114.449 82.5875 115.744C82.1599 118.482 81.5847 122.148 80.9506 126.195C80.3165 130.242 79.7341 133.978 79.3433 136.653C79.1516 137.941 78.9894 139.009 78.864 139.823C78.8292 140.216 78.7551 140.604 78.6428 140.983C78.6357 140.591 78.6603 140.198 78.7165 139.809C78.7829 139.052 78.9009 137.962 79.0631 136.618C79.3875 133.929 79.911 130.249 80.5377 126.138C81.1645 122.027 81.8207 118.355 82.2852 115.702C82.5212 114.421 82.7129 113.353 82.8603 112.546C82.9236 112.155 83.0173 111.77 83.1405 111.393Z" fill="#263238"/>
<path d="M81.6956 92.6777C81.6956 92.6777 81.8505 92.8263 82.0643 93.1306C82.3688 93.57 82.6375 94.0313 82.868 94.5104C83.2245 95.2131 83.5157 95.9448 83.738 96.6968C84.0107 97.6234 84.203 98.57 84.3132 99.5271C84.4974 101.251 84.4974 102.989 84.3132 104.714C84.282 105.431 84.1707 106.142 83.9814 106.836C83.9445 106.128 83.9617 105.419 84.033 104.714C84.1222 103.005 84.0753 101.292 83.8929 99.5907C83.7841 98.66 83.6067 97.7378 83.362 96.8312C83.1625 96.0934 82.9162 95.368 82.6247 94.6589C82.0864 93.4065 81.6367 92.7131 81.6956 92.6777Z" fill="#263238"/>
<path d="M67.4209 164.857C67.4818 164.846 67.5443 164.846 67.6052 164.857L68.1435 164.991C68.838 165.139 69.5427 165.238 70.2522 165.288C72.8663 165.38 75.4816 165.143 78.031 164.581C79.6532 164.248 81.4449 163.873 83.3324 163.47C85.22 163.067 87.1739 162.302 89.231 161.574C93.3379 160.088 97.8135 158.34 102.503 156.451L103.085 156.21L102.982 156.465L96.0956 143.148L96.2578 143.247C93.1831 143.247 90.3591 143.056 87.8743 142.986C85.3896 142.915 83.1776 142.844 81.3711 142.858C79.5647 142.872 78.1416 142.943 77.1684 143.042C76.1951 143.141 75.6937 143.226 75.6937 143.198C75.814 143.16 75.9373 143.132 76.0624 143.113C76.3131 143.063 76.6817 142.986 77.1684 142.929C78.5655 142.765 79.971 142.675 81.3785 142.66C83.1923 142.618 85.3822 142.66 87.8891 142.703C90.396 142.745 93.2126 142.894 96.2578 142.901H96.3684L96.42 142.993C98.4919 146.976 100.844 151.484 103.343 156.295L103.439 156.472L103.248 156.55L102.665 156.79C97.9905 158.687 93.5075 160.427 89.3932 161.892C87.3287 162.6 85.3601 163.307 83.4504 163.767C81.5407 164.227 79.7638 164.517 78.1269 164.836C75.5521 165.391 72.9086 165.596 70.2744 165.444C69.2974 165.39 68.3349 165.192 67.4209 164.857Z" fill="#263238"/>
<path d="M80.5759 142.83C80.5243 142.873 80.0966 142.406 79.2413 141.889C78.1146 141.235 76.8597 140.812 75.5547 140.644C74.2342 140.487 72.9014 140.446 71.5732 140.524C71.0165 140.575 70.4561 140.575 69.8994 140.524C70.4343 140.36 70.9899 140.267 71.551 140.248C72.8999 140.084 74.2648 140.084 75.6137 140.248C76.9826 140.417 78.2882 140.902 79.4183 141.663C79.8987 141.954 80.2964 142.355 80.5759 142.83Z" fill="#263238"/>
<g opacity="0.3">
<path d="M80.2512 142.773C77.5379 142.38 74.7676 142.571 72.1406 143.332C70.5332 143.806 68.9111 144.549 68.0115 145.914C67.7166 146.353 67.5396 146.983 67.9304 147.33C68.1261 147.457 68.3558 147.528 68.5923 147.535C68.8288 147.541 69.0623 147.482 69.265 147.365C70.1779 146.923 71.0299 146.374 71.8014 145.73C73.0751 144.756 74.488 143.963 75.9968 143.374C77.5138 142.791 79.1621 142.594 80.782 142.801" fill="black"/>
</g>
<g opacity="0.3">
<path d="M79.4103 141.84C78.8425 140.311 76.7485 138.882 75.3992 138.443C72.3246 137.439 68.7633 137.064 66.0647 138.755C65.9058 138.828 65.7671 138.936 65.6595 139.07C65.552 139.204 65.4786 139.36 65.4453 139.526C65.4453 139.993 65.9688 140.276 66.4407 140.403C68.3799 140.913 70.437 140.601 72.4425 140.403C74.4481 140.205 76.5937 140.191 78.3412 141.175" fill="black"/>
</g>
<g opacity="0.3">
<path d="M78.7754 139.929C82.9343 131.507 84.3723 122.084 82.9044 112.871L78.7754 139.929Z" fill="black"/>
</g>
<path d="M82.7506 189.89C82.7506 189.89 89.5782 194.235 103.138 194.235C116.697 194.235 119.809 193.336 119.809 193.336L132.513 182.263L160.384 229.104C160.384 229.104 182.504 215.943 182.644 216.368C182.909 216.622 161.999 171.996 157.442 164.276C155.913 161.751 154.188 159.341 152.281 157.066C150 154.237 146.929 152.088 143.427 150.867C139.924 149.645 136.132 149.403 132.491 150.167C128.56 150.955 124.688 151.993 120.9 153.273C110.784 156.811 102.209 159.217 94.8944 165.444C86.4077 172.64 81.2833 186.607 82.7506 189.89Z" fill="#263238"/>
<path d="M129.341 176.872C129.341 176.872 119.314 183.53 119.587 188.901C119.808 193.373 126.009 259.184 126.009 259.184L150.687 258.788L152.383 215.69L129.341 176.872Z" fill="#263238"/>
<path d="M154.366 218.992C154.321 218.943 154.284 218.888 154.255 218.829L153.96 218.348C153.688 217.895 153.319 217.265 152.854 216.473L148.858 209.531L135.8 186.564L130.639 177.365L130.83 177.457C129.018 177.684 127.278 178.288 125.734 179.228C124.191 180.168 122.88 181.421 121.894 182.898C121.065 184.162 120.499 185.567 120.228 187.038C120.004 188.306 119.913 189.594 119.955 190.88C120.021 193.222 120.25 195.125 120.309 196.378C120.346 197.021 120.36 197.524 120.36 197.856C120.374 198.026 120.374 198.196 120.36 198.366C120.325 198.198 120.305 198.028 120.301 197.856C120.301 197.496 120.235 197.007 120.191 196.392C120.088 195.104 119.83 193.25 119.726 190.88C119.662 189.578 119.738 188.274 119.955 186.988C120.221 185.482 120.789 184.04 121.629 182.743C122.63 181.212 123.971 179.911 125.554 178.933C127.138 177.955 128.927 177.323 130.794 177.082H130.919L130.978 177.195C132.607 180.061 134.362 183.167 136.183 186.394L149.138 209.411C150.768 212.34 152.088 214.725 153.024 216.409L154.064 218.319L154.322 218.822C154.344 218.928 154.373 218.985 154.366 218.992Z" fill="#455A64"/>
<path d="M133.743 167.92C132.542 169.25 131.645 170.807 131.108 172.489C130.571 174.172 130.406 175.944 130.624 177.692C130.408 177.203 130.293 176.679 130.285 176.149C130.087 173.575 130.9 171.023 132.563 168.995C132.881 168.567 133.281 168.202 133.743 167.92Z" fill="#455A64"/>
<path d="M128.552 166.102C128.619 166.102 128.42 166.809 128.272 167.863C128.081 169.276 128.121 170.708 128.39 172.109C128.667 173.506 129.164 174.854 129.865 176.107C130.418 177.069 130.853 177.614 130.801 177.649C130.326 177.248 129.929 176.769 129.629 176.234C128.016 173.719 127.427 170.72 127.977 167.814C128.069 167.217 128.264 166.638 128.552 166.102Z" fill="#455A64"/>
<path d="M109.317 135.876C109.258 135.833 110.054 135.005 110.976 133.505C111.535 132.63 112.027 131.717 112.45 130.774C112.957 129.617 113.363 128.422 113.667 127.201C113.955 125.974 114.14 124.727 114.22 123.472C114.273 122.445 114.248 121.417 114.146 120.394C113.976 118.639 113.674 117.563 113.748 117.563C113.858 117.79 113.942 118.027 113.999 118.271C114.089 118.559 114.161 118.852 114.212 119.148C114.279 119.495 114.375 119.891 114.419 120.337C114.56 121.371 114.609 122.415 114.566 123.458C114.513 124.734 114.337 126.004 114.043 127.25C113.733 128.494 113.308 129.708 112.775 130.88C112.333 131.834 111.808 132.75 111.204 133.618C110.976 133.956 110.73 134.282 110.467 134.595C110.284 134.843 110.085 135.08 109.87 135.302C109.714 135.517 109.528 135.71 109.317 135.876Z" fill="#263238"/>
<path d="M131.981 93.8457C131.981 93.8457 158.739 137.956 159.336 141.345C159.779 143.864 158.931 151.046 156.534 151.959C149.825 154.563 142.068 151.541 134.982 146.836L133.921 146.128L131.981 93.8457Z" fill="#8CC63E" fill-opacity="0.75"/>
<path d="M14.245 87.6674C14.245 87.6674 18.4404 85.3253 19.4063 91.8421C20.3722 98.3589 27.2884 146.141 27.2884 146.141L70.0902 145.752C70.0902 145.752 79.1372 145.427 85.2718 163.109C89.563 175.485 93.9427 217.592 93.9427 217.592L93.1317 248.06H15.7123C15.7123 248.06 13.3824 184.174 12.9842 155.757C12.586 127.341 11.7381 96.3989 14.245 87.6674Z" fill="#455A64"/>
<path d="M18.1084 87.2432C18.1084 87.2432 18.1821 87.3139 18.3443 87.4413C18.5709 87.6318 18.7805 87.8401 18.9711 88.064C19.7312 88.9335 20.1877 90.0101 20.2761 91.1419C20.6522 94.1137 21.1904 98.4087 21.8614 103.737C23.2402 114.442 25.1572 129.33 27.3176 146.142V146.312H27.4946L36.4236 146.135C46.0752 145.986 55.2771 145.922 63.631 146.135C65.7176 146.198 67.7526 146.283 69.7287 146.432L71.2033 146.552C71.6826 146.595 72.1545 146.672 72.6337 146.736C73.5598 146.812 74.4444 147.138 75.1849 147.677C76.6013 148.749 77.8265 150.035 78.8125 151.484C79.7698 152.808 80.6438 154.185 81.4301 155.609C83.825 159.931 85.7806 164.464 87.2697 169.145C87.6915 170.414 88.0217 171.71 88.2577 173.022C88.3163 173.364 88.3533 173.709 88.3683 174.056C88.3683 174.289 88.3683 174.409 88.3683 174.409C88.3869 174.292 88.3992 174.174 88.4052 174.056C88.4031 173.705 88.376 173.355 88.3241 173.008C88.1202 171.687 87.8146 170.381 87.4098 169.103C86.9084 167.426 86.2079 165.409 85.2789 163.102C84.2268 160.498 83.0205 157.954 81.666 155.482C80.877 154.046 80.0031 152.654 79.0485 151.314C78.0467 149.832 76.8017 148.516 75.3619 147.415L74.7572 147.04C74.5434 146.927 74.3148 146.842 74.101 146.736C73.8872 146.63 73.6291 146.595 73.3637 146.524C73.0983 146.453 72.8844 146.453 72.6264 146.418C72.1471 146.354 71.6605 146.269 71.1517 146.227L69.6771 146.099C67.701 145.944 65.6586 145.859 63.572 145.788C55.2033 145.54 46.0015 145.59 36.3425 145.738L27.4061 145.922L27.6052 146.092C25.3932 129.28 23.4245 114.4 22.0162 103.701C21.2789 98.3733 20.7185 94.0854 20.313 91.1207C20.2078 89.9691 19.7251 88.8792 18.9342 88.0073C18.6997 87.715 18.4214 87.4574 18.1084 87.2432Z" fill="#263238"/>
<path d="M74.1381 149.39C74.0457 149.411 73.9522 149.427 73.8579 149.439C73.6736 149.439 73.4008 149.51 73.0395 149.588C71.996 149.794 70.9779 150.105 70.0017 150.515C68.4426 151.139 67.0005 152.005 65.7326 153.076C64.9295 153.733 64.1892 154.458 63.5206 155.241L62.5473 156.6L62.2966 156.954L62.0902 157.343L61.6773 158.121C61.5372 158.39 61.3897 158.652 61.2496 158.928C61.1096 159.204 61.0284 159.501 60.9105 159.791C60.6966 160.378 60.4533 160.966 60.2543 161.588C59.893 162.891 59.6318 164.218 59.4727 165.558C59.399 166.265 59.2884 166.973 59.2441 167.68C59.1999 168.388 59.2441 169.138 59.2441 169.888C59.1925 171.374 59.3326 172.924 59.3768 174.501C59.6718 180.82 60.1142 187.754 60.7261 195.021C61.3971 203.229 62.1271 210.984 62.8496 217.798L62.6801 217.649L85.2718 217.833L91.6791 217.911L93.375 217.947H93.81H93.9575C93.9575 217.947 93.9059 217.947 93.81 217.947H93.375H91.6791H85.2718L62.6727 218.024H62.5178V217.876C61.7805 211.062 61.0432 203.3 60.3501 195.092C59.775 187.811 59.3031 180.87 59.0303 174.572C58.986 172.987 58.8533 171.452 58.9123 169.945C58.9123 169.195 58.9123 168.452 58.9123 167.723C58.9123 166.994 59.0745 166.308 59.1483 165.6C59.3151 164.245 59.5887 162.904 59.9667 161.588C60.1658 160.958 60.4238 160.364 60.6377 159.77C60.7556 159.473 60.8515 159.175 60.9842 158.892L61.4266 158.086L61.8543 157.293L62.0681 156.904C62.1492 156.784 62.2377 156.664 62.3261 156.55L63.3215 155.178C63.9913 154.389 64.7314 153.657 65.5335 152.991C66.8245 151.923 68.2923 151.069 69.8764 150.465C70.8761 150.042 71.9223 149.729 72.9953 149.531C73.3566 149.467 73.6367 149.439 73.8285 149.418C73.9308 149.401 74.0343 149.391 74.1381 149.39Z" fill="#263238"/>
<path d="M73.6663 248.45C73.5631 248.45 73.4746 241.827 73.4746 233.655C73.4746 225.483 73.5631 218.853 73.6663 218.853C73.7695 218.853 73.858 225.475 73.858 233.655C73.858 241.835 73.7769 248.45 73.6663 248.45Z" fill="#263238"/>
<path d="M169.865 119.607L126.311 123.385C126.114 123.402 125.927 123.475 125.773 123.595C125.619 123.715 125.506 123.876 125.449 124.058L115.76 153.889C115.715 154.032 115.636 154.163 115.528 154.272C115.421 154.38 115.288 154.462 115.141 154.512L98.4108 158.884C98.1633 158.96 97.9566 159.126 97.8349 159.346C97.7131 159.567 97.6859 159.824 97.759 160.063C97.8322 160.302 97.9999 160.505 98.2264 160.627C98.4529 160.749 98.7201 160.781 98.9711 160.717L116.969 157.059L157.449 152.212C157.629 152.191 157.8 152.125 157.944 152.019C158.088 151.913 158.199 151.772 158.267 151.61L170.883 120.916C170.945 120.764 170.965 120.599 170.942 120.437C170.92 120.275 170.854 120.121 170.752 119.99C170.651 119.859 170.516 119.756 170.36 119.688C170.205 119.621 170.035 119.593 169.865 119.607Z" fill="#E0E0E0"/>
<path d="M169.865 119.607C169.994 119.579 170.127 119.579 170.256 119.607C170.447 119.659 170.618 119.763 170.748 119.906C170.879 120.049 170.964 120.225 170.993 120.414C171.005 120.691 170.942 120.966 170.809 121.213C170.698 121.496 170.573 121.8 170.44 122.126L169.519 124.418C168.11 127.871 166.075 132.874 163.539 139.115L159.336 149.389L158.761 150.804L158.473 151.511C158.391 151.801 158.203 152.052 157.943 152.219C157.811 152.299 157.662 152.35 157.508 152.368L157.102 152.424L156.291 152.516L154.654 152.714L147.834 153.542L116.999 157.257L107.649 159.139L102.864 160.116L100.438 160.604L99.2292 160.851C99.0051 160.918 98.7687 160.937 98.5361 160.908C98.2892 160.864 98.0626 160.748 97.8872 160.575C97.7505 160.437 97.6519 160.268 97.6004 160.084C97.5489 159.9 97.5461 159.706 97.5922 159.521C97.6383 159.335 97.7319 159.164 97.8646 159.022C97.9972 158.88 98.1647 158.772 98.3518 158.707L115.096 154.342C115.233 154.293 115.354 154.212 115.449 154.105C115.543 153.999 115.607 153.87 115.635 153.733L115.944 152.778L116.564 150.882C116.977 149.622 117.382 148.372 117.78 147.132C118.591 144.655 119.383 142.226 120.155 139.844C121.703 135.074 123.178 130.52 124.579 126.18C124.755 125.643 124.932 125.105 125.102 124.574C125.18 124.292 125.284 124.018 125.412 123.753C125.5 123.616 125.619 123.5 125.759 123.41C125.899 123.321 126.057 123.262 126.223 123.237L129.607 122.947L136.044 122.402L147.509 121.425L163.922 120.06L168.346 119.706L169.489 119.628H169.873L169.489 119.678L168.354 119.798L163.93 120.208L147.531 121.68L136.073 122.699L129.637 123.265L126.274 123.562C126.154 123.58 126.039 123.623 125.937 123.688C125.835 123.753 125.749 123.838 125.684 123.937C125.576 124.181 125.484 124.432 125.412 124.687L124.896 126.301C123.495 130.631 122.02 135.185 120.472 139.964C119.705 142.351 118.918 144.782 118.112 147.259C117.714 148.5 117.308 149.75 116.896 151.009C116.696 151.639 116.49 152.269 116.284 152.905L115.974 153.861C115.929 154.052 115.835 154.23 115.699 154.377C115.564 154.524 115.392 154.636 115.2 154.703L98.4771 159.075C98.3503 159.119 98.2368 159.192 98.1468 159.288C98.0568 159.385 97.9932 159.501 97.9618 159.626C97.9303 159.752 97.932 159.883 97.9666 160.008C98.0012 160.133 98.0677 160.248 98.1601 160.342C98.2784 160.457 98.4298 160.536 98.5951 160.568C98.7761 160.589 98.9596 160.572 99.1333 160.519L100.35 160.271L102.768 159.776L107.561 158.807L116.932 156.903L147.775 153.238L154.595 152.431L156.232 152.233L157.043 152.141C157.298 152.14 157.55 152.085 157.78 151.978C157.981 151.857 158.125 151.668 158.186 151.448L158.481 150.74L159.056 149.325C160.59 145.624 162.005 142.193 163.296 139.072C165.884 132.846 167.948 127.857 169.379 124.411C169.74 123.555 170.057 122.798 170.33 122.133L170.713 121.227C170.848 120.996 170.914 120.735 170.905 120.47C170.883 120.292 170.809 120.124 170.691 119.985C170.574 119.846 170.418 119.742 170.241 119.685C170.119 119.646 169.993 119.62 169.865 119.607Z" fill="#263238"/>
<path d="M127.941 123.243C127.928 123.363 127.903 123.482 127.867 123.597C127.793 123.866 127.705 124.198 127.594 124.595C127.351 125.465 126.982 126.717 126.51 128.246C125.566 131.317 124.188 135.548 122.639 140.204C121.091 144.86 119.69 149.027 118.665 152.126L117.463 155.756L117.124 156.733C117.089 156.851 117.039 156.965 116.977 157.072C116.983 156.95 117.005 156.829 117.043 156.711C117.117 156.443 117.213 156.117 117.316 155.714C117.559 154.851 117.935 153.591 118.407 152.07C119.351 148.992 120.722 144.768 122.278 140.105C123.834 135.442 125.227 131.281 126.252 128.182L127.454 124.566L127.793 123.59C127.822 123.467 127.872 123.35 127.941 123.243Z" fill="#263238"/>
<path d="M144.655 135.422C144.328 135.408 144.003 135.471 143.706 135.604C143.41 135.737 143.151 135.936 142.952 136.186C142.714 136.383 142.542 136.644 142.458 136.935C142.374 137.225 142.382 137.534 142.48 137.82C142.585 138.02 142.742 138.19 142.936 138.314C143.13 138.438 143.354 138.512 143.586 138.528C144.049 138.549 144.507 138.433 144.899 138.195C145.182 138.061 145.427 137.862 145.611 137.615C145.795 137.368 145.913 137.081 145.953 136.78C145.96 136.437 145.828 136.105 145.587 135.852C145.345 135.599 145.012 135.445 144.655 135.422Z" fill="white"/>
<path d="M139.355 122.029C139.21 121.748 139.094 121.454 139.008 121.151L138.168 118.717C137.43 116.665 136.45 113.849 135.218 110.764C133.987 107.679 132.792 104.927 131.893 102.981L130.809 100.568C130.66 100.285 130.542 99.989 130.455 99.6836C130.649 99.939 130.812 100.214 130.942 100.504C131.237 101.042 131.635 101.828 132.114 102.811C133.073 104.771 134.326 107.516 135.543 110.594C136.759 113.672 137.755 116.524 138.389 118.597C138.713 119.637 138.956 120.479 139.126 121.067C139.244 121.377 139.321 121.7 139.355 122.029Z" fill="#263238"/>
<path d="M320 274.749C320 274.856 248.369 274.933 160 274.933C71.6313 274.933 0 274.856 0 274.749C0 274.643 71.6166 274.565 160 274.565C248.383 274.565 320 274.629 320 274.749Z" fill="#263238"/>
</svg>
