<svg width="19" height="18" viewBox="0 0 19 18" fill="none" xmlns="http://www.w3.org/2000/svg">
<ellipse cx="9.5" cy="9" rx="9.5" ry="9" fill="#014E86"/>
<path d="M6.33301 13.7648V4.23535H11.4484C12.0514 4.23535 12.6296 4.48635 13.056 4.93313C13.4824 5.3799 13.7219 5.98587 13.7219 6.6177C13.7219 7.24954 13.4824 7.8555 13.056 8.30228C12.6296 8.74906 12.0514 9.00006 11.4484 9.00006M11.4484 9.00006C12.0514 9.00006 12.6296 9.25105 13.056 9.69783C13.4824 10.1446 13.7219 10.7506 13.7219 11.3824C13.7219 12.0142 13.4824 12.6202 13.056 13.067C12.6296 13.5138 12.0514 13.7648 11.4484 13.7648H9.06121M11.4484 9.00006H9.06121" stroke="white" stroke-width="1.5" stroke-linecap="round" stroke-linejoin="round"/>
</svg>
