<svg width="23" height="14" viewBox="0 0 23 14" fill="none" xmlns="http://www.w3.org/2000/svg">
<path d="M19.55 5H18.975L15.0657 0.750625C14.8502 0.516433 14.5769 0.327378 14.2659 0.197448C13.955 0.0675176 13.6145 3.7503e-05 13.2696 0H5.58217C4.64169 0 3.79608 0.497813 3.44677 1.25719L1.725 5.07062C0.734562 5.29375 0 6.06906 0 7V10.5C0 10.7762 0.257313 11 0.575 11H2.3C2.3 12.6569 3.84459 14 5.75 14C7.65541 14 9.2 12.6569 9.2 11H13.8C13.8 12.6569 15.3446 14 17.25 14C19.1554 14 20.7 12.6569 20.7 11H22.425C22.7427 11 23 10.7762 23 10.5V8C23 6.34312 21.4554 5 19.55 5ZM5.75 12.5C4.79873 12.5 4.025 11.8272 4.025 11C4.025 10.1728 4.79873 9.5 5.75 9.5C6.70127 9.5 7.475 10.1728 7.475 11C7.475 11.8272 6.70127 12.5 5.75 12.5ZM8.3375 5H4.20217L5.58217 2H8.3375V5ZM10.0625 5V2H13.2696L16.0296 5H10.0625ZM17.25 12.5C16.2987 12.5 15.525 11.8272 15.525 11C15.525 10.1728 16.2987 9.5 17.25 9.5C18.2013 9.5 18.975 10.1728 18.975 11C18.975 11.8272 18.2013 12.5 17.25 12.5Z" fill="#282E36" fill-opacity="0.25"/>
</svg>
