<svg width="21" height="14" viewBox="0 0 21 14" fill="none" xmlns="http://www.w3.org/2000/svg">
<path d="M18.6667 1.5C18.9875 1.5 19.25 1.725 19.25 2V3H1.75V2C1.75 1.725 2.0125 1.5 2.33333 1.5H18.6667ZM19.25 6V12C19.25 12.275 18.9875 12.5 18.6667 12.5H2.33333C2.0125 12.5 1.75 12.275 1.75 12V6H19.25ZM2.33333 0C1.04635 0 0 0.896875 0 2V12C0 13.1031 1.04635 14 2.33333 14H18.6667C19.9536 14 21 13.1031 21 12V2C21 0.896875 19.9536 0 18.6667 0H2.33333ZM4.375 9.5C3.8901 9.5 3.5 9.83438 3.5 10.25C3.5 10.6656 3.8901 11 4.375 11H6.125C6.6099 11 7 10.6656 7 10.25C7 9.83438 6.6099 9.5 6.125 9.5H4.375ZM9.04167 9.5C8.55677 9.5 8.16667 9.83438 8.16667 10.25C8.16667 10.6656 8.55677 11 9.04167 11H13.125C13.6099 11 14 10.6656 14 10.25C14 9.83438 13.6099 9.5 13.125 9.5H9.04167Z" fill="#282E36"/>
</svg>
