<svg width="61" height="23" viewBox="0 0 61 23" fill="none" xmlns="http://www.w3.org/2000/svg">
<path d="M10.0726 0.000614251C8.20534 0.000730916 6.37487 0.493635 4.78559 1.42429C3.1963 2.35494 1.91078 3.6867 1.07256 5.27085C0.367299 6.60326 0 8.07379 0 9.56499C0 11.0562 0.367299 12.5267 1.07256 13.8591C1.91078 15.4433 3.1963 16.775 4.78559 17.7057C6.37487 18.6363 8.20534 19.1292 10.0726 19.1294C12.7922 19.1294 15.0797 18.2799 16.7496 16.82C18.6507 15.155 19.7487 12.6936 19.7487 9.78338C19.7481 9.13141 19.6886 8.4807 19.5708 7.83841H10.0751V11.5208H15.5143C15.4036 12.1091 15.1686 12.6699 14.8235 13.1697C14.4785 13.6694 14.0304 14.0976 13.5064 14.4286C12.6016 15.0102 11.4375 15.3432 10.0751 15.3432C7.44706 15.3432 5.21802 13.6613 4.41994 11.3953C3.99844 10.2079 3.99844 8.92206 4.41994 7.73464C5.21802 5.46632 7.44706 3.78679 10.0751 3.78679C11.5112 3.76449 12.8989 4.27934 13.9385 5.22018L16.8156 2.49336C14.9926 0.866543 12.5743 -0.0268338 10.0726 0.000614251ZM26.596 1.32783V17.9783H28.8479V11.2337H32.5714C34.1041 11.2337 35.3927 10.7607 36.4399 9.81475C36.9612 9.3711 37.3753 8.82571 37.6538 8.21595C37.9324 7.60618 38.0689 6.94645 38.0538 6.28195C38.0644 5.62088 37.9259 4.96532 37.6475 4.35931C37.3691 3.75329 36.9573 3.21086 36.4399 2.76846C35.9274 2.29729 35.3217 1.92718 34.6577 1.6795C33.9937 1.43182 33.2847 1.31147 32.5714 1.32541L26.596 1.32783ZM32.7646 3.37897C33.1576 3.38548 33.5452 3.46679 33.9045 3.61808C34.2638 3.76937 34.5875 3.98757 34.8564 4.25976C35.1428 4.52421 35.3704 4.84049 35.5258 5.18989C35.6813 5.53929 35.7614 5.91473 35.7614 6.29402C35.7614 6.6733 35.6813 7.04874 35.5258 7.39814C35.3704 7.74754 35.1428 8.06382 34.8564 8.32827C34.5685 8.61129 34.2215 8.83411 33.8377 8.98246C33.4538 9.1308 33.0416 9.20141 32.6274 9.18975H28.8479V3.37897H32.6274C32.6731 3.37796 32.7189 3.37796 32.7646 3.37897ZM43.2464 6.21438C41.1064 6.21438 39.4924 6.95762 38.3995 8.44651L40.3845 9.63135C41.1165 8.62508 42.1129 8.12074 43.371 8.12074C44.1737 8.11138 44.9506 8.3897 45.5467 8.90018C45.8401 9.13055 46.0759 9.42008 46.2368 9.74774C46.3977 10.0754 46.4797 10.433 46.4769 10.7945V11.2819C45.6127 10.8162 44.5097 10.5845 43.1727 10.5845C41.6045 10.5845 40.3515 10.9344 39.4136 11.6318C38.4732 12.3268 38.0055 13.2655 38.0055 14.4431C37.9953 14.973 38.1098 15.4985 38.3407 15.9811C38.5715 16.4636 38.9129 16.8912 39.3399 17.2327C40.2295 17.9759 41.3351 18.3499 42.6568 18.3499C44.2072 18.3499 45.4475 17.6984 46.3803 16.3953H46.4769V17.9759H48.6322V10.9561C48.6322 9.48415 48.1493 8.32586 47.1886 7.48127C46.2227 6.63668 44.9112 6.21438 43.2464 6.21438ZM48.9982 6.586L53.9443 17.2568L51.1536 23H53.4792L61 6.58359H58.5473L55.0703 14.7665H55.0195L51.4459 6.586H48.9982ZM43.5438 12.3003C44.7994 12.3003 45.7805 12.5657 46.482 13.0966C46.482 13.9943 46.1084 14.7761 45.3637 15.4445C44.6915 16.0829 43.7803 16.4421 42.8296 16.4436C42.1944 16.4551 41.5747 16.2572 41.0759 15.8837C40.8438 15.7243 40.6551 15.5146 40.5256 15.272C40.396 15.0294 40.3294 14.7609 40.3312 14.4889C40.3312 13.8688 40.6362 13.3548 41.2538 12.9277C41.8638 12.5102 42.6288 12.3003 43.5438 12.3003Z" fill="#8CC63E" fill-opacity="0.75"/>
</svg>
