<svg width="30" height="19" viewBox="0 0 30 19" fill="none" xmlns="http://www.w3.org/2000/svg">
<path d="M19.0553 16.3601H10.9434V1.95801H19.0553V16.3601Z" fill="#6C6BBD"/>
<path d="M11.4589 9.15941C11.4589 6.23782 12.8435 3.63542 14.9998 1.95837C13.423 0.732016 11.4328 0 9.27023 0C4.15031 0 0 4.1007 0 9.15941C0 14.218 4.15031 18.3187 9.27023 18.3187C11.4329 18.3187 13.423 17.5867 14.9998 16.3603C12.8435 14.6833 11.4589 12.0809 11.4589 9.15941Z" fill="#D32011"/>
<path d="M30.0003 9.15941C30.0003 14.218 25.85 18.3187 20.7301 18.3187C18.5674 18.3187 16.5773 17.5867 15 16.3603C17.1568 14.6833 18.5414 12.0809 18.5414 9.15941C18.5414 6.23782 17.1568 3.63542 15 1.95837C16.5773 0.732016 18.5675 0 20.7301 0C25.85 0 30.0003 4.1007 30.0003 9.15941Z" fill="#0099DF"/>
<path d="M21.8907 7.67668C21.9985 7.67668 22.1536 7.69705 22.272 7.74301L22.107 8.24152C21.9938 8.19556 21.8806 8.18039 21.7722 8.18039C21.4221 8.18039 21.247 8.40395 21.247 8.80579V10.1696H20.7112V7.7378H21.2417V8.03302C21.3808 7.81931 21.5818 7.67668 21.8907 7.67668ZM19.9113 8.22115H19.0359V9.31992C19.0359 9.56397 19.1232 9.72697 19.3914 9.72697C19.5305 9.72697 19.7055 9.68101 19.8648 9.58955L20.0191 10.0421C19.8494 10.159 19.5818 10.2308 19.3501 10.2308C18.7164 10.2308 18.4954 9.89472 18.4954 9.32988V8.22115H17.9956V7.7378H18.4954V7H19.0359V7.7378H19.9113V8.22115ZM13.0565 8.74003C13.1137 8.3889 13.3296 8.1496 13.7109 8.1496C14.0557 8.1496 14.2773 8.3632 14.3339 8.74003H13.0565ZM14.8904 8.95374C14.885 8.19544 14.4111 7.67668 13.7209 7.67668C13 7.67668 12.4954 8.19556 12.4954 8.95363C12.4954 9.72639 13.0207 10.2301 13.7574 10.2301C14.1282 10.2301 14.4677 10.1387 14.7665 9.88951L14.5037 9.49763C14.298 9.66064 14.035 9.75209 13.7881 9.75209C13.4432 9.75209 13.1291 9.5943 13.0518 9.15703H14.8797C14.885 9.09058 14.8904 9.02471 14.8904 8.95374ZM17.2434 8.35857C17.0942 8.26653 16.7906 8.14948 16.4764 8.14948C16.1828 8.14948 16.0078 8.25669 16.0078 8.43486C16.0078 8.59728 16.1929 8.64324 16.4246 8.67358L16.6769 8.70912C17.2127 8.78599 17.5368 9.00966 17.5368 9.43708C17.5368 9.89993 17.1248 10.2307 16.4145 10.2307C16.0126 10.2307 15.6418 10.1288 15.3481 9.9151L15.6005 9.50284C15.7809 9.64026 16.0491 9.7573 16.4198 9.7573C16.7853 9.7573 16.981 9.65079 16.981 9.46209C16.981 9.32525 16.8419 9.24838 16.5484 9.20821L16.2961 9.17266C15.7449 9.09579 15.4461 8.85175 15.4461 8.45523C15.4461 7.97189 15.848 7.67668 16.4711 7.67668C16.8625 7.67668 17.218 7.76351 17.475 7.93114L17.2434 8.35857ZM23.8481 8.17912C23.7379 8.17912 23.636 8.19846 23.541 8.23631C23.4492 8.27304 23.3658 8.32769 23.2958 8.397C23.2254 8.46797 23.1701 8.55213 23.1331 8.64452C23.0936 8.74061 23.0742 8.84654 23.0742 8.96185C23.0742 9.07773 23.0936 9.18308 23.1331 9.27917C23.1726 9.37526 23.2269 9.45804 23.2958 9.52669C23.3658 9.596 23.4492 9.65065 23.541 9.68738C23.636 9.72581 23.7379 9.74445 23.8481 9.74445C23.9582 9.74445 24.0609 9.72593 24.1551 9.68738C24.2474 9.65081 24.3312 9.59614 24.4016 9.52669C24.4718 9.45804 24.526 9.37526 24.5661 9.27917C24.6056 9.18308 24.625 9.07773 24.625 8.96185C24.625 8.84654 24.6056 8.74061 24.5661 8.64452C24.526 8.54843 24.4718 8.46577 24.4016 8.397C24.3313 8.32756 24.2475 8.2729 24.1552 8.23631C24.0576 8.19776 23.9533 8.17838 23.8482 8.17924M23.8482 7.67679C24.0392 7.67679 24.2161 7.70944 24.3787 7.7752C24.536 7.83701 24.6794 7.92882 24.8008 8.04541C24.9203 8.1611 25.0151 8.29927 25.0796 8.45176C25.1468 8.60851 25.1804 8.77858 25.1804 8.96196C25.1804 9.14534 25.1468 9.31541 25.0796 9.47204C25.0151 9.62476 24.9202 9.76317 24.8007 9.87909C24.6823 9.99382 24.5414 10.0835 24.3788 10.1493C24.2159 10.2146 24.0392 10.2471 23.8482 10.2471C23.6572 10.2471 23.4803 10.2146 23.3177 10.1493C23.155 10.0835 23.0153 9.99382 22.8975 9.87909C22.7786 9.76281 22.6843 9.62447 22.6197 9.47204C22.5526 9.31541 22.5189 9.14534 22.5189 8.96196C22.5189 8.77858 22.5526 8.60851 22.6197 8.45188C22.6843 8.29962 22.7787 8.16148 22.8975 8.04541C23.018 7.92872 23.1609 7.83687 23.3177 7.7752C23.4803 7.70944 23.6572 7.67679 23.8482 7.67679ZM9.92785 8.95363C9.92785 8.52632 10.2114 8.17519 10.6747 8.17519C11.1174 8.17519 11.4162 8.51115 11.4162 8.95374C11.4162 9.39621 11.1174 9.73172 10.6747 9.73172C10.2114 9.73172 9.92785 9.38105 9.92785 8.95363ZM11.9209 8.95374V7.73792H11.3855V8.03313C11.2153 7.81421 10.9583 7.67679 10.6081 7.67679C9.91789 7.67679 9.3773 8.21073 9.3773 8.95374C9.3773 9.69629 9.91789 10.2308 10.6081 10.2308C10.9583 10.2308 11.2152 10.0934 11.3855 9.87446V10.1697H11.9209V8.95374ZM8.90328 10.1697V8.64348C8.90328 8.06868 8.5325 7.682 7.93543 7.67679C7.62125 7.67158 7.29641 7.76825 7.07012 8.10943C6.90031 7.8398 6.63219 7.67679 6.25613 7.67679C5.99375 7.67679 5.73617 7.75309 5.5352 8.03777V7.73792H5V10.1697H5.54047V8.82165C5.54047 8.39943 5.77742 8.1753 6.14281 8.1753C6.49836 8.1753 6.67871 8.40406 6.67871 8.81644V10.1697H7.2193V8.82153C7.2193 8.39932 7.4668 8.17519 7.82164 8.17519C8.18773 8.17519 8.36281 8.40395 8.36281 8.81632V10.1697H8.90328Z" fill="white"/>
</svg>
