<svg width="30" height="18" viewBox="0 0 30 18" fill="none" xmlns="http://www.w3.org/2000/svg">
<path d="M10.9434 1.92383H19.0548V16.0738H10.9434V1.92383Z" fill="#FF5F00"/>
<path d="M11.4592 9C11.4592 6.12504 12.8497 3.57499 14.987 1.92495C13.4163 0.724974 11.4335 0 9.27044 0C4.14583 0 0 4.02494 0 9C0 13.9749 4.14583 18 9.27032 18C11.4334 18 13.4162 17.275 14.987 16.0749C12.8497 14.4499 11.4592 11.875 11.4592 9Z" fill="#EB001B"/>
<path d="M29.9996 9C29.9996 13.9749 25.8538 18 20.7293 18C18.5663 18 16.5835 17.275 15.0127 16.0749C17.1758 14.425 18.5406 11.875 18.5406 9C18.5406 6.12504 17.15 3.57499 15.0127 1.92495C16.5834 0.724974 18.5663 0 20.7293 0C25.8538 0 29.9996 4.04999 29.9996 9Z" fill="#F79E1B"/>
<path d="M5.78867 10.5254V8.65695C5.78867 7.94054 5.44193 7.47353 4.84759 7.47353C4.55048 7.47353 4.22856 7.59809 4.00567 8.00296C3.83241 7.66037 3.58482 7.47353 3.21337 7.47353C2.96567 7.47353 2.71819 7.56688 2.52 7.90948V7.53581H2V10.5254H2.52V8.87485C2.52 8.34556 2.74289 8.09631 3.08963 8.09631C3.43615 8.09631 3.60963 8.37663 3.60963 8.87485V10.5254H4.12963V8.87485C4.12963 8.34556 4.37711 8.09631 4.69904 8.09631C5.04578 8.09631 5.21904 8.37663 5.21904 8.87485V10.5254H5.78867ZM13.4895 7.53581H12.6477V6.63272H12.1277V7.53581H11.6572V8.12738H12.1276V9.49776C12.1276 10.183 12.3505 10.5877 12.9448 10.5877C13.1677 10.5877 13.4152 10.4943 13.5887 10.3698L13.44 9.80915C13.2914 9.93371 13.1182 9.96492 12.9943 9.96492C12.7467 9.96492 12.6477 9.77808 12.6477 9.46655V8.12738H13.4895V7.53581ZM17.8972 7.47339C17.6001 7.47339 17.402 7.66037 17.2782 7.90948V7.53581H16.7582V10.5254H17.2782V8.84378C17.2782 8.34556 17.4514 8.06524 17.7734 8.06524C17.8724 8.06524 17.9963 8.09645 18.0953 8.12752L18.2439 7.50474C18.1448 7.47353 17.9963 7.47353 17.8972 7.47353M11.2363 7.78506C10.9886 7.56702 10.6419 7.47368 10.2705 7.47368C9.67626 7.47368 9.28011 7.84734 9.28011 8.43905C9.28011 8.93741 9.57722 9.21759 10.0972 9.31107L10.3448 9.34228C10.6172 9.40442 10.7658 9.49791 10.7658 9.65367C10.7658 9.87157 10.5677 10.0273 10.221 10.0273C9.87433 10.0273 9.60193 9.87157 9.42856 9.71595L9.18096 10.2142C9.45337 10.4633 9.82482 10.5878 10.1961 10.5878C10.8895 10.5878 11.2858 10.1831 11.2858 9.62246C11.2858 9.09303 10.9639 8.81271 10.4686 8.71937L10.221 8.68816C9.99807 8.65695 9.82482 8.59481 9.82482 8.40798C9.82482 8.18994 9.99807 8.06538 10.2705 8.06538C10.5677 8.06538 10.8648 8.221 11.0134 8.31449L11.2363 7.78506ZM25.0535 7.47368C24.7563 7.47368 24.5582 7.66051 24.4343 7.90962V7.53595H23.9143V10.5256H24.4343V8.84392C24.4343 8.3457 24.6077 8.06538 24.9295 8.06538C25.0287 8.06538 25.1525 8.09659 25.2516 8.12766L25.4001 7.50488C25.3011 7.47368 25.1525 7.47368 25.0535 7.47368ZM18.4172 9.03076C18.4172 9.93385 18.9124 10.5878 19.6801 10.5878C20.0267 10.5878 20.2743 10.4945 20.5219 10.2454L20.2743 9.71595C20.0763 9.90278 19.8782 9.99613 19.6553 9.99613C19.2343 9.99613 18.9372 9.62246 18.9372 9.03076C18.9372 8.47026 19.2343 8.09645 19.6553 8.06538C19.8782 8.06538 20.0763 8.15873 20.2743 8.3457L20.5219 7.81627C20.2743 7.56702 20.0267 7.47368 19.6801 7.47368C18.9124 7.47368 18.4172 8.12766 18.4172 9.03076ZM23.2211 9.03076V7.53595H22.7011V7.90962C22.5277 7.62944 22.2801 7.47368 21.9582 7.47368C21.2896 7.47368 20.7696 8.12766 20.7696 9.03076C20.7696 9.93385 21.2896 10.5878 21.9582 10.5878C22.3048 10.5878 22.5525 10.4322 22.7011 10.1519V10.5256H23.2211V9.03076ZM21.3143 9.03076C21.3143 8.50133 21.5867 8.06538 22.0324 8.06538C22.4534 8.06538 22.7506 8.47026 22.7506 9.03076C22.7506 9.56018 22.4534 9.99613 22.0324 9.99613C21.5867 9.96492 21.3143 9.56018 21.3143 9.03076ZM15.0991 7.47368C14.4058 7.47368 13.9105 8.09645 13.9105 9.03076C13.9105 9.96506 14.4057 10.5878 15.1239 10.5878C15.4705 10.5878 15.8172 10.4633 16.0896 10.1831L15.8419 9.71595C15.6439 9.90278 15.3963 10.0273 15.1487 10.0273C14.8267 10.0273 14.5048 9.8405 14.4305 9.31093H16.1887V9.06197C16.2135 8.09645 15.7678 7.47368 15.0991 7.47368ZM15.099 8.03417C15.4209 8.03417 15.6439 8.28342 15.6933 8.75058H14.4552C14.5047 8.3457 14.7276 8.03417 15.099 8.03417ZM28 9.03076V6.35254H27.48V7.90962C27.3066 7.62944 27.059 7.47368 26.7371 7.47368C26.0686 7.47368 25.5486 8.12766 25.5486 9.03076C25.5486 9.93385 26.0686 10.5878 26.7371 10.5878C27.0839 10.5878 27.3314 10.4322 27.48 10.1519V10.5256H28V9.03076ZM26.0934 9.03076C26.0934 8.50133 26.3657 8.06538 26.8114 8.06538C27.2324 8.06538 27.5295 8.47026 27.5295 9.03076C27.5295 9.56018 27.2324 9.99613 26.8114 9.99613C26.3657 9.96492 26.0934 9.56018 26.0934 9.03076ZM8.71037 9.03076V7.53595H8.19037V7.90962C8.017 7.62944 7.76941 7.47368 7.44748 7.47368C6.77892 7.47368 6.25892 8.12766 6.25892 9.03076C6.25892 9.93385 6.77892 10.5878 7.44748 10.5878C7.79422 10.5878 8.04181 10.4322 8.19037 10.1519V10.5256H8.71037V9.03076ZM6.77892 9.03076C6.77892 8.50133 7.05133 8.06538 7.497 8.06538C7.91796 8.06538 8.21518 8.47026 8.21518 9.03076C8.21518 9.56018 7.91796 9.99613 7.497 9.99613C7.05133 9.96492 6.77892 9.56018 6.77892 9.03076Z" fill="white"/>
</svg>
