<svg width="38" height="25" viewBox="0 0 38 25" fill="none" xmlns="http://www.w3.org/2000/svg">
<path d="M6.90909 0H38V18.75H6.90909V0ZM22.4545 4.6875C23.8288 4.6875 25.1469 5.18136 26.1186 6.06044C27.0904 6.93951 27.6364 8.1318 27.6364 9.375C27.6364 10.6182 27.0904 11.8105 26.1186 12.6896C25.1469 13.5686 23.8288 14.0625 22.4545 14.0625C21.0802 14.0625 19.7622 13.5686 18.7904 12.6896C17.8187 11.8105 17.2727 10.6182 17.2727 9.375C17.2727 8.1318 17.8187 6.93951 18.7904 6.06044C19.7622 5.18136 21.0802 4.6875 22.4545 4.6875ZM13.8182 3.125C13.8182 3.9538 13.4542 4.74866 12.8064 5.33471C12.1585 5.92076 11.2798 6.25 10.3636 6.25V12.5C11.2798 12.5 12.1585 12.8292 12.8064 13.4153C13.4542 14.0013 13.8182 14.7962 13.8182 15.625H31.0909C31.0909 14.7962 31.4549 14.0013 32.1027 13.4153C32.7506 12.8292 33.6293 12.5 34.5455 12.5V6.25C33.6293 6.25 32.7506 5.92076 32.1027 5.33471C31.4549 4.74866 31.0909 3.9538 31.0909 3.125H13.8182ZM0 6.25H3.45455V21.875H31.0909V25H0V6.25Z" fill="#42526E"/>
</svg>
