<svg width="43" height="39" viewBox="0 0 43 39" fill="none" xmlns="http://www.w3.org/2000/svg">
<path d="M40.3347 19.5L42.7111 15.7749C42.9967 15.3267 43.0744 14.794 42.927 14.2939C42.7797 13.7938 42.4194 13.3672 41.9254 13.108L37.8141 10.9526V6.65744C37.8141 6.13965 37.5873 5.64306 37.1837 5.27693C36.78 4.91079 36.2325 4.7051 35.6616 4.7051H30.9282L28.554 0.978072C28.2672 0.530821 27.7978 0.203977 27.2474 0.0682784C26.9744 0.00114874 26.6894 -0.0161609 26.4089 0.0173526C26.1285 0.0508661 25.8582 0.134537 25.6136 0.263513L21.5023 2.4189L17.391 0.261561C16.8966 0.00267506 16.3091 -0.0674817 15.7577 0.0665231C15.2063 0.200528 14.7361 0.527718 14.4507 0.976119L12.0743 4.7051H7.34092C6.77004 4.7051 6.22254 4.91079 5.81886 5.27693C5.41519 5.64306 5.18841 6.13965 5.18841 6.65744V10.9507L1.0771 13.106C0.831781 13.234 0.616763 13.4047 0.444398 13.6083C0.272033 13.8119 0.145718 14.0444 0.0727111 14.2924C-0.000296165 14.5404 -0.0185569 14.799 0.018978 15.0534C0.0565129 15.3078 0.149103 15.553 0.29143 15.7749L2.66781 19.5L0.29143 23.225C0.00727391 23.6736 -0.0698223 24.2059 0.0769501 24.7059C0.223723 25.2058 0.58246 25.6329 1.07495 25.8939L5.18625 28.0493V32.3425C5.18625 32.8603 5.41304 33.3569 5.81671 33.723C6.22039 34.0892 6.76789 34.2948 7.33877 34.2948H12.0743L14.4507 38.0238C14.6413 38.3193 14.9133 38.5647 15.2402 38.7358C15.567 38.907 15.9374 38.998 16.3148 39C16.6893 39 17.0617 38.9102 17.3932 38.7364L21.5002 36.581L25.6115 38.7364C26.1057 38.995 26.6929 39.0651 27.2441 38.9315C27.7953 38.7979 28.2656 38.4715 28.5518 38.0238L30.9261 34.2948H35.6594C36.2303 34.2948 36.7778 34.0892 37.1815 33.723C37.5852 33.3569 37.812 32.8603 37.812 32.3425V28.0493L41.9233 25.8939C42.1682 25.7655 42.3828 25.5947 42.5548 25.391C42.7268 25.1874 42.853 24.955 42.9259 24.7072C42.9989 24.4593 43.0173 24.2008 42.98 23.9465C42.9428 23.6922 42.8507 23.447 42.7089 23.225L40.3347 19.5ZM16.1189 9.71872C16.9755 9.71898 17.7969 10.0279 18.4024 10.5774C19.0079 11.127 19.3479 11.8722 19.3477 12.6492C19.3474 13.4261 19.0068 14.1712 18.4009 14.7204C17.795 15.2696 16.9733 15.578 16.1167 15.5777C15.2601 15.5775 14.4387 15.2686 13.8332 14.719C13.2277 14.1694 12.8877 13.4242 12.888 12.6472C12.8882 11.8703 13.2288 11.1253 13.8347 10.5761C14.4406 10.0269 15.2623 9.71846 16.1189 9.71872ZM16.7646 28.4612L13.3206 26.1204L26.2357 10.5016L29.6797 12.8425L16.7646 28.4612ZM26.8815 29.2422C26.4573 29.242 26.0374 29.1661 25.6455 29.0188C25.2537 28.8715 24.8978 28.6556 24.5979 28.3835C24.2981 28.1113 24.0603 27.7883 23.8981 27.4328C23.736 27.0774 23.6526 26.6964 23.6527 26.3117C23.6528 25.927 23.7365 25.5461 23.899 25.1907C24.0614 24.8353 24.2994 24.5125 24.5995 24.2405C24.8995 23.9686 25.2556 23.7529 25.6475 23.6058C26.0394 23.4587 26.4595 23.3831 26.8836 23.3832C27.7402 23.3834 28.5616 23.6923 29.1672 24.2419C29.7727 24.7915 30.1127 25.5367 30.1124 26.3137C30.1121 27.0906 29.7716 27.8356 29.1656 28.3848C28.5597 28.934 27.7381 29.2424 26.8815 29.2422Z" fill="#0076D7"/>
</svg>
