<svg width="64" height="20" viewBox="0 0 64 20" fill="none" xmlns="http://www.w3.org/2000/svg">
<path d="M42.2667 0C42.2309 3.43511e-05 42.1951 0.00352867 42.16 0.0104336C40.3467 0.506064 40.712 3.00509 37.4107 3.21899H37.0907C37.0441 3.21817 36.9976 3.22255 36.952 3.23203H36.9493C36.8088 3.26502 36.6838 3.34355 36.5947 3.45486C36.5057 3.56616 36.4577 3.70369 36.4587 3.84505V6.68841C36.4587 7.03796 36.7413 7.31707 37.0907 7.31707H38.8107V19.3766C38.8107 19.7209 39.088 19.9974 39.432 19.9974H42.2533C42.4198 19.9953 42.5786 19.9288 42.6951 19.8125C42.8115 19.6961 42.8761 19.5394 42.8747 19.3766V7.31707H44.4747C44.8213 7.31707 45.104 7.03796 45.104 6.68841V3.84505C45.1047 3.6806 45.039 3.52253 44.9211 3.40527C44.8032 3.288 44.6428 3.22105 44.4747 3.21899H42.8427V0.571279C42.8434 0.496599 42.829 0.422517 42.8005 0.353259C42.7719 0.284001 42.7297 0.220925 42.6762 0.167634C42.6227 0.114343 42.559 0.0718799 42.4887 0.0426697C42.4185 0.0134594 42.343 0.000681993 42.2667 0ZM53.5333 3.05204C52.472 3.05204 51.5013 3.44333 50.7547 4.08243V3.75897C50.7453 3.60251 50.6757 3.45532 50.56 3.34694C50.4442 3.23856 50.2909 3.17701 50.1307 3.17464H47.2773C47.1085 3.17739 46.9477 3.24528 46.8298 3.36352C46.7119 3.48176 46.6466 3.64077 46.648 3.80592V19.2487C46.6466 19.4139 46.7119 19.5729 46.8298 19.6911C46.9477 19.8094 47.1085 19.8773 47.2773 19.88H50.1307C50.4507 19.88 50.7093 19.6426 50.752 19.3348V8.24834C50.7411 7.97941 50.8387 7.71707 51.0238 7.51795C51.2089 7.31883 51.4666 7.19889 51.7413 7.18403H52.264C52.4846 7.20085 52.6947 7.28271 52.8667 7.41881C52.9907 7.52034 53.0898 7.64783 53.1568 7.79185C53.2237 7.93588 53.2567 8.09277 53.2533 8.25095V18.8783L53.264 19.2826C53.2633 19.4478 53.3293 19.6065 53.4477 19.7243C53.566 19.842 53.7272 19.9092 53.896 19.9113H56.7493C56.9124 19.9088 57.0683 19.8451 57.1849 19.7335C57.3015 19.6219 57.3699 19.4708 57.376 19.3113L57.3733 8.2353C57.3733 7.87009 57.5387 7.54141 57.8373 7.34838C57.9936 7.24732 58.1733 7.18633 58.36 7.17099H58.888C59.5013 7.22317 59.8747 7.69271 59.8747 8.2353C59.888 11.8769 59.8853 15.5393 59.8853 19.2539C59.8846 19.4191 59.9506 19.5778 60.069 19.6956C60.1874 19.8133 60.3485 19.8806 60.5173 19.8826H63.3707C63.7173 19.8826 64 19.6009 64 19.2539V7.40316C64 6.5945 63.9093 6.25016 63.7867 5.89801C63.5025 5.07247 62.9615 4.35453 62.2394 3.84468C61.5174 3.33484 60.6505 3.0586 59.76 3.05465H59.72C59.144 3.0551 58.5742 3.17107 58.0458 3.39541C57.5175 3.61974 57.0417 3.94767 56.648 4.35894C55.872 3.5555 54.7813 3.05465 53.5733 3.05465L53.5333 3.05204ZM0.618689 3.21638C0.536744 3.21706 0.455738 3.23353 0.380297 3.26484C0.304857 3.29615 0.236459 3.34168 0.17901 3.39885C0.121561 3.45602 0.0761858 3.52369 0.045475 3.59802C0.0147643 3.67234 -0.000680396 3.75185 2.29878e-05 3.83201V19.2852C2.29878e-05 19.6296 0.256023 19.9061 0.576023 19.9139H3.48269C3.82935 19.9139 4.11469 19.6348 4.11469 19.2879L4.12535 14.9628H6.85335C9.13869 14.9628 10.728 13.3846 10.728 11.0995V7.08752C10.728 4.79979 9.13869 3.21638 6.85335 3.21638H0.618689ZM24.704 3.21638C24.6203 3.21706 24.5376 3.23387 24.4605 3.26583C24.3835 3.29779 24.3136 3.34429 24.2549 3.40267C24.1962 3.46105 24.1499 3.53016 24.1185 3.60607C24.0871 3.68197 24.0713 3.76318 24.072 3.84505V10.2882C24.072 12.7403 25.824 14.4828 28.2827 14.4828H30.0827C30.0827 14.4828 30.1253 14.4828 30.1813 14.4933C30.3456 14.5131 30.4967 14.5913 30.6058 14.713C30.715 14.8347 30.7746 14.9914 30.7733 15.1533C30.7733 15.4924 30.5173 15.7663 30.1893 15.808L30.1413 15.8184L29.3333 15.8341H25.9707C25.8026 15.8362 25.6421 15.9031 25.5242 16.0204C25.4064 16.1376 25.3406 16.2957 25.3413 16.4602V19.3035C25.3399 19.4687 25.4053 19.6277 25.5231 19.7459C25.641 19.8642 25.8019 19.932 25.9707 19.9348H30.6373C33.0907 19.9348 34.8427 18.1896 34.8427 15.7402V3.84505C34.8434 3.6806 34.7777 3.52253 34.6598 3.40527C34.5419 3.288 34.3814 3.22105 34.2133 3.21899H31.36C31.1919 3.22105 31.0314 3.288 30.9136 3.40527C30.7957 3.52253 30.73 3.6806 30.7307 3.84505C30.7173 5.898 30.7307 7.82314 30.7307 9.7274C30.7286 9.89973 30.6577 10.0644 30.5331 10.1863C30.4085 10.3082 30.2402 10.3775 30.064 10.3795H28.8667C28.6882 10.3775 28.5178 10.3063 28.3929 10.1817C28.2679 10.057 28.1986 9.88895 28.2 9.71436C28.2133 7.74749 28.1867 5.80149 28.1867 3.84505C28.1874 3.6806 28.1217 3.52253 28.0038 3.40527C27.8859 3.288 27.7254 3.22105 27.5573 3.21899L24.704 3.21638ZM14.0267 3.23203C13.9454 3.22995 13.8646 3.24355 13.7887 3.27206C13.7128 3.30056 13.6434 3.34341 13.5845 3.39816C13.5255 3.45291 13.4782 3.51848 13.4452 3.59113C13.4122 3.66379 13.3941 3.74209 13.392 3.82157V6.49015C13.392 6.83449 13.6934 7.11621 14.064 7.11621H17.832C18.1307 7.16056 18.3653 7.37707 18.4 7.71619V8.08139C18.3653 8.40485 18.1333 8.63963 17.848 8.66571H15.9813C13.5014 8.66571 11.7307 10.3091 11.7307 12.6177V15.928C11.7307 18.2236 13.2507 19.8565 15.7174 19.8565H20.8907C21.8187 19.8565 22.5707 19.1522 22.5707 18.2914V7.50228C22.5707 4.88327 21.216 3.23203 17.984 3.23203H14.0267ZM4.12535 7.33272H5.93335C6.30402 7.33272 6.60002 7.63271 6.60002 8.00052V10.1813C6.60108 10.268 6.58467 10.354 6.55174 10.4345C6.51881 10.5149 6.46999 10.5883 6.40809 10.6503C6.34618 10.7123 6.27239 10.7618 6.19094 10.7959C6.10948 10.83 6.02195 10.8481 5.93335 10.8491H5.66669C5.15469 10.8543 4.63735 10.8491 4.12535 10.8491V7.33272ZM16.5787 12.4899H17.7653C18.136 12.4899 18.4373 12.7716 18.4373 13.116V15.5472C18.4364 15.6148 18.4238 15.6819 18.4 15.7454C18.3525 15.8722 18.266 15.9815 18.1523 16.0581C18.0386 16.1348 17.9034 16.175 17.7653 16.1732H16.5787C16.4049 16.1767 16.2367 16.1129 16.1108 15.9956C15.985 15.8783 15.9116 15.7171 15.9067 15.5472V13.1133C15.9067 12.769 16.208 12.4899 16.5787 12.4899Z" fill="#0076D7"/>
</svg>
