<svg width="22" height="16" viewBox="0 0 22 16" fill="none" xmlns="http://www.w3.org/2000/svg">
<path d="M18.7778 15H3.22222C2.63285 15 2.06762 14.7731 1.65087 14.3692C1.23413 13.9652 1 13.4174 1 12.8462V3.15385C1 2.58261 1.23413 2.03477 1.65087 1.63085C2.06762 1.22692 2.63285 1 3.22222 1H18.7778C19.3671 1 19.9324 1.22692 20.3491 1.63085C20.7659 2.03477 21 2.58261 21 3.15385V12.8462C21 13.4174 20.7659 13.9652 20.3491 14.3692C19.9324 14.7731 19.3671 15 18.7778 15Z" stroke="#282E36" stroke-opacity="0.25" stroke-width="1.5"/>
<path d="M15.9999 8.53688C15.8525 8.53688 15.7112 8.48015 15.6071 8.37917C15.5029 8.27819 15.4443 8.14123 15.4443 7.99842C15.4443 7.85561 15.5029 7.71865 15.6071 7.61767C15.7112 7.51669 15.8525 7.45996 15.9999 7.45996C16.1472 7.45996 16.2885 7.51669 16.3927 7.61767C16.4969 7.71865 16.5554 7.85561 16.5554 7.99842C16.5554 8.14123 16.4969 8.27819 16.3927 8.37917C16.2885 8.48015 16.1472 8.53688 15.9999 8.53688Z" stroke="#282E36" stroke-opacity="0.25" stroke-width="1.5" stroke-linecap="round" stroke-linejoin="round"/>
</svg>
