<svg width="15" height="15" viewBox="0 0 15 15" fill="none" xmlns="http://www.w3.org/2000/svg">
<path fill-rule="evenodd" clip-rule="evenodd" d="M13.5025 9.98579C13.9545 9.74675 14.3328 9.38898 14.5967 8.95098C14.8606 8.51298 15 8.01133 15 7.5C15 6.98867 14.8606 6.48702 14.5967 6.04902C14.3328 5.61102 13.9545 5.25325 13.5025 5.01421C13.6532 4.52558 13.6677 4.00512 13.5447 3.50882C13.4216 3.01252 13.1655 2.55917 12.8039 2.19756C12.4424 1.83595 11.9891 1.57975 11.4928 1.45654C10.9965 1.33333 10.476 1.34777 9.98732 1.4983C9.74834 1.04605 9.39053 0.667542 8.95241 0.403529C8.51428 0.139517 8.01244 0 7.50091 0C6.98938 0 6.48754 0.139517 6.04941 0.403529C5.61129 0.667542 5.25348 1.04605 5.01451 1.4983C4.52585 1.34764 4.00535 1.33306 3.50903 1.45614C3.0127 1.57922 2.55933 1.83529 2.19769 2.19681C1.83605 2.55833 1.57984 3.0116 1.45663 3.50787C1.33341 4.00413 1.34785 4.5246 1.49839 5.01327C1.04611 5.25223 0.667582 5.61002 0.403553 6.04812C0.139525 6.48622 0 6.98803 0 7.49953C0 8.01103 0.139525 8.51284 0.403553 8.95094C0.667582 9.38904 1.04611 9.74683 1.49839 9.98579C1.34772 10.4744 1.33314 10.9949 1.45623 11.4912C1.57931 11.9875 1.8354 12.4408 2.19694 12.8024C2.55848 13.1641 3.01178 13.4202 3.50808 13.5435C4.00437 13.6667 4.52487 13.6522 5.01357 13.5017C5.25254 13.9539 5.61035 14.3325 6.04848 14.5965C6.4866 14.8605 6.98844 15 7.49997 15C8.01151 15 8.51335 14.8605 8.95147 14.5965C9.3896 14.3325 9.74741 13.9539 9.98638 13.5017C10.475 13.6524 10.9955 13.6669 11.4919 13.5439C11.9882 13.4208 12.4416 13.1647 12.8032 12.8032C13.1648 12.4417 13.421 11.9884 13.5443 11.4921C13.6675 10.9959 13.653 10.4745 13.5025 9.98579ZM11.1159 5.80531C11.1703 5.7306 11.2094 5.64591 11.231 5.55608C11.2526 5.46626 11.2563 5.37305 11.2419 5.28179C11.2275 5.19053 11.1953 5.103 11.147 5.0242C11.0988 4.9454 11.0355 4.87687 10.9608 4.82253C10.8861 4.76818 10.8014 4.72909 10.7115 4.70747C10.6217 4.68586 10.5285 4.68215 10.4372 4.69655C10.346 4.71096 10.2584 4.74319 10.1796 4.79143C10.1008 4.83966 10.0323 4.90294 9.97794 4.97766L6.71304 9.46745L4.95077 7.70527C4.88588 7.63816 4.80828 7.58464 4.72249 7.54784C4.6367 7.51104 4.54444 7.49169 4.45109 7.49092C4.35774 7.49016 4.26517 7.50799 4.17879 7.54337C4.09241 7.57876 4.01394 7.631 3.94796 7.69704C3.88198 7.76307 3.82981 7.84159 3.79451 7.928C3.7592 8.01441 3.74145 8.10699 3.74231 8.20033C3.74316 8.29367 3.7626 8.38591 3.79948 8.47166C3.83637 8.55741 3.88996 8.63496 3.95714 8.69978L6.3006 11.0431C6.37242 11.115 6.45898 11.1704 6.55429 11.2056C6.64961 11.2408 6.75142 11.2549 6.85272 11.247C6.95402 11.2391 7.0524 11.2093 7.14108 11.1597C7.22976 11.1101 7.30663 11.0418 7.3664 10.9597L11.1159 5.80438V5.80531Z" fill="#282E36" fill-opacity="0.25"/>
</svg>
