<svg width="26" height="18" viewBox="0 0 26 18" fill="none" xmlns="http://www.w3.org/2000/svg">
<path d="M0 0H26V2.25H0V0ZM0 15.75H26V18H0V15.75ZM22.0078 12.2782L21.8022 11.2995H19.4988L19.1325 12.2704L17.2865 12.2749C18.4742 9.567 19.3546 7.56112 19.929 6.25612C20.0791 5.91637 20.3462 5.74313 20.7385 5.74538C21.0387 5.74763 21.5292 5.74763 22.2099 5.74538L23.6364 12.276L22.0078 12.2782ZM20.0176 9.9585H21.502L20.9465 7.506L20.0176 9.9585ZM8.12145 5.74425L9.97691 5.7465L7.10864 12.2782L5.22955 12.2771C4.59491 9.94837 4.12809 8.22037 3.83027 7.0965C3.73927 6.75112 3.55845 6.51038 3.20864 6.39675C2.89782 6.2955 2.38018 6.138 1.65455 5.92537V5.74538H4.61973C5.13264 5.74538 5.43164 5.98162 5.52855 6.46537L6.26127 10.1655L8.12145 5.74425ZM12.5261 5.7465L11.0606 12.2771L9.29382 12.2749L10.7593 5.74425L12.5261 5.7465ZM16.1094 5.625C16.6365 5.625 17.303 5.78025 17.6859 5.92537L17.3763 7.27987C17.03 7.14712 16.4604 6.96825 15.9817 6.97613C15.2845 6.98625 14.8543 7.26413 14.8543 7.53075C14.8543 7.96275 15.6012 8.181 16.3717 8.65462C17.2498 9.19462 17.3645 9.67838 17.355 10.2049C17.342 11.2972 16.3717 12.375 14.3236 12.375C13.3888 12.3615 13.052 12.2873 12.2909 12.0308L12.6124 10.6178C13.3876 10.926 13.7174 11.0239 14.3792 11.0239C14.9878 11.0239 15.509 10.791 15.5137 10.3849C15.5161 10.0957 15.3305 9.95288 14.6486 9.59513C13.9667 9.2385 13.0106 8.74463 13.0236 7.75012C13.039 6.47888 14.3095 5.625 16.1094 5.625Z" fill="#014E86"/>
</svg>
