<svg width="13" height="15" viewBox="0 0 13 15" fill="none" xmlns="http://www.w3.org/2000/svg">
<path d="M3.95664 2.5C4.64348 2.5 5.19474 1.93594 5.19474 1.25C5.19474 0.556562 4.64348 0 3.95664 0C3.27383 0 2.71855 0.556875 2.71855 1.25C2.71855 1.93594 3.27383 2.5 3.95664 2.5ZM4.83074 13.9609C2.72226 13.9609 1.01245 12.2106 1.01245 10.0431C1.01245 8.85656 1.53524 7.79781 2.35083 7.07781L2.28305 5.85219C0.917429 6.72781 0 8.26813 0 10.0431C0 12.7781 2.16141 15 4.83074 15C6.79498 15 8.5311 13.6028 9.28572 11.875L8.55029 10.8525C8.1869 12.6228 6.66529 13.9609 4.83074 13.9609ZM12.381 11.5625H11.7619L9.28572 8.125C9.15169 7.88719 8.66667 7.1875 8.04762 7.1875H5.2619V5.9375H7.7381C8.05876 5.9375 8.40481 5.79969 8.40481 5.46688C8.40481 5.13656 8.06774 5 7.7381 5H5.2619V3.75C5.2164 3.05687 4.64286 2.8125 4.02691 2.82687C3.40476 2.84125 3.09524 3.125 3.09524 3.75V8.125C3.15405 8.82687 3.65455 9.0625 4.33333 9.0625H8.04762L10.2143 11.875C10.3539 12.1081 10.8333 12.8125 10.8333 12.8125H12.381C12.7004 12.8125 13 12.5194 13 12.1875C13 11.8572 12.7103 11.5625 12.381 11.5625Z" fill="#282E36" fill-opacity="0.25"/>
</svg>
