<svg width="58" height="58" viewBox="0 0 58 58" fill="none" xmlns="http://www.w3.org/2000/svg">
<path d="M10.875 0H14.5V10.875H10.875V0ZM39.875 0H43.5V10.875H39.875V0Z" fill="#0076D7"/>
<path d="M23.925 50.75H3.625V21.75H50.75V23.925C52.2 24.65 53.2875 25.375 54.375 26.4625V3.625H47.125V14.5H36.25V3.625H18.125V14.5H7.25V3.625H0V54.375H26.4625C25.375 53.2875 24.65 52.2 23.925 50.75Z" fill="#0076D7"/>
<path d="M50.75 43.5H39.875V32.625H43.5V39.875H50.75V43.5Z" fill="#0076D7"/>
<path d="M41.6875 29C48.575 29 54.375 34.8 54.375 41.6875C54.375 48.575 48.575 54.375 41.6875 54.375C34.8 54.375 29 48.575 29 41.6875C29 34.8 34.8 29 41.6875 29ZM41.6875 25.375C32.625 25.375 25.375 32.625 25.375 41.6875C25.375 50.75 32.625 58 41.6875 58C50.75 58 58 50.75 58 41.6875C58 32.625 50.75 25.375 41.6875 25.375Z" fill="#0076D7"/>
</svg>
