<svg width="58" height="58" viewBox="0 0 58 58" fill="none" xmlns="http://www.w3.org/2000/svg">
<path d="M2.9 11.6C1.305 11.6 0 12.905 0 14.5V52.2C0 55.39 2.61 58 5.8 58H43.5C45.095 58 46.4 56.695 46.4 55.1C46.4 53.505 45.095 52.2 43.5 52.2H8.7C7.105 52.2 5.8 50.895 5.8 49.3V14.5C5.8 12.905 4.495 11.6 2.9 11.6ZM52.2 0H17.4C14.21 0 11.6 2.61 11.6 5.8V40.6C11.6 43.79 14.21 46.4 17.4 46.4H52.2C55.39 46.4 58 43.79 58 40.6V5.8C58 2.61 55.39 0 52.2 0ZM46.4 26.1H37.7V34.8C37.7 36.395 36.395 37.7 34.8 37.7C33.205 37.7 31.9 36.395 31.9 34.8V26.1H23.2C21.605 26.1 20.3 24.795 20.3 23.2C20.3 21.605 21.605 20.3 23.2 20.3H31.9V11.6C31.9 10.005 33.205 8.7 34.8 8.7C36.395 8.7 37.7 10.005 37.7 11.6V20.3H46.4C47.995 20.3 49.3 21.605 49.3 23.2C49.3 24.795 47.995 26.1 46.4 26.1Z" fill="#0076D7"/>
</svg>
