<svg width="67" height="61" viewBox="0 0 67 61" fill="none" xmlns="http://www.w3.org/2000/svg">
<path d="M66.9871 35.883C66.9786 35.1445 66.8213 34.4154 66.5246 33.7392C66.228 33.0631 65.798 32.4538 65.2606 31.948C63.1136 29.9154 59.6384 29.9885 57.5097 32.1287L54.1529 35.5095L54.0507 35.4073C53.3816 34.7382 52.4745 34.3625 51.5289 34.363C50.5833 34.3634 49.6765 34.74 49.0081 35.4098L47.5501 36.8713C47.3392 37.0824 47.1719 37.3331 47.0579 37.609C46.9438 37.8849 46.8852 38.1806 46.8853 38.4792C46.8855 38.7778 46.9444 39.0735 47.0587 39.3492C47.1731 39.625 47.3406 39.8756 47.5516 40.0865L48.1144 40.6494L39.6235 49.1664C38.8559 49.9308 38.3042 50.8852 38.0245 51.9325C37.7449 52.9798 37.7473 54.0825 38.0315 55.1286L36.686 58.213C36.5318 58.5639 36.4875 58.9534 36.5588 59.33C36.6302 59.7067 36.8139 60.0528 37.0858 60.3228C37.2946 60.5358 37.5436 60.7052 37.8183 60.8212C38.0929 60.9373 38.3878 60.9976 38.6859 60.9988C39.0027 60.9991 39.3162 60.9338 39.6065 60.8068L42.5235 59.5232C43.5505 59.7734 44.6247 59.7542 45.6421 59.4674C46.6596 59.1806 47.586 58.6359 48.3319 57.8859L56.8276 49.3673L57.3903 49.9319C57.6011 50.1428 57.8514 50.3101 58.1268 50.4241C58.4022 50.5382 58.6973 50.5968 58.9953 50.5967C59.2933 50.5965 59.5884 50.5376 59.8637 50.4233C60.1389 50.3089 60.389 50.1414 60.5997 49.9303L62.0577 48.4688C62.7246 47.7975 63.0988 46.889 63.0983 45.9421C63.0978 44.9952 62.7228 44.087 62.0553 43.4163L61.9482 43.3109L65.3682 39.8619C65.8918 39.3421 66.3052 38.7217 66.5834 38.038C66.8616 37.3542 66.9989 36.6212 66.9871 35.883ZM46.9616 56.5054C46.4207 57.0473 45.7428 57.4315 45.0005 57.6168C44.2581 57.8022 43.4794 57.7817 42.7478 57.5576C42.5251 57.4892 42.2852 57.5031 42.0719 57.5969L38.8309 59.0186C38.7753 59.0427 38.7142 59.0508 38.6543 59.042C38.5944 59.0331 38.5382 59.0077 38.4921 58.9685L39.9686 55.5756C40.066 55.3545 40.0769 55.1048 39.9991 54.876C39.6677 53.9091 39.6995 52.8543 40.0884 51.9091L51.561 51.9035L46.9616 56.5054ZM53.5051 49.9549L41.5852 49.9607L49.496 42.0299L55.4573 47.9965L53.5051 49.9549ZM63.9979 38.4927L59.8861 42.6318C59.7046 42.8145 59.6027 43.0617 59.6029 43.3193C59.603 43.577 59.7051 43.8241 59.8868 44.0066L60.6782 44.7998C60.829 44.9505 60.9486 45.1294 61.0303 45.3264C61.1119 45.5234 61.154 45.7346 61.1541 45.9479C61.1542 46.1612 61.1123 46.3724 61.0309 46.5695C60.9494 46.7666 60.8299 46.9456 60.6793 47.0964L59.2212 48.5579C59.1605 48.6184 59.0784 48.6523 58.9927 48.6524C58.9071 48.6524 58.8249 48.6185 58.7641 48.5581L48.9222 38.7111C48.8921 38.681 48.8681 38.6452 48.8518 38.6058C48.8355 38.5664 48.8271 38.5241 48.827 38.4815C48.827 38.4388 48.8354 38.3966 48.8517 38.3572C48.868 38.3178 48.8919 38.2819 48.922 38.2518L50.3801 36.7903C50.6839 36.4859 51.096 36.3148 51.5258 36.3146C51.9556 36.3144 52.3679 36.4851 52.672 36.7892L53.465 37.5825C53.6476 37.7645 53.8948 37.8665 54.1524 37.8662C54.2804 37.866 54.4072 37.8405 54.5254 37.7911C54.6436 37.7418 54.7509 37.6695 54.8411 37.5786L58.8816 33.5044C60.27 32.1111 62.5295 32.0419 63.9176 33.364C64.2648 33.6918 64.5428 34.0861 64.735 34.5235C64.9272 34.9609 65.0298 35.4324 65.0367 35.9103C65.0436 36.3881 64.9546 36.8624 64.7751 37.3052C64.5955 37.7479 64.329 38.1501 63.9914 38.4878L63.9979 38.4927Z" fill="#0076D7"/>
<path d="M54.79 27.419L30.4182 3L3 30.4714H9.09294V51.8381C9.09294 53.4571 9.73487 55.0099 10.8775 56.1548C12.0202 57.2996 13.5699 57.9428 15.1859 57.9428H30.4182" stroke="#0076D7" stroke-width="5" stroke-linecap="round" stroke-linejoin="round"/>
<path d="M21.2793 57.9425V39.6282C21.2793 38.0091 21.9212 36.4563 23.0639 35.3115C24.2065 34.1666 25.7563 33.5234 27.3722 33.5234H33.4652C34.4553 33.5234 35.3875 33.7585 36.2131 34.1797" stroke="#0076D7" stroke-width="5" stroke-linecap="round" stroke-linejoin="round"/>
</svg>
