<svg width="30" height="30" viewBox="0 0 30 30" fill="none" xmlns="http://www.w3.org/2000/svg">
<path d="M20.928 19.246L20.1696 20.0454C20.1696 20.0454 18.3646 21.9443 13.4397 16.7595C8.5147 11.5748 10.3197 9.67592 10.3197 9.67592L10.7964 9.17121C11.9747 7.93238 12.0863 5.94178 11.058 4.48765L8.95803 1.51762C7.68471 -0.282391 5.22639 -0.520628 3.76807 1.01468L1.15142 3.76764C0.429758 4.53 -0.053573 5.51471 0.00475997 6.60884C0.154759 9.40945 1.35142 15.4324 8.02471 22.4596C15.103 29.9102 21.7446 30.2067 24.4596 29.9384C25.3196 29.8537 26.0663 29.3914 26.6679 28.7561L29.0346 26.2643C30.6346 24.5825 30.1846 21.6972 28.1379 20.5201L24.9546 18.6866C23.6113 17.9136 21.9779 18.1413 20.928 19.246Z" fill="#0076D7"/>
</svg>