<svg width="58" height="58" viewBox="0 0 58 58" fill="none" xmlns="http://www.w3.org/2000/svg">
<path d="M44.1905 35.9048H11.0476L0 46.9524V2.7619C0 2.0294 0.290986 1.3269 0.808943 0.808943C1.3269 0.290985 2.0294 0 2.7619 0H44.1905C44.923 0 45.6255 0.290985 46.1434 0.808943C46.6614 1.3269 46.9524 2.0294 46.9524 2.7619V33.1429C46.9524 33.8754 46.6614 34.5779 46.1434 35.0958C45.6255 35.6138 44.923 35.9048 44.1905 35.9048ZM58 19.3333V58L46.9524 46.9524H16.5714C15.8389 46.9524 15.1364 46.6614 14.6185 46.1434C14.1005 45.6255 13.8095 44.923 13.8095 44.1905V41.4286H52.4762V16.5714H55.2381C55.9706 16.5714 56.6731 16.8624 57.1911 17.3804C57.709 17.8983 58 18.6008 58 19.3333ZM17.0962 5.52381C14.6933 5.52381 12.76 6.07619 11.2686 7.15333C9.83238 8.28571 9.11429 9.86 9.14191 12.0419L9.16953 12.1248H14.5C14.5276 11.2962 14.7762 10.661 15.2733 10.219C15.7848 9.79494 16.4319 9.56941 17.0962 9.58381C17.9524 9.58381 18.6705 9.86 19.1676 10.3571C19.6648 10.8819 19.8857 11.6 19.8857 12.4286C19.8857 13.3124 19.6924 14.0581 19.2505 14.6933C18.8638 15.3286 18.2838 15.8809 17.5657 16.3229C16.1571 17.2619 15.1905 18.0905 14.6657 18.8362C14.1133 19.5543 13.8095 20.7143 13.8095 22.0952H19.3333C19.3333 21.239 19.4438 20.5486 19.6924 20.0514C19.941 19.5543 20.4105 19.0571 21.101 18.6152C22.3438 17.9524 23.3657 17.1514 24.1667 16.0467C24.9676 14.9419 25.3819 13.8095 25.3819 12.4286C25.3819 10.3295 24.6362 8.64476 23.1448 7.4019C21.681 6.15905 19.6648 5.52381 17.0962 5.52381ZM13.8095 24.8571V30.3809H19.3333V24.8571H13.8095ZM30.381 30.3809H35.9048V24.8571H30.381V30.3809ZM30.381 5.52381V22.0952H35.9048V5.52381H30.381Z" fill="#0076D7"/>
</svg>
