<svg width="58" height="58" viewBox="0 0 58 58" fill="none" xmlns="http://www.w3.org/2000/svg">
<path d="M11.6 48.0414L2.465 57.4996C1.98167 58 1.45 58.1251 0.87 57.8749C0.29 57.6247 0 57.1493 0 56.4487V6.00518C0 4.35376 0.5684 2.93954 1.7052 1.76252C2.842 0.585509 4.20693 -0.00199663 5.8 5.09778e-06H52.2C53.795 5.09778e-06 55.1609 0.588512 56.2977 1.76553C57.4345 2.94254 58.0019 4.35576 58 6.00518V42.0362C58 43.6877 57.4316 45.1019 56.2948 46.2789C55.158 47.4559 53.7931 48.0434 52.2 48.0414H11.6ZM29 31.4521L34.51 34.9051C35.0417 35.2554 35.5733 35.2424 36.105 34.8661C36.6367 34.4897 36.83 33.9773 36.685 33.3287L35.235 26.7981L40.165 22.3693C40.6483 21.9189 40.7933 21.3814 40.6 20.7569C40.4067 20.1324 39.9717 19.7941 39.295 19.742L32.8425 19.2166L30.305 13.0613C30.0633 12.4607 29.6283 12.1605 29 12.1605C28.3717 12.1605 27.9367 12.4607 27.695 13.0613L25.1575 19.2166L18.705 19.742C18.0283 19.7921 17.5933 20.1304 17.4 20.7569C17.2067 21.3834 17.3517 21.9209 17.835 22.3693L22.765 26.7981L21.315 33.3287C21.17 33.9793 21.3633 34.4927 21.895 34.8691C22.4267 35.2454 22.9583 35.2574 23.49 34.9051L29 31.4521Z" fill="#0076D7"/>
</svg>
